<svg xmlns="http://www.w3.org/2000/svg" width="152.088" height="61" viewBox="0 0 152.088 61"><g transform="translate(-42 -42)"><path d="M1.834-.405A.4.4,0,0,0,2.239,0h8.83a.4.4,0,0,0,.405-.405V-2.73a.4.4,0,0,0-.405-.405H5.161V-6.014h4.863a.4.4,0,0,0,.405-.405V-8.744a.42.42,0,0,0-.405-.405H5.161v-2.645h5.908a.4.4,0,0,0,.405-.405v-2.325a.4.4,0,0,0-.405-.405H2.239a.4.4,0,0,0-.405.405ZM13.8-1.429A6.772,6.772,0,0,0,18.6.213C21.733.213,23.631-2,23.631-4.2c0-2.9-2.645-4.2-4.308-4.863C17.638-9.747,17-10.344,17-11.133a1.237,1.237,0,0,1,1.344-1.088,6.68,6.68,0,0,1,3.05,1.28c.192.149.576-.043.725-.277L23.2-12.861a.54.54,0,0,0-.128-.682,7.932,7.932,0,0,0-4.564-1.6c-3.285,0-4.927,2.133-4.927,4.244,0,2.559,2.3,3.988,4.138,4.713,1.45.576,2.2,1.258,2.2,2.154a1.337,1.337,0,0,1-1.472,1.28A6.372,6.372,0,0,1,15.42-3.924a.55.55,0,0,0-.725.128l-1,1.77C13.522-1.728,13.586-1.642,13.8-1.429ZM26.447-.405A.4.4,0,0,0,26.852,0h2.517a.42.42,0,0,0,.405-.405V-5.417h2.239a4.8,4.8,0,0,0,4.756-4.8,4.77,4.77,0,0,0-4.777-4.713h-5.14a.4.4,0,0,0-.405.405Zm3.327-8.126v-3.263H31.8a1.627,1.627,0,0,1,1.685,1.578A1.675,1.675,0,0,1,31.8-8.531ZM36.812,0h2.346a.794.794,0,0,0,.768-.512l.768-1.706h5.8l.768,1.685c.192.405.363.533.746.533h2.367a.377.377,0,0,0,.363-.555L44.064-14.908a.433.433,0,0,0-.363-.235h-.213a.433.433,0,0,0-.363.235L36.449-.555A.377.377,0,0,0,36.812,0Zm5.161-5.119,1.6-3.519h.021l1.621,3.519Zm9.512-2.325a7.646,7.646,0,0,0,7.7,7.657,7.32,7.32,0,0,0,5.183-2.069.427.427,0,0,0,.021-.576L62.726-4.2a.421.421,0,0,0-.555-.021A4.51,4.51,0,0,1,59.313-3.2a4.225,4.225,0,0,1-4.2-4.33,4.25,4.25,0,0,1,4.18-4.394,4.357,4.357,0,0,1,2.879,1.088.373.373,0,0,0,.533,0l1.664-1.728a.4.4,0,0,0-.021-.6,7.164,7.164,0,0,0-5.161-1.983A7.682,7.682,0,0,0,51.486-7.443ZM67.14-.405A.4.4,0,0,0,67.546,0h8.83a.4.4,0,0,0,.405-.405V-2.73a.4.4,0,0,0-.405-.405H70.468V-6.014H75.33a.4.4,0,0,0,.405-.405V-8.744a.42.42,0,0,0-.405-.405H70.468v-2.645h5.908a.4.4,0,0,0,.405-.405v-2.325a.4.4,0,0,0-.405-.405h-8.83a.4.4,0,0,0-.405.405ZM1.834,20.923a.4.4,0,0,0,.405.405H4.756a.42.42,0,0,0,.405-.405V15.911H7.4A4.756,4.756,0,1,0,7.379,6.4H2.239a.4.4,0,0,0-.405.405ZM5.161,12.8V9.534H7.188a1.627,1.627,0,0,1,1.685,1.578A1.675,1.675,0,0,1,7.188,12.8Zm9.384,8.126a.4.4,0,0,0,.405.405h2.538a.42.42,0,0,0,.405-.405V15.484h1.472L22.2,21.136a.393.393,0,0,0,.341.192H25.38a.4.4,0,0,0,.363-.619l-2.922-5.417a4.679,4.679,0,0,0,3.157-4.287A4.638,4.638,0,0,0,21.328,6.4H14.951a.4.4,0,0,0-.405.405Zm3.348-8.147V9.448h3.157a1.634,1.634,0,0,1,1.621,1.621,1.71,1.71,0,0,1-1.621,1.706Zm10.067,1.109a7.667,7.667,0,1,0,7.657-7.7A7.61,7.61,0,0,0,27.961,13.884Zm3.412,0a4.255,4.255,0,1,1,4.244,4.244A4.292,4.292,0,0,1,31.373,13.884Z" transform="translate(117.307 69.316)" fill="#fff"/><g transform="translate(0 2)"><rect width="61" height="61" transform="translate(42 40)" fill="#fff"/><path d="M1.215,6.359a1.309,1.309,0,0,1,.509-.646,1.416,1.416,0,0,1,1.584,0,1.32,1.32,0,0,1,.509.655A2.629,2.629,0,0,0,4.8,7.627a2.674,2.674,0,0,0,3.036-.007A2.562,2.562,0,0,0,8.8,6.353a.555.555,0,0,0-.019-.468.639.639,0,0,0-.359-.319.608.608,0,0,0-.48.009.6.6,0,0,0-.33.346,1.381,1.381,0,0,1-.509.665,1.369,1.369,0,0,1-1.584,0A1.359,1.359,0,0,1,5,5.929a2.51,2.51,0,0,0-.962-1.247,2.643,2.643,0,0,0-1.527-.465,2.611,2.611,0,0,0-1.509.465A2.51,2.51,0,0,0,.045,5.929a.611.611,0,0,0,.009.483A.6.6,0,0,0,.4,6.729a.536.536,0,0,0,.226.037.574.574,0,0,0,.585-.407" transform="translate(49 48)" fill="#063a86"/><path d="M2.214,7.347a.394.394,0,0,0-.273.112.365.365,0,0,0-.123.281v5.135a.385.385,0,0,0,.123.3.394.394,0,0,0,.273.113h.641a.429.429,0,0,0,.282-.113.375.375,0,0,0,.133-.3V7.74a.356.356,0,0,0-.133-.281.429.429,0,0,0-.282-.112Z" transform="translate(49 48)" fill="#063a86"/><path d="M2.214,2.98h.666a.4.4,0,0,0,.274-.112.368.368,0,0,0,.122-.281H3.27V1.424H9.605a.353.353,0,0,0,.359-.356V.525A.353.353,0,0,0,9.605.169H2.176a.348.348,0,0,0-.254.1.344.344,0,0,0-.1.253V2.587a.365.365,0,0,0,.123.281.393.393,0,0,0,.273.112" transform="translate(49 48)" fill="#063a86"/><path d="M11.521,4.648a5.461,5.461,0,0,1,2.886-2.9,5.394,5.394,0,0,1,4.224,0,5.628,5.628,0,0,1,1.734,1.171,5.554,5.554,0,0,1,1.179,1.733,5.193,5.193,0,0,1,.434,2.1,5.125,5.125,0,0,1-.434,2.09,5.467,5.467,0,0,1-1.179,1.715,5.718,5.718,0,0,1-1.734,1.162,5.39,5.39,0,0,1-4.224,0,5.589,5.589,0,0,1-1.725-1.162,5.417,5.417,0,0,1-1.161-1.715,5.233,5.233,0,0,1-.424-2.09,5.3,5.3,0,0,1,.424-2.1M10.305,9.371A6.819,6.819,0,0,0,11.739,11.5a6.629,6.629,0,0,0,2.14,1.433,6.92,6.92,0,0,0,5.29,0,6.9,6.9,0,0,0,2.15-1.433A6.688,6.688,0,0,0,22.77,9.371,6.536,6.536,0,0,0,23.3,6.747a6.647,6.647,0,0,0-1.98-4.769A7.073,7.073,0,0,0,19.169.534a6.811,6.811,0,0,0-5.29,0,6.707,6.707,0,0,0-3.573,3.58,6.59,6.59,0,0,0-.528,2.633,6.527,6.527,0,0,0,.528,2.624" transform="translate(49 48)" fill="#063a86"/><path d="M15.02,9.577a2.535,2.535,0,0,0,1.508.469,2.584,2.584,0,0,0,1.519-.469,2.656,2.656,0,0,0,.971-1.256A.577.577,0,0,0,19,7.843a.638.638,0,0,0-.358-.328.586.586,0,0,0-.481.019.632.632,0,0,0-.33.356,1.327,1.327,0,0,1-.51.656,1.411,1.411,0,0,1-1.584,0,1.319,1.319,0,0,1-.509-.656.641.641,0,0,0-.32-.356.564.564,0,0,0-.472-.019.642.642,0,0,0-.359.328.577.577,0,0,0-.018.477,2.672,2.672,0,0,0,.962,1.256" transform="translate(49 48)" fill="#063a86"/><path d="M25.217,13.287h.744a.313.313,0,0,0,.354-.357V.525a.314.314,0,0,0-.354-.356h-.744a.314.314,0,0,0-.354.356V12.931a.314.314,0,0,0,.354.357" transform="translate(49 48)" fill="#063a86"/><path d="M43.521,5.744a1.4,1.4,0,0,0,0,1.967,1.349,1.349,0,0,0,.99.4,1.38,1.38,0,0,0,1.376-1.387,1.38,1.38,0,0,0-1.376-1.387,1.351,1.351,0,0,0-.99.4" transform="translate(49 48)" fill="#063a86"/><path d="M48,1.068V.525a.316.316,0,0,0-.358-.356h-7.43a.316.316,0,0,0-.358.356V12.931a.316.316,0,0,0,.358.357h7.43A.316.316,0,0,0,48,12.931v-.543a.316.316,0,0,0-.358-.356H41.306V1.424h6.336A.315.315,0,0,0,48,1.068" transform="translate(49 48)" fill="#063a86"/><path d="M22.711,17.321v-.544a.316.316,0,0,0-.358-.356h-7.43a.315.315,0,0,0-.358.356V29.183a.316.316,0,0,0,.358.357h7.43a.316.316,0,0,0,.358-.357v-.543a.317.317,0,0,0-.358-.357H16.016V17.677h6.336a.316.316,0,0,0,.358-.356" transform="translate(49 48)" fill="#063a86"/><path d="M18.233,22a1.393,1.393,0,0,0,0,1.967,1.347,1.347,0,0,0,.989.4,1.387,1.387,0,0,0,0-2.774,1.352,1.352,0,0,0-.989.4" transform="translate(49 48)" fill="#063a86"/><path d="M10.24,38.476a4.077,4.077,0,0,0,.33-1.64,3.978,3.978,0,0,0-.33-1.6,4.141,4.141,0,0,0-.906-1.322,4.31,4.31,0,0,0-1.348-.889,4.143,4.143,0,0,0-1.64-.328H2.178a.316.316,0,0,0-.359.355V45.457a.318.318,0,0,0,.363.356h.726a.318.318,0,0,0,.363-.356V34.119H6.26a2.943,2.943,0,0,1,1.1.205,3.03,3.03,0,0,1,.912.563A2.566,2.566,0,0,1,9.118,36.8a2.806,2.806,0,0,1-.226,1.125,2.771,2.771,0,0,1-.622.908,3.043,3.043,0,0,1-.915.61,2.735,2.735,0,0,1-1.1.224H5.138a.37.37,0,0,0-.283.122.391.391,0,0,0-.113.271v.6a.385.385,0,0,0,.113.271.365.365,0,0,0,.283.122H6.364A4.084,4.084,0,0,0,8,40.724a4.164,4.164,0,0,0,1.339-.908,4.363,4.363,0,0,0,.906-1.34" transform="translate(49 48)" fill="#063a86"/><path d="M16.962,41.259a.588.588,0,0,0-.481.018.635.635,0,0,0-.33.356,1.314,1.314,0,0,1-.472.6,1.191,1.191,0,0,1-.7.225,1.22,1.22,0,0,1-.717-.225,1.31,1.31,0,0,1-.471-.6.641.641,0,0,0-.32-.356.605.605,0,0,0-.49-.018.594.594,0,0,0-.368.328.642.642,0,0,0-.01.5,2.429,2.429,0,0,0,.925,1.19,2.487,2.487,0,0,0,1.452.459,2.521,2.521,0,0,0,2.357-1.649.646.646,0,0,0-.01-.5.6.6,0,0,0-.367-.328" transform="translate(49 48)" fill="#063a86"/><path d="M15.416,32.525a.353.353,0,0,0-.32-.206h-.188a.343.343,0,0,0-.34.206l-5.808,12.8a.311.311,0,0,0,.009.337.351.351,0,0,0,.311.15h.773a.307.307,0,0,0,.208-.066.467.467,0,0,0,.113-.141l4.734-10.551h.15l.943,2.1q.527,1.182,1.433,3.232t2.338,5.22a.455.455,0,0,0,.113.141.3.3,0,0,0,.207.066h.773a.35.35,0,0,0,.311-.15.311.311,0,0,0,.01-.337Z" transform="translate(49 48)" fill="#063a86"/><path d="M34.595,32.695H33.85a.313.313,0,0,0-.353.355V45.457a.313.313,0,0,0,.353.356h.745a.314.314,0,0,0,.354-.356V33.05a.313.313,0,0,0-.354-.355" transform="translate(49 48)" fill="#063a86"/><path d="M43.642,40.125a6.424,6.424,0,0,0-1.32-.871q-.774-.393-1.735-.787a6.436,6.436,0,0,1-1.867-1.1,2.016,2.016,0,0,1-.556-2.2,1.782,1.782,0,0,1,.424-.665,2.487,2.487,0,0,1,.8-.525,3.175,3.175,0,0,1,1.255-.216,2.875,2.875,0,0,1,.867.131,7.279,7.279,0,0,1,.755.281,4.735,4.735,0,0,1,.566.291,2.24,2.24,0,0,0,.283.16.443.443,0,0,0,.66-.169L44,34.1a.416.416,0,0,0,.075-.431.435.435,0,0,0-.189-.206c-.138-.088-.286-.172-.443-.253a4.754,4.754,0,0,0-.481-.216,7.1,7.1,0,0,0-1.019-.337,5.182,5.182,0,0,0-1.282-.15,4.584,4.584,0,0,0-1.895.347,3.819,3.819,0,0,0-1.236.852,3.262,3.262,0,0,0-.886,2.137,3.824,3.824,0,0,0,.226,1.387,3.167,3.167,0,0,0,.651,1.03,4.132,4.132,0,0,0,1.046.787q.622.337,1.4.674.81.356,1.433.674a5.645,5.645,0,0,1,1.037.666,2.507,2.507,0,0,1,.623.741,1.862,1.862,0,0,1,.207.88,1.821,1.821,0,0,1-.179.788,2,2,0,0,1-.509.655,2.548,2.548,0,0,1-.8.45,3.108,3.108,0,0,1-1.038.168,3.41,3.41,0,0,1-1.2-.207,6.017,6.017,0,0,1-.981-.459,4.534,4.534,0,0,1-.688-.488c-.176-.155-.283-.246-.32-.271-.139-.113-.258-.143-.358-.093a.95.95,0,0,0-.3.262l-.283.356c-.114.176-.142.309-.085.4a.915.915,0,0,0,.2.235,4.719,4.719,0,0,0,.415.337,5.689,5.689,0,0,0,.83.506,6.97,6.97,0,0,0,1.207.469A5.363,5.363,0,0,0,40.7,46a4.808,4.808,0,0,0,1.556-.253,4.167,4.167,0,0,0,1.3-.7,3.451,3.451,0,0,0,.885-1.069,2.808,2.808,0,0,0,.33-1.348,3.23,3.23,0,0,0-.293-1.416,3.4,3.4,0,0,0-.838-1.087" transform="translate(49 48)" fill="#063a86"/><path d="M33.65,8.125c.033,0,.029,0,0,0-.061,0-.071.005,0,0" transform="translate(49 48)" fill="#063a86"/><path d="M30.085,6.87V1.51h3.659a2.56,2.56,0,0,1,1.037.215,3.035,3.035,0,0,1,.868.57,2.592,2.592,0,0,1,.594.84,2.454,2.454,0,0,1,.217,1.009,2.66,2.66,0,0,1-.811,1.933,2.936,2.936,0,0,1-.868.579,2.556,2.556,0,0,1-1.037.215Zm5.073,1.087a4.53,4.53,0,0,0,1.132-.628,4.31,4.31,0,0,0,.877-.881,4.14,4.14,0,0,0,.575-1.077,3.657,3.657,0,0,0,.207-1.237,3.806,3.806,0,0,0-.32-1.565A3.974,3.974,0,0,0,36.742,1.3,4.2,4.2,0,0,0,35.432.451a4.106,4.106,0,0,0-1.593-.31H28.954A.316.316,0,0,0,28.6.5V12.9a.316.316,0,0,0,.358.357h.736a.415.415,0,0,0,.273-.1.318.318,0,0,0,.122-.253V8.125c.657,0,3.271-.009,3.56,0a12.216,12.216,0,0,0,1.513-.166" transform="translate(49 48)" fill="#063a86"/><path d="M37.635,13.238a.328.328,0,0,0,.329-.178.4.4,0,0,0-.009-.365l-1.637-3.65c-.084-.238-.189-.33-.43-.329h-.74a.486.486,0,0,0-.308.082.264.264,0,0,0-.092.267h0l0,0v0h0l1.622,4a.521.521,0,0,0,.1.113.3.3,0,0,0,.2.056Z" transform="translate(49 48)" fill="#063a86"/><path d="M27.566,40.678c.032,0,.027,0,0,0-.061,0-.07,0,0,0" transform="translate(49 48)" fill="#063a86"/><path d="M27.356,39.422H23.7V34.063h3.658a2.549,2.549,0,0,1,1.037.215,3.026,3.026,0,0,1,.868.568,2.616,2.616,0,0,1,.594.841,2.455,2.455,0,0,1,.217,1.008,2.654,2.654,0,0,1-.81,1.932,2.927,2.927,0,0,1-.868.579,2.553,2.553,0,0,1-1.037.215m2.545.459a4.359,4.359,0,0,0,.877-.88,4.149,4.149,0,0,0,.575-1.079,3.668,3.668,0,0,0,.207-1.237,3.814,3.814,0,0,0-.32-1.564,3.994,3.994,0,0,0-.887-1.266A4.188,4.188,0,0,0,29.043,33a4.111,4.111,0,0,0-1.593-.31H22.566a.316.316,0,0,0-.358.356V45.457a.316.316,0,0,0,.358.356H23.3a.416.416,0,0,0,.274-.1.32.32,0,0,0,.123-.253V40.678c.656,0,3.269-.011,3.559,0a12.1,12.1,0,0,0,1.513-.166,4.54,4.54,0,0,0,1.131-.628" transform="translate(49 48)" fill="#063a86"/><path d="M29.93,41.6c-.084-.238-.189-.329-.43-.329H28.76a.488.488,0,0,0-.307.081.263.263,0,0,0-.093.268h0l0,0v0h0l1.621,4a.5.5,0,0,0,.1.112.29.29,0,0,0,.2.057h.962a.329.329,0,0,0,.33-.178.391.391,0,0,0-.01-.364Z" transform="translate(49 48)" fill="#063a86"/><path d="M3.281,17.675H6.1a5.645,5.645,0,0,1,2.126.395,5.173,5.173,0,0,1,1.693,1.089,4.806,4.806,0,0,1,1.11,1.671,5.909,5.909,0,0,1,0,4.252,4.917,4.917,0,0,1-1.113,1.671,5.088,5.088,0,0,1-1.7,1.1,5.65,5.65,0,0,1-2.131.395H3.281ZM2.889,29.538h3.5a6.463,6.463,0,0,0,2.565-.515,6.792,6.792,0,0,0,2.112-1.406,6.535,6.535,0,0,0,1.423-2.089,6.4,6.4,0,0,0,.519-2.568,6.28,6.28,0,0,0-.519-2.539,6.576,6.576,0,0,0-1.423-2.08,6.8,6.8,0,0,0-2.112-1.406,6.468,6.468,0,0,0-2.565-.515H2.168a.305.305,0,0,0-.34.351V29.142a.364.364,0,0,0,.125.281.428.428,0,0,0,.3.113l.63.005s.006,0,.01,0" transform="translate(49 48)" fill="#063a86"/></g></g></svg>