<svg xmlns="http://www.w3.org/2000/svg" width="65" height="65" viewBox="0 0 65 65"><style>
@keyframes a0_t { 0% { transform: translate(-1434.2px,-251px); } 100% { transform: translate(-1434.2px,-251px); } }
@keyframes a1_d { 0% { d: path('M-29.5,64.7C-29.6,64.7,-29.7,64.7,-29.8,64.6C-29.9,64.6,-30,64.6,-30.1,64.5C-30.2,64.5,-30.3,64.4,-30.3,64.3C-30.4,64.2,-30.4,64.2,-30.5,64.1C-33.2,58.5,-40.4,54.7,-48.4,54.7C-56.3,54.7,-63.5,58.5,-66.2,64.1C-66.3,64.2,-66.4,64.3,-66.5,64.4C-66.6,64.5,-66.7,64.6,-66.8,64.6C-67,64.7,-67.1,64.7,-67.3,64.7C-67.4,64.7,-67.5,64.6,-67.7,64.6C-67.8,64.5,-67.9,64.4,-68,64.3C-68.1,64.2,-68.2,64.1,-68.2,64C-68.3,63.8,-68.3,63.7,-68.3,63.5C-68.3,63.4,-68.2,63.3,-68.2,63.1C-65.1,56.8,-57.2,52.6,-48.4,52.6C-39.4,52.6,-31.7,56.7,-28.5,63.1C-28.5,63.3,-28.4,63.4,-28.4,63.5C-28.4,63.7,-28.4,63.8,-28.5,64C-28.5,64.1,-28.6,64.2,-28.7,64.3C-28.8,64.4,-28.9,64.5,-29,64.6C-29.1,64.6,-29.1,64.6,-29.2,64.6C-29.2,64.6,-29.2,64.6,-29.3,64.7C-29.3,64.7,-29.4,64.7,-29.4,64.7C-29.4,64.7,-29.5,64.7,-29.5,64.7Z'); } 21.977% { d: path('M-29.5,64.7C-29.6,64.7,-29.7,64.7,-29.8,64.6C-29.9,64.6,-30,64.6,-30.1,64.5C-30.2,64.5,-30.3,64.4,-30.3,64.3C-30.4,64.2,-30.4,64.2,-30.5,64.1C-33.2,58.5,-40.4,54.7,-48.4,54.7C-56.3,54.7,-63.5,58.5,-66.2,64.1C-66.3,64.2,-66.4,64.3,-66.5,64.4C-66.6,64.5,-66.7,64.6,-66.8,64.6C-67,64.7,-67.1,64.7,-67.3,64.7C-67.4,64.7,-67.5,64.6,-67.7,64.6C-67.8,64.5,-67.9,64.4,-68,64.3C-68.1,64.2,-68.2,64.1,-68.2,64C-68.3,63.8,-68.3,63.7,-68.3,63.5C-68.3,63.4,-68.2,63.3,-68.2,63.1C-65.1,56.8,-57.2,52.6,-48.4,52.6C-39.4,52.6,-31.7,56.7,-28.5,63.1C-28.5,63.3,-28.4,63.4,-28.4,63.5C-28.4,63.7,-28.4,63.8,-28.5,64C-28.5,64.1,-28.6,64.2,-28.7,64.3C-28.8,64.4,-28.9,64.5,-29,64.6C-29.1,64.6,-29.1,64.6,-29.2,64.6C-29.2,64.6,-29.2,64.6,-29.3,64.7C-29.3,64.7,-29.4,64.7,-29.4,64.7C-29.4,64.7,-29.5,64.7,-29.5,64.7Z'); } 22.727% { d: path('M-29.5,64.7C-29.6,64.7,-29.7,64.7,-29.8,64.6C-29.9,64.6,-30,64.6,-30.1,64.5C-30.2,64.5,-30.3,64.4,-30.3,64.3C-30.4,64.2,-30.4,64.2,-30.5,64.1C-32.9,66.4,-32.9,73.4,-48.4,73.4C-64.4,73.4,-60.4,69.4,-66.2,64.1C-66.3,64.2,-66.4,64.3,-66.5,64.4C-66.6,64.5,-66.7,64.6,-66.8,64.6C-67,64.7,-67.1,64.7,-67.3,64.7C-67.4,64.7,-67.5,64.6,-67.7,64.6C-67.8,64.5,-67.9,64.4,-68,64.3C-68.1,64.2,-68.2,64.1,-68.2,64C-68.3,63.8,-68.3,63.7,-68.3,63.5C-68.3,63.4,-68.2,63.3,-68.2,63.1C-65.1,56.8,-57.2,52.6,-48.4,52.6C-39.4,52.6,-31.7,56.7,-28.5,63.1C-28.5,63.3,-28.4,63.4,-28.4,63.5C-28.4,63.7,-28.4,63.8,-28.5,64C-28.5,64.1,-28.6,64.2,-28.7,64.3C-28.8,64.4,-28.9,64.5,-29,64.6C-29.1,64.6,-29.1,64.6,-29.2,64.6C-29.2,64.6,-29.2,64.6,-29.3,64.7C-29.3,64.7,-29.4,64.7,-29.4,64.7C-29.4,64.7,-29.5,64.7,-29.5,64.7Z'); } 26.523% { d: path('M-29.5,64.7C-29.6,64.7,-29.7,64.7,-29.8,64.6C-29.9,64.6,-30,64.6,-30.1,64.5C-30.2,64.5,-30.3,64.4,-30.3,64.3C-30.4,64.2,-30.4,64.2,-30.5,64.1C-33.2,58.5,-40.4,54.7,-48.4,54.7C-56.3,54.7,-63.5,58.5,-66.2,64.1C-66.3,64.2,-66.4,64.3,-66.5,64.4C-66.6,64.5,-66.7,64.6,-66.8,64.6C-67,64.7,-67.1,64.7,-67.3,64.7C-67.4,64.7,-67.5,64.6,-67.7,64.6C-67.8,64.5,-67.9,64.4,-68,64.3C-68.1,64.2,-68.2,64.1,-68.2,64C-68.3,63.8,-68.3,63.7,-68.3,63.5C-68.3,63.4,-68.2,63.3,-68.2,63.1C-65.1,56.8,-57.2,52.6,-48.4,52.6C-39.4,52.6,-31.7,56.7,-28.5,63.1C-28.5,63.3,-28.4,63.4,-28.4,63.5C-28.4,63.7,-28.4,63.8,-28.5,64C-28.5,64.1,-28.6,64.2,-28.7,64.3C-28.8,64.4,-28.9,64.5,-29,64.6C-29.1,64.6,-29.1,64.6,-29.2,64.6C-29.2,64.6,-29.2,64.6,-29.3,64.7C-29.3,64.7,-29.4,64.7,-29.4,64.7C-29.4,64.7,-29.5,64.7,-29.5,64.7Z'); } 33.341% { d: path('M-29.5,64.7C-29.6,64.7,-29.7,64.7,-29.8,64.6C-29.9,64.6,-30,64.6,-30.1,64.5C-30.2,64.5,-30.3,64.4,-30.3,64.3C-30.4,64.2,-30.4,64.2,-30.5,64.1C-33.2,58.5,-40.4,54.7,-48.4,54.7C-56.3,54.7,-63.5,58.5,-66.2,64.1C-66.3,64.2,-66.4,64.3,-66.5,64.4C-66.6,64.5,-66.7,64.6,-66.8,64.6C-67,64.7,-67.1,64.7,-67.3,64.7C-67.4,64.7,-67.5,64.6,-67.7,64.6C-67.8,64.5,-67.9,64.4,-68,64.3C-68.1,64.2,-68.2,64.1,-68.2,64C-68.3,63.8,-68.3,63.7,-68.3,63.5C-68.3,63.4,-68.2,63.3,-68.2,63.1C-65.1,56.8,-57.2,52.6,-48.4,52.6C-39.4,52.6,-31.7,56.7,-28.5,63.1C-28.5,63.3,-28.4,63.4,-28.4,63.5C-28.4,63.7,-28.4,63.8,-28.5,64C-28.5,64.1,-28.6,64.2,-28.7,64.3C-28.8,64.4,-28.9,64.5,-29,64.6C-29.1,64.6,-29.1,64.6,-29.2,64.6C-29.2,64.6,-29.2,64.6,-29.3,64.7C-29.3,64.7,-29.4,64.7,-29.4,64.7C-29.4,64.7,-29.5,64.7,-29.5,64.7Z'); } 34.091% { d: path('M-29.5,64.7C-29.6,64.7,-29.7,64.7,-29.8,64.6C-29.9,64.6,-30,64.6,-30.1,64.5C-30.2,64.5,-30.3,64.4,-30.3,64.3C-30.4,64.2,-30.4,64.2,-30.5,64.1C-31.9,64.7,-32.9,73.4,-48.4,73.4C-64.4,73.4,-63.9,66.4,-66.2,64.1C-66.3,64.2,-66.4,64.3,-66.5,64.4C-66.6,64.5,-66.7,64.6,-66.8,64.6C-67,64.7,-67.1,64.7,-67.3,64.7C-67.4,64.7,-67.5,64.6,-67.7,64.6C-67.8,64.5,-67.9,64.4,-68,64.3C-68.1,64.2,-68.2,64.1,-68.2,64C-68.3,63.8,-68.3,63.7,-68.3,63.5C-68.3,63.4,-68.2,63.3,-68.2,63.1C-65.1,56.8,-57.2,52.6,-48.4,52.6C-39.4,52.6,-31.7,56.7,-28.5,63.1C-28.5,63.3,-28.4,63.4,-28.4,63.5C-28.4,63.7,-28.4,63.8,-28.5,64C-28.5,64.1,-28.6,64.2,-28.7,64.3C-28.8,64.4,-28.9,64.5,-29,64.6C-29.1,64.6,-29.1,64.6,-29.2,64.6C-29.2,64.6,-29.2,64.6,-29.3,64.7C-29.3,64.7,-29.4,64.7,-29.4,64.7C-29.4,64.7,-29.5,64.7,-29.5,64.7Z'); } 38.636% { d: path('M-29.5,64.7C-29.6,64.7,-29.7,64.7,-29.8,64.6C-29.9,64.6,-30,64.6,-30.1,64.5C-30.2,64.5,-30.3,64.4,-30.3,64.3C-30.4,64.2,-30.4,64.2,-30.5,64.1C-33.2,58.5,-40.4,54.7,-48.4,54.7C-56.3,54.7,-63.5,58.5,-66.2,64.1C-66.3,64.2,-66.4,64.3,-66.5,64.4C-66.6,64.5,-66.7,64.6,-66.8,64.6C-67,64.7,-67.1,64.7,-67.3,64.7C-67.4,64.7,-67.5,64.6,-67.7,64.6C-67.8,64.5,-67.9,64.4,-68,64.3C-68.1,64.2,-68.2,64.1,-68.2,64C-68.3,63.8,-68.3,63.7,-68.3,63.5C-68.3,63.4,-68.2,63.3,-68.2,63.1C-65.1,56.8,-57.2,52.6,-48.4,52.6C-39.4,52.6,-31.7,56.7,-28.5,63.1C-28.5,63.3,-28.4,63.4,-28.4,63.5C-28.4,63.7,-28.4,63.8,-28.5,64C-28.5,64.1,-28.6,64.2,-28.7,64.3C-28.8,64.4,-28.9,64.5,-29,64.6C-29.1,64.6,-29.1,64.6,-29.2,64.6C-29.2,64.6,-29.2,64.6,-29.3,64.7C-29.3,64.7,-29.4,64.7,-29.4,64.7C-29.4,64.7,-29.5,64.7,-29.5,64.7Z'); } 100% { d: path('M-29.5,64.7C-29.6,64.7,-29.7,64.7,-29.8,64.6C-29.9,64.6,-30,64.6,-30.1,64.5C-30.2,64.5,-30.3,64.4,-30.3,64.3C-30.4,64.2,-30.4,64.2,-30.5,64.1C-33.2,58.5,-40.4,54.7,-48.4,54.7C-56.3,54.7,-63.5,58.5,-66.2,64.1C-66.3,64.2,-66.4,64.3,-66.5,64.4C-66.6,64.5,-66.7,64.6,-66.8,64.6C-67,64.7,-67.1,64.7,-67.3,64.7C-67.4,64.7,-67.5,64.6,-67.7,64.6C-67.8,64.5,-67.9,64.4,-68,64.3C-68.1,64.2,-68.2,64.1,-68.2,64C-68.3,63.8,-68.3,63.7,-68.3,63.5C-68.3,63.4,-68.2,63.3,-68.2,63.1C-65.1,56.8,-57.2,52.6,-48.4,52.6C-39.4,52.6,-31.7,56.7,-28.5,63.1C-28.5,63.3,-28.4,63.4,-28.4,63.5C-28.4,63.7,-28.4,63.8,-28.5,64C-28.5,64.1,-28.6,64.2,-28.7,64.3C-28.8,64.4,-28.9,64.5,-29,64.6C-29.1,64.6,-29.1,64.6,-29.2,64.6C-29.2,64.6,-29.2,64.6,-29.3,64.7C-29.3,64.7,-29.4,64.7,-29.4,64.7C-29.4,64.7,-29.5,64.7,-29.5,64.7Z'); } }
@keyframes a2_t { 0% { transform: translate(83.1px,-24.2px); } 2.273% { transform: translate(83.1px,-24.2px); } 4.545% { transform: translate(82.1px,-14.2px); } 11.364% { transform: translate(83.1px,-24.2px); } 100% { transform: translate(83.1px,-24.2px); } }
@keyframes a2_o { 0% { opacity: 1; } 93.182% { opacity: 1; } 95.455% { opacity: 0; } 97.727% { opacity: 1; } 100% { opacity: 1; } }
@keyframes a3_t { 0% { transform: translate(93px,-26.9px); } 2.273% { transform: translate(93px,-26.9px); } 4.545% { transform: translate(106px,-17.9px); } 11.364% { transform: translate(93px,-26.9px); } 100% { transform: translate(93px,-26.9px); } }
@keyframes a3_o { 0% { opacity: 1; } 90.909% { opacity: 1; } 93.182% { opacity: 0; } 95.455% { opacity: 1; } 100% { opacity: 1; } }
@keyframes a4_t { 0% { transform: translate(69.7px,-26.9px); } 2.273% { transform: translate(69.7px,-26.9px); } 4.545% { transform: translate(60.7px,-19.9px); } 11.364% { transform: translate(69.7px,-26.9px); } 100% { transform: translate(69.7px,-26.9px); } }
@keyframes a4_o { 0% { opacity: 1; } 88.636% { opacity: 1; } 90.909% { opacity: 0; } 93.182% { opacity: 1; } 100% { opacity: 1; } }
@keyframes a5_t { 0% { transform: translate(82.4px,-50.5px); } 2.273% { transform: translate(82.4px,-50.5px); } 4.545% { transform: translate(82.4px,-61.5px); } 11.364% { transform: translate(82.4px,-50.5px); } 100% { transform: translate(82.4px,-50.5px); } }
@keyframes a5_o { 0% { opacity: 1; } 86.364% { opacity: 1; } 88.636% { opacity: 0; } 90.909% { opacity: 1; } 100% { opacity: 1; } }
@keyframes a6_t { 0% { transform: translate(69.7px,-46.4px); } 2.273% { transform: translate(69.7px,-46.4px); } 4.545% { transform: translate(62.7px,-54.4px); } 11.364% { transform: translate(69.7px,-46.4px); } 100% { transform: translate(69.7px,-46.4px); } }
@keyframes a6_o { 0% { opacity: 1; } 84.091% { opacity: 1; } 86.364% { opacity: 0; } 88.636% { opacity: 1; } 100% { opacity: 1; } }
@keyframes a7_t { 0% { transform: translate(93px,-46.4px); } 2.273% { transform: translate(93px,-46.4px); } 4.545% { transform: translate(104px,-54.4px); } 11.364% { transform: translate(93px,-46.4px); } 100% { transform: translate(93px,-46.4px); } }
@keyframes a7_o { 0% { opacity: 1; } 81.818% { opacity: 1; } 84.091% { opacity: 0; } 86.364% { opacity: 1; } 100% { opacity: 1; } }
</style><defs/><g transform="translate(-1434.2,-251)" style="animation: 4.4s linear infinite both a0_t;"><g transform="translate(1446.6,263.1)"><path d="M-29.5 64.7c-0.1 0-0.2 0-0.3-0.1c-0.1 0-0.2 0-0.3-0.1c-0.1 0-0.2-0.1-0.2-0.2c-0.1-0.1-0.1-0.1-0.2-0.2c-2.7-5.6-9.9-9.4-17.9-9.4c-7.9 0-15.1 3.8-17.8 9.4c-0.1 .1-0.2 .2-0.3 .3c-0.1 .1-0.2 .2-0.3 .2c-0.2 .1-0.3 .1-0.5 .1c-0.1 0-0.2-0.1-0.4-0.1c-0.1-0.1-0.2-0.2-0.3-0.3c-0.1-0.1-0.2-0.2-0.2-0.3c-0.1-0.2-0.1-0.3-0.1-0.5c0-0.1 .1-0.2 .1-0.4c3.1-6.3 11-10.5 19.8-10.5c9 0 16.8 4.1 19.9 10.5c0 .2 .1 .3 .1 .4c0 .2 0 .3-0.1 .5c0 .1-0.1 .2-0.2 .3c-0.1 .1-0.2 .2-0.3 .3c-0.1 0-0.1 0-0.2 0c0 0 0 0-0.1 .1c0 0-0.1 0-0.1 0c0 0-0.1 0-0.1 0Z" fill="#fff" transform="translate(68.3,-43.5)" style="animation: 4.4s linear infinite both a1_d;"/><path d="M19.9 31.2c-8.9 0-16.7-4.2-19.8-10.6c-0.1-0.1-0.1-0.3-0.1-0.4c0-0.1 0-0.3 .1-0.4c0-0.1 .1-0.3 .2-0.4c.1-0.1 .2-0.2 .3-0.2c.1-0.1 .3-0.1 .4-0.1c.2 0 .3 0 .4 0c.2 .1 .3 .1 .4 .2c.1 .1 .2 .2 .3 .4c2.7 5.6 9.8 9.3 17.8 9.3c8 0 15.2-3.7 17.9-9.3c.1-0.2 .1-0.3 .2-0.4c.2-0.1 .3-0.1 .4-0.2c.1 0 .3 0 .4 0c.2 0 .3 0 .4 .1c.2 0 .3 .1 .4 .2c.1 .1 .1 .3 .2 .4c0 .1 0 .3 0 .4c0 .1 0 .3-0.1 .4c-3.1 6.4-10.8 10.6-19.8 10.6Z" fill="#fff"/><path d="M19.9 25.6c-0.4 0-0.7 0-1.1-0.1c-0.3-0.1-0.7-0.2-1-0.3c-0.3-0.2-0.7-0.3-1-0.5c-0.3-0.2-0.5-0.5-0.8-0.7c-0.3-0.3-0.6-0.7-0.8-1.1c-0.2-0.4-0.4-0.8-0.6-1.2c-0.1-0.4-0.2-0.9-0.2-1.3c0-0.5 0-0.9 .1-1.3c0-0.2 .1-0.3 .2-0.4c0-0.1 .1-0.2 .3-0.3c.1-0.1 .2-0.2 .3-0.2c.2 0 .3 0 .5 0c.1 0 .2 .1 .4 .2c.1 0 .2 .1 .3 .3c0 .1 .1 .2 .1 .3c.1 .2 .1 .3 0 .5c0 .2 0 .5 0 .8c0 .2 0 .5 .1 .8c.1 .2 .2 .5 .3 .7c.2 .2 .3 .5 .5 .6c.3 .4 .7 .6 1.1 .8c.4 .1 .9 .2 1.3 .2c.4 0 .9-0.1 1.3-0.2c.4-0.2 .8-0.4 1.1-0.8c.1-0.1 .3-0.3 .4-0.5c.1-0.1 .2-0.3 .3-0.5c.1-0.2 .2-0.5 .2-0.7c0-0.2 .1-0.4 .1-0.6c0-0.2-0.1-0.5-0.1-0.7c0-0.2-0.1-0.4-0.2-0.6c-0.1-0.2-0.2-0.4-0.3-0.6c-0.1-0.2-0.3-0.3-0.4-0.5c-0.2-0.2-0.4-0.4-0.7-0.5c-0.2-0.1-0.4-0.2-0.7-0.3c-0.3-0.1-0.5-0.1-0.8-0.2c-0.3 0-0.5 0-0.8 .1c-0.1 0-0.3 0-0.4 0c-0.2 0-0.3-0.1-0.4-0.2c-0.1-0.1-0.2-0.2-0.3-0.3c-0.1-0.1-0.1-0.2-0.2-0.4c0-0.1 0-0.2 0-0.4c.1-0.1 .1-0.3 .2-0.4c.1-0.1 .2-0.2 .3-0.3c.1-0.1 .3-0.1 .4-0.1c.4-0.1 .9-0.1 1.3-0.1c.5 0 .9 .1 1.3 .2c.5 .1 .9 .3 1.3 .6c.3 .2 .7 .5 1 .8c.3 .2 .5 .5 .7 .8c.2 .3 .4 .6 .5 1c.2 .3 .3 .6 .3 1c.1 .4 .1 .7 .1 1.1c0 .3 0 .7-0.1 1.1c0 .3-0.1 .7-0.3 1c-0.1 .3-0.3 .6-0.5 .9c-0.2 .3-0.4 .6-0.7 .9c-0.2 .2-0.5 .5-0.8 .7c-0.3 .2-0.6 .3-1 .5c-0.3 .1-0.7 .2-1 .3c-0.4 .1-0.7 .1-1.1 .1Z" fill="#fff"/><path d="M-62.8 65.6c-0.1 0-0.2-0.1-0.4-0.1c-0.1-0.1-0.2-0.2-0.3-0.3c-0.1-0.1-0.2-0.2-0.2-0.3c-0.1-0.1-0.1-0.3-0.1-0.4v-5.1c0-0.1 0-0.3 .1-0.4c0-0.1 .1-0.2 .2-0.3c.1-0.1 .2-0.2 .3-0.3c.2 0 .3-0.1 .4-0.1c.2 0 .3 .1 .5 .1c.1 .1 .2 .2 .3 .3c.1 .1 .2 .2 .2 .3c.1 .1 .1 .3 .1 .4v5.1c0 .1 0 .3 0 .4c-0.1 .1-0.2 .2-0.3 .3c-0.1 .1-0.2 .2-0.3 .3c-0.2 0-0.3 .1-0.5 .1Z" fill="#fff" transform="translate(83.1,-24.2)" style="animation: 4.4s linear infinite both a2_t, 4.4s linear infinite both a2_o;"/><path d="M-56 63c-0.1 0-0.2 0-0.2 0c-0.1 0-0.2 0-0.2 0c-0.1 0-0.2-0.1-0.2-0.1c-0.1 0-0.1-0.1-0.2-0.1l-3.7-3.4c-0.1-0.1-0.2-0.2-0.3-0.3c0-0.2-0.1-0.3-0.1-0.4c0-0.2 0-0.3 .1-0.5c0-0.1 .1-0.2 .2-0.3c.1-0.1 .2-0.2 .3-0.3c.2 0 .3-0.1 .5-0.1c.1 0 .2 0 .4 .1c.1 0 .2 .1 .3 .2l3.8 3.4c.1 .1 .2 .2 .2 .3c.1 .1 .1 .3 .1 .4c0 .2 0 .3 0 .4c-0.1 .2-0.1 .3-0.2 .4c-0.1 .1-0.1 .1-0.2 .1c-0.1 .1-0.1 .1-0.2 .2c-0.1 0-0.1 0-0.2 0c-0.1 0-0.2 0-0.2 0Z" fill="#fff" transform="translate(93,-26.9)" style="animation: 4.4s linear infinite both a3_t, 4.4s linear infinite both a3_o;"/><path d="M-66.8 63.1c-0.1 0-0.1-0.1-0.2-0.1c-0.1 0-0.2 0-0.2 0c-0.1-0.1-0.2-0.1-0.2-0.2c-0.1 0-0.1-0.1-0.2-0.1c-0.1-0.1-0.2-0.2-0.2-0.4c-0.1-0.1-0.1-0.2-0.1-0.4c0-0.1 .1-0.3 .1-0.4c.1-0.1 .2-0.2 .3-0.3l3.7-3.4c.1-0.1 .3-0.2 .4-0.2c.1-0.1 .3-0.1 .4-0.1c.2 0 .3 .1 .4 .1c.2 .1 .3 .2 .4 .3c.1 .1 .1 .2 .2 .3c0 .2 .1 .3 0 .5c0 .1 0 .2-0.1 .4c0 .1-0.1 .2-0.2 .3l-3.8 3.4c0 0-0.1 .1-0.1 .1c-0.1 0-0.1 .1-0.2 .1c-0.1 0-0.1 0-0.2 0c-0.1 0-0.1 .1-0.2 .1Z" fill="#fff" transform="translate(69.7,-26.9)" style="animation: 4.4s linear infinite both a4_t, 4.4s linear infinite both a4_o;"/><path d="M-63 57.7c-0.1 0-0.2-0.1-0.4-0.1c-0.1-0.1-0.2-0.2-0.3-0.3c-0.1-0.1-0.2-0.2-0.3-0.3c0-0.1 0-0.3 0-0.4v-5.1c0-0.1 0-0.2 0-0.4c.1-0.1 .2-0.2 .3-0.3c.1-0.1 .2-0.2 .3-0.3c.2 0 .3 0 .4 0c.2 0 .3 0 .5 0c.1 .1 .2 .2 .3 .3c.1 .1 .2 .2 .2 .3c.1 .2 .1 .3 .1 .4v5.1c0 .1 0 .3-0.1 .4c0 .1-0.1 .2-0.2 .3c-0.1 .1-0.2 .2-0.3 .3c-0.2 0-0.3 .1-0.5 .1Z" fill="#fff" transform="translate(82.4,-50.5)" style="animation: 4.4s linear infinite both a5_t, 4.4s linear infinite both a5_o;"/><path d="M-63 57.2c-0.1 0-0.2 0-0.2 0c-0.1 0-0.2-0.1-0.2-0.1c-0.1 0-0.1 0-0.2-0.1c-0.1 0-0.1 0-0.2-0.1l-3.7-3.4c-0.1 0-0.2-0.2-0.3-0.3c0-0.1-0.1-0.3-0.1-0.4c0-0.1 0-0.3 .1-0.4c0-0.2 .1-0.3 .2-0.4c.1-0.1 .2-0.2 .4-0.2c.1-0.1 .2-0.1 .4-0.1c.1 0 .2 0 .4 0c.1 .1 .2 .1 .3 .2l3.8 3.4c.1 .1 .2 .2 .2 .3c.1 .2 .1 .3 .1 .5c.1 .1 0 .2 0 .4c-0.1 .1-0.1 .2-0.2 .3c-0.1 .1-0.1 .1-0.2 .2c-0.1 0-0.1 .1-0.2 .1c-0.1 0-0.1 .1-0.2 .1c-0.1 0-0.2 0-0.2 0Z" fill="#fff" transform="translate(69.7,-46.4)" style="animation: 4.4s linear infinite both a6_t, 4.4s linear infinite both a6_o;"/><path d="M-59.8 57.2c-0.1 0-0.1 0-0.2 0c-0.1 0-0.2-0.1-0.2-0.1c-0.1 0-0.2-0.1-0.2-0.1c-0.1-0.1-0.1-0.1-0.2-0.2c-0.1-0.1-0.2-0.2-0.2-0.3c-0.1-0.2-0.1-0.3-0.1-0.4c0-0.2 .1-0.3 .1-0.4c.1-0.2 .2-0.3 .3-0.4l3.7-3.4c.2 0 .3-0.1 .4-0.2c.1 0 .3 0 .4 0c.2 0 .3 0 .4 .1c.2 0 .3 .1 .4 .2c.1 .1 .1 .3 .2 .4c0 .1 .1 .3 0 .4c0 .2 0 .3-0.1 .4c0 .2-0.1 .3-0.2 .4l-3.8 3.3c0 .1-0.1 .1-0.1 .1c-0.1 .1-0.1 .1-0.2 .1c-0.1 .1-0.1 .1-0.2 .1c-0.1 0-0.1 0-0.2 0Z" fill="#fff" transform="translate(93,-46.4)" style="animation: 4.4s linear infinite both a7_t, 4.4s linear infinite both a7_o;"/></g></g></svg>