<svg width="23" height="23" viewBox="0 0 23 23" fill="none" xmlns="http://www.w3.org/2000/svg">
<path d="M11.5 0C5.15415 0 0 5.15399 0 11.5C0 17.846 5.15399 23 11.5 23C17.8459 23 23 17.846 23 11.5C23 5.15399 17.846 0 11.5 0ZM11.5 0.884537C17.3679 0.884537 22.1154 5.63184 22.1154 11.4999C22.1154 17.368 17.3681 22.1153 11.5 22.1153C5.63192 22.1153 0.884616 17.368 0.884616 11.4999C0.884616 5.63184 5.63192 0.884537 11.5 0.884537ZM12.2602 5.30761C9.51586 5.30761 7.20282 7.17881 6.45493 9.73069H4.86539C4.62134 9.73069 4.42295 9.92877 4.42295 10.1731C4.42295 10.4175 4.62103 10.6156 4.86539 10.6156H6.2615C6.21985 10.9071 6.19239 11.1971 6.19239 11.5001C6.19239 11.8006 6.22077 12.0956 6.2615 12.3846H4.86539C4.62134 12.3846 4.42295 12.5827 4.42295 12.8271C4.42295 13.0714 4.62103 13.2695 4.86539 13.2695H6.45493C7.20281 15.8214 9.51586 17.6926 12.2602 17.6926C14.1947 17.6926 15.5105 16.9867 16.6833 15.7853V15.7847C16.7666 15.7007 16.8129 15.5866 16.812 15.4684C16.811 15.3499 16.7629 15.2367 16.678 15.154C16.5935 15.071 16.4794 15.0254 16.3609 15.0272C16.2427 15.0288 16.1298 15.0778 16.0474 15.163C14.975 16.2616 13.996 16.8077 12.2602 16.8077C10.004 16.8077 8.0914 15.3367 7.38118 13.2692H11.9425C12.1868 13.2692 12.3849 13.0711 12.3849 12.8268C12.3849 12.5824 12.1868 12.3843 11.9425 12.3843H7.15995C7.11336 12.098 7.07695 11.8 7.07695 11.4998C7.07695 11.195 7.11182 10.9056 7.15995 10.6152H11.9425C12.1868 10.6152 12.3849 10.4172 12.3849 10.1728C12.3849 9.92846 12.1868 9.73038 11.9425 9.73038H7.38118C8.09482 7.6697 10.0087 6.19184 12.2602 6.19184C13.9961 6.19184 14.975 6.72436 16.0474 7.82269V7.82331C16.1298 7.90846 16.2427 7.95721 16.3609 7.95875C16.4794 7.9606 16.5935 7.91494 16.678 7.83194C16.7629 7.74926 16.811 7.63602 16.812 7.51786C16.8129 7.39938 16.7666 7.28553 16.6833 7.20131C15.5105 5.99989 14.1947 5.30752 12.2602 5.30752V5.30761Z" fill="#373737"/>
</svg>
