<svg width="34" height="22" viewBox="0 0 34 22" fill="none" xmlns="http://www.w3.org/2000/svg">
<path fill-rule="evenodd" clip-rule="evenodd" d="M33.8 9.76004C33.8 9.20804 33.58 8.76004 33.056 8.76004H18.024V1.00404C18.024 0.654036 16.5 0.330037 17.57 1.48004C17.286 0.300037 16.936 0.440037 16.64 1.14004L0.518051 8.87204C0.206051 9.04004 0.00805121 9.37804 0.00405121 9.74804V9.76004C0.00405121 11.24 0.19405 10.464 0.50005 10.638L16.622 19.884C16.916 20.52 17.272 20.42 17.56 19.864C16.48 19.684 18.024 19.356 18.024 19.006V13.516C18.024 12.962 17.6 12.516 17.074 12.516C16.55 12.516 16.126 12.962 16.126 13.516V17.324L2.97805 9.78404L16.126 2.64204V9.76004C16.126 10.314 16.55 10.76 17.074 10.76H33.056C33.58 10.76 33.8 10.314 33.8 9.76004Z" fill="#373737"/>
</svg>
