<svg width="18" height="23" viewBox="0 0 18 23" fill="none" xmlns="http://www.w3.org/2000/svg">
<path d="M13.1474 13.687C12.2475 13.687 11.4899 14.4448 11.4899 15.3446C11.4899 16.2444 12.2477 17.0021 13.1474 17.0021C14.0473 17.0021 14.8049 16.2443 14.8049 15.3446C14.8051 14.4447 14.0947 13.687 13.1474 13.687ZM13.1474 16.0075C12.7686 16.0075 12.437 15.676 12.437 15.2971C12.437 14.9183 12.7686 14.5867 13.1474 14.5867C13.5262 14.5867 13.8578 14.9183 13.8578 15.2971C13.8578 15.7234 13.5736 16.0075 13.1474 16.0075Z" fill="#373737"/>
<path d="M13.8107 17.9492H12.4846C12.2004 17.9492 12.0109 18.1387 12.0109 18.4229C12.0109 18.707 12.2004 18.8965 12.4846 18.8965H13.8107C14.0949 18.8965 14.2844 18.707 14.2844 18.4229C14.2842 18.1386 14.0949 17.9492 13.8107 17.9492Z" fill="#373737"/>
<path d="M4.71766 13.687C3.81777 13.687 3.06012 14.4448 3.06012 15.3446C3.06012 16.2444 3.81793 17.0021 4.71766 17.0021C5.61755 17.0021 6.3752 16.2443 6.3752 15.3446C6.3752 14.4447 5.61739 13.687 4.71766 13.687ZM4.71766 16.0075C4.33884 16.0075 4.00726 15.676 4.00726 15.2971C4.00726 14.9183 4.33884 14.5867 4.71766 14.5867C5.09648 14.5867 5.42806 14.9183 5.42806 15.2971C5.38064 15.7234 5.09648 16.0075 4.71766 16.0075Z" fill="#373737"/>
<path d="M5.38053 17.9492H4.0544C3.77024 17.9492 3.58075 18.1387 3.58075 18.4229C3.58075 18.707 3.77024 18.8965 4.0544 18.8965H5.38053C5.66469 18.8965 5.85418 18.707 5.85418 18.4229C5.85418 18.1386 5.61728 17.9492 5.38053 17.9492Z" fill="#373737"/>
<path d="M15.0894 1.56287H12.4373L11.7742 0.284159C11.6795 0.0946655 11.5375 0 11.348 0H6.04352C5.85403 0 5.71195 0.0946655 5.61728 0.284159L4.9543 1.61029H2.77569C1.30748 1.61029 0.123596 2.79434 0.123596 4.26238V20.1278C0.123596 20.4119 0.31309 20.6014 0.597249 20.6014H2.4917L0.881408 21.8802C0.691914 22.0222 0.644662 22.3538 0.786742 22.5431C0.928821 22.7326 1.26039 22.7799 1.44973 22.6378L4.05457 20.6013H13.8106L16.4154 22.6378C16.6049 22.7799 16.9363 22.7799 17.0784 22.5431C17.2205 22.3536 17.2205 22.0222 16.9837 21.8802L15.3262 20.6014H17.2206C17.5048 20.6014 17.6943 20.4119 17.6943 20.1278L17.694 4.21489C17.7414 2.79409 16.5573 1.56279 15.0893 1.56279L15.0894 1.56287ZM6.37509 0.947142H11.0637L11.3953 1.56287H6.04336L6.37509 0.947142ZM2.77569 2.51002H15.042C15.9892 2.51002 16.747 3.26783 16.747 4.21497V10.4665H1.07074V4.21497C1.07074 3.31524 1.82855 2.51002 2.77569 2.51002ZM1.07074 19.6545V11.4139H16.747V19.607H1.07074V19.6545Z" fill="#373737"/>
</svg>
