<svg width="24" height="20" viewBox="0 0 24 20" fill="none" xmlns="http://www.w3.org/2000/svg">
<path d="M23.98 18.4762L21.3179 7.77453C21.1666 7.16554 20.5935 6.76333 19.96 6.82039L15.8853 7.18013C16.3686 6.26395 16.6936 5.38854 16.6936 4.6819C16.6936 2.10042 14.555 0 11.9264 0C9.29777 0 7.15928 2.10033 7.15928 4.6819C7.15928 5.45949 7.54694 6.43965 8.14617 7.5005L4.23763 6.88475C3.58667 6.78276 2.96902 7.17633 2.79862 7.80058L0.0237281 17.9734C-0.0266065 18.1583 0.00377088 18.3488 0.108853 18.5095C0.214288 18.6703 0.378182 18.7766 0.570876 18.8084L7.51952 19.9464C7.7371 19.9821 7.94462 20 8.14932 20C8.46651 20 8.777 19.9568 9.10692 19.8692L15.7101 18.1146C16.1997 17.984 16.6391 17.9708 17.1354 18.0714L23.1789 19.2921C23.4129 19.3395 23.6423 19.2699 23.8079 19.1012C23.9734 18.932 24.0363 18.7043 23.9796 18.4762L23.98 18.4762ZM11.9269 0.637118C14.1979 0.637118 16.0451 2.45158 16.0451 4.68165C16.0451 6.55303 13.2163 10.1069 11.9269 11.6894C11.179 10.7694 9.97834 9.26093 9.06619 7.78798C9.05665 7.76786 9.04482 7.74896 9.0314 7.73127C8.33097 6.59205 7.80837 5.47881 7.80837 4.68182C7.80837 2.45174 9.65587 0.637283 11.9269 0.637283L11.9269 0.637118ZM23.3411 18.6583C23.3305 18.6692 23.3247 18.6713 23.3095 18.6681L17.266 17.4474C16.6732 17.3272 16.1251 17.3444 15.5407 17.4994L8.93751 19.2541C8.48909 19.3732 8.08467 19.3932 7.62617 19.3181L0.677982 18.1801C0.66403 18.1778 0.661558 18.1754 0.654846 18.165C0.647782 18.1541 0.647252 18.1513 0.650608 18.1386L1.738 14.1525C2.03153 14.3504 2.32666 14.5388 2.62018 14.7065C2.67157 14.7359 2.72774 14.7497 2.78284 14.7497C2.89464 14.7497 3.00325 14.693 3.06347 14.5912C3.15337 14.4391 3.10127 14.2443 2.94638 14.1558C2.60376 13.9604 2.25744 13.7394 1.91568 13.5011L3.42586 7.96573C3.50992 7.65768 3.81599 7.46375 4.13582 7.5137L8.57262 8.21288C9.44562 9.60413 10.5999 11.0832 11.6743 12.3979C11.7357 12.4734 11.8288 12.5171 11.9272 12.5171C12.0255 12.5171 12.1186 12.473 12.1801 12.3979L12.247 12.3159C13.0446 11.3399 14.4827 9.57932 15.5079 7.85287L20.0186 7.4548C20.3349 7.42532 20.6137 7.62496 20.6884 7.92539L23.3501 18.6271C23.3535 18.6418 23.3519 18.6474 23.3414 18.6581L23.3411 18.6583ZM11.9269 7.38378C13.444 7.38378 14.678 6.17152 14.678 4.68192C14.678 3.19231 13.4436 1.98006 11.9269 1.98006C10.4098 1.98006 9.17565 3.19231 9.17565 4.68192C9.17547 6.1717 10.4098 7.38378 11.9269 7.38378V7.38378ZM11.9269 2.61707C13.0864 2.61707 14.0294 3.54328 14.0294 4.68201C14.0294 5.82073 13.0864 6.74694 11.9269 6.74694C10.7674 6.74694 9.82435 5.82073 9.82435 4.68201C9.82435 3.54328 10.7674 2.61707 11.9269 2.61707ZM6.09544 15.6872C6.06118 15.8348 5.92749 15.9349 5.77948 15.9349C5.75546 15.9349 5.73127 15.9323 5.7069 15.9269C5.27756 15.8308 4.8461 15.7039 4.42455 15.5498C4.25659 15.4884 4.17111 15.3051 4.23363 15.1403C4.29615 14.9756 4.48371 14.8921 4.65061 14.9525C5.04604 15.0968 5.44996 15.2156 5.85139 15.3058C6.02624 15.345 6.13538 15.5158 6.09547 15.6872L6.09544 15.6872ZM12.4839 15.0612C12.5346 15.2302 12.4362 15.4071 12.2646 15.4567C11.8027 15.5904 11.3872 15.6997 10.9942 15.7908C10.9691 15.7965 10.944 15.7993 10.9195 15.7993C10.7725 15.7993 10.6394 15.7006 10.6041 15.554C10.5629 15.3828 10.6708 15.2113 10.8453 15.1707C11.2266 15.0824 11.631 14.9759 12.0814 14.8456C12.2529 14.795 12.4332 14.8923 12.4839 15.0612L12.4839 15.0612ZM18.763 13.5498C18.7737 13.7253 18.6374 13.8762 18.4587 13.8868C18.0631 13.91 17.6558 13.9612 17.2132 14.0427C17.1932 14.0464 17.1729 14.0481 17.1532 14.0481C17.0002 14.0481 16.864 13.9414 16.8349 13.7883C16.8019 13.6152 16.9177 13.449 17.0938 13.4166C17.5633 13.33 17.9972 13.2759 18.4198 13.2511C18.595 13.2372 18.7522 13.3739 18.7629 13.5498L18.763 13.5498ZM9.32584 15.7717C9.34297 15.9467 9.21246 16.1024 9.03408 16.1193C8.66426 16.1543 8.29781 16.1718 7.94456 16.1718C7.86315 16.1718 7.78102 16.1711 7.69908 16.1692C7.52 16.1649 7.37835 16.019 7.38259 15.8431C7.38683 15.6676 7.53076 15.537 7.71462 15.5323C8.12506 15.5422 8.54205 15.5259 8.97192 15.4851C9.14889 15.4678 9.30836 15.5965 9.32585 15.7717L9.32584 15.7717ZM21.9133 14.1856C21.8616 14.3084 21.7408 14.3827 21.6135 14.3827C21.5723 14.3827 21.5305 14.3749 21.49 14.3586C21.1073 14.2033 20.7101 14.0845 20.3102 14.0045C20.1349 13.9695 20.0215 13.8013 20.057 13.629C20.0927 13.4568 20.2634 13.3454 20.4393 13.3803C20.8795 13.4681 21.316 13.5992 21.7369 13.7699C21.9027 13.8368 21.9817 14.0229 21.9133 14.1856L21.9133 14.1856ZM15.5778 14.1032C15.6292 14.2717 15.5317 14.4491 15.36 14.4996C14.9418 14.622 14.5229 14.7544 14.1294 14.8793C14.0962 14.8898 14.0626 14.8949 14.0294 14.8949C13.8926 14.8949 13.7654 14.8092 13.7209 14.6744C13.6658 14.507 13.7592 14.3275 13.9298 14.2734C14.3267 14.1473 14.7498 14.0139 15.1744 13.889C15.3453 13.8384 15.5265 13.9345 15.5777 14.1032L15.5778 14.1032Z" fill="#373737"/>
</svg>
