<svg width="34" height="22" viewBox="0 0 34 22" fill="none" xmlns="http://www.w3.org/2000/svg">
<path fill-rule="evenodd" clip-rule="evenodd" d="M0.199997 9.76004C0.199997 9.20804 0.419997 8.76004 0.943997 8.76004H15.976V1.00404C15.976 0.654036 17.5 0.330037 16.43 1.48004C16.714 0.300037 17.064 0.440037 17.36 1.14004L33.482 8.87204C33.794 9.04004 33.992 9.37804 33.996 9.74804V9.76004C33.996 11.24 33.806 10.464 33.5 10.638L17.378 19.884C17.084 20.52 16.728 20.42 16.44 19.864C17.52 19.684 15.976 19.356 15.976 19.006V13.516C15.976 12.962 16.4 12.516 16.926 12.516C17.45 12.516 17.874 12.962 17.874 13.516V17.324L31.022 9.78404L17.874 2.64204V9.76004C17.874 10.314 17.45 10.76 16.926 10.76H0.943997C0.419997 10.76 0.199997 10.314 0.199997 9.76004Z" fill="#373737"/>
</svg>
