<?xml version="1.0" encoding="utf-8"?>
<!-- Generator: Adobe Illustrator 24.0.2, SVG Export Plug-In . SVG Version: 6.00 Build 0)  -->
<svg version="1.1" id="bloc-marque" xmlns="http://www.w3.org/2000/svg" xmlns:xlink="http://www.w3.org/1999/xlink" x="0px"
	 y="0px" viewBox="0 0 322 128.92" style="enable-background:new 0 0 322 128.92;" xml:space="preserve">
<style type="text/css">
	.st0{fill-rule:evenodd;clip-rule:evenodd;fill:#FFFFFF;}
	.st1{clip-path:url(#SVGID_2_);fill:#ED3024;}
	.st2{clip-path:url(#SVGID_2_);fill:#FFFFFF;}
	.st3{clip-path:url(#SVGID_2_);fill:none;stroke:#FFFFFF;stroke-width:0.751;stroke-linejoin:round;stroke-miterlimit:7.903;}
	.st4{fill:none;stroke:#FFFFFF;stroke-width:0.118;stroke-miterlimit:2.613;}
	.st5{fill:none;stroke:#FFFFFF;stroke-width:0.544;stroke-miterlimit:2.613;}
</style>
<path id="Forme_1249" class="st0" d="M6.42,122.29H6.16c-0.11,0-0.2-0.09-0.2-0.2v-5.08l-1.9,3.68c-0.03,0.07-0.1,0.11-0.18,0.11
	H3.71c-0.07,0-0.14-0.04-0.17-0.1l-1.98-3.7v5.11c0,0.11-0.09,0.2-0.2,0.2H1.1c-0.11,0-0.2-0.09-0.2-0.2v-6.27
	c0-0.11,0.09-0.2,0.2-0.2h0.42c0.07,0,0.14,0.04,0.18,0.11l2.11,4.07l2.03-4.06c0.03-0.07,0.1-0.11,0.18-0.11h0.41
	c0.11,0,0.2,0.09,0.2,0.2v6.27C6.62,122.2,6.53,122.29,6.42,122.29C6.42,122.29,6.42,122.29,6.42,122.29z M13.19,122.29H12.9
	c-0.08,0-0.16-0.05-0.19-0.13l-0.76-2.01H9.3l-0.77,2.01c-0.03,0.08-0.1,0.13-0.18,0.13H8.05c-0.11,0-0.2-0.09-0.2-0.2
	c0-0.02,0-0.05,0.01-0.07l2.42-6.27c0.03-0.08,0.1-0.13,0.19-0.13h0.33c0.08,0,0.16,0.05,0.19,0.13l2.39,6.27
	c0.04,0.1-0.02,0.22-0.12,0.26C13.24,122.29,13.21,122.29,13.19,122.29z M9.56,119.5h2.14l-1.06-2.78L9.56,119.5z M15.12,122.29
	h-0.29c-0.11,0-0.2-0.09-0.2-0.2v-6.27c0-0.11,0.09-0.2,0.2-0.2h0.29c0.11,0,0.2,0.09,0.2,0.2v6.27
	C15.32,122.2,15.23,122.29,15.12,122.29z M19.38,122.42c-0.61,0.03-1.2-0.19-1.65-0.61c-0.43-0.43-0.68-1.01-0.69-1.62
	c-0.01-0.11,0.08-0.2,0.19-0.21c0,0,0.01,0,0.01,0h0.29c0.11,0,0.19,0.08,0.2,0.19c0,0.44,0.18,0.86,0.48,1.17
	c0.32,0.3,0.74,0.46,1.18,0.43c0.39,0.01,0.78-0.1,1.11-0.33c0.31-0.21,0.49-0.56,0.48-0.94c0.02-0.37-0.17-0.73-0.49-0.92
	c-0.38-0.2-0.79-0.34-1.2-0.43c-0.01,0-0.03-0.01-0.04-0.01c-0.01-0.01-0.04-0.01-0.07-0.02c-0.52-0.11-1.02-0.31-1.46-0.61
	c-0.34-0.3-0.52-0.73-0.51-1.18c-0.03-0.54,0.21-1.06,0.64-1.39c0.42-0.31,0.93-0.47,1.45-0.45c0.57-0.03,1.12,0.16,1.55,0.53
	c0.42,0.39,0.66,0.93,0.66,1.5c0,0.11-0.08,0.2-0.19,0.21c0,0-0.01,0-0.01,0h-0.28c-0.11,0-0.2-0.09-0.2-0.19
	c0.01-0.4-0.15-0.78-0.45-1.04c-0.31-0.25-0.7-0.38-1.1-0.36c-0.36-0.02-0.71,0.09-1,0.3c-0.27,0.22-0.41,0.55-0.39,0.89
	c0,0.27,0.12,0.53,0.32,0.7c0.35,0.23,0.74,0.39,1.15,0.46c0.01,0,0.03,0.01,0.04,0.02c0.04,0,0.07,0.01,0.1,0.03
	c0.49,0.11,0.97,0.28,1.42,0.52c0.48,0.29,0.77,0.82,0.76,1.38c0.03,0.59-0.23,1.15-0.7,1.52
	C20.51,122.28,19.95,122.45,19.38,122.42z M26.04,122.42c-0.88,0.05-1.74-0.34-2.28-1.04c-0.93-1.48-0.93-3.36,0-4.84
	c0.54-0.71,1.39-1.11,2.28-1.06c0.89-0.05,1.75,0.34,2.29,1.05c0.49,0.71,0.73,1.57,0.69,2.43c0.04,0.86-0.2,1.72-0.7,2.43
	C27.78,122.09,26.93,122.48,26.04,122.42z M24.3,120.95c0.8,0.97,2.23,1.1,3.19,0.3c0.11-0.09,0.21-0.19,0.3-0.3
	c0.71-1.23,0.71-2.75-0.01-3.97c-0.78-0.96-2.19-1.11-3.15-0.33c-0.12,0.1-0.23,0.21-0.33,0.33
	C23.59,118.21,23.59,119.72,24.3,120.95z M35.49,122.29H35.2c-0.07,0-0.13-0.03-0.16-0.09l-3.59-5.23v5.12c0,0.11-0.09,0.2-0.2,0.2
	h-0.29c-0.11,0-0.2-0.09-0.2-0.2v-6.27c0-0.11,0.09-0.2,0.2-0.2h0.3c0.07,0,0.13,0.03,0.16,0.09l3.58,5.24v-5.13
	c0-0.11,0.09-0.2,0.2-0.2h0.29c0.11,0,0.2,0.09,0.2,0.2v6.27C35.69,122.2,35.6,122.29,35.49,122.29
	C35.49,122.29,35.49,122.29,35.49,122.29z M35.23,121.79l0.06,0.08v-0.1c-0.01,0.01-0.02,0.01-0.03,0.01
	C35.25,121.79,35.24,121.79,35.23,121.79L35.23,121.79z M31.16,116.03v0.12c0.01,0,0.02-0.01,0.03-0.01c0.01,0,0.03-0.01,0.04-0.01
	L31.16,116.03z M43.04,120.16h-2.32c-0.11,0-0.2-0.09-0.2-0.2v-0.24c0-0.11,0.09-0.2,0.2-0.2h2.32c0.11,0,0.2,0.09,0.2,0.2v0.24
	C43.24,120.08,43.15,120.16,43.04,120.16L43.04,120.16z M50.76,122.42c-0.88,0.05-1.72-0.35-2.24-1.06
	c-0.91-1.47-0.91-3.33-0.01-4.8c0.52-0.72,1.37-1.12,2.25-1.07c0.54-0.01,1.08,0.12,1.56,0.38c0.48,0.28,0.84,0.74,0.99,1.27
	c0.03,0.09-0.02,0.19-0.1,0.24l-0.27,0.13c-0.1,0.05-0.22,0.01-0.27-0.09c0-0.01-0.01-0.02-0.01-0.03c-0.25-0.84-0.87-1.24-1.9-1.24
	c-0.68-0.04-1.32,0.29-1.7,0.85c-0.37,0.59-0.56,1.28-0.52,1.97c-0.03,0.69,0.15,1.37,0.53,1.96c0.38,0.56,1.02,0.89,1.7,0.85
	c0.57,0.04,1.12-0.18,1.52-0.58c0.37-0.43,0.57-0.99,0.53-1.56v-0.07h-1.87c-0.11,0-0.2-0.09-0.2-0.2v-0.26c0-0.11,0.09-0.2,0.2-0.2
	h2.35c0.1,0,0.19,0.08,0.2,0.18c0.01,0.07,0.01,0.13,0.01,0.18v0.16c0,1.41-0.5,2.34-1.49,2.76
	C51.61,122.34,51.19,122.42,50.76,122.42z M59.82,122.29h-0.29c-0.08,0-0.16-0.05-0.19-0.13l-0.76-2.01h-2.65l-0.77,2.01
	c-0.03,0.08-0.1,0.13-0.18,0.13h-0.29c-0.11,0-0.2-0.09-0.2-0.2c0-0.02,0-0.05,0.01-0.07l2.42-6.27c0.03-0.08,0.1-0.13,0.19-0.13
	h0.33c0.08,0,0.16,0.05,0.19,0.13l2.39,6.27c0.04,0.1-0.02,0.22-0.12,0.26C59.87,122.29,59.85,122.29,59.82,122.29z M56.19,119.5
	h2.14l-1.06-2.78L56.19,119.5z M63.24,122.42c-0.61,0.03-1.2-0.19-1.65-0.61c-0.43-0.43-0.68-1.01-0.69-1.62
	c-0.01-0.11,0.08-0.2,0.19-0.21c0,0,0.01,0,0.01,0h0.29c0.11,0,0.19,0.08,0.2,0.19c0,0.44,0.18,0.86,0.48,1.17
	c0.32,0.3,0.74,0.46,1.18,0.43c0.39,0.01,0.78-0.1,1.11-0.33c0.31-0.21,0.49-0.56,0.48-0.94c0.02-0.37-0.17-0.73-0.49-0.92
	c-0.38-0.2-0.79-0.34-1.2-0.43c-0.01,0-0.03-0.01-0.04-0.01c-0.02-0.01-0.04-0.01-0.07-0.02c-0.52-0.11-1.02-0.31-1.46-0.61
	c-0.34-0.3-0.52-0.73-0.51-1.18c-0.03-0.54,0.21-1.06,0.64-1.39c0.42-0.31,0.93-0.47,1.45-0.45c0.57-0.03,1.12,0.16,1.55,0.53
	c0.42,0.39,0.66,0.93,0.66,1.5c0,0.11-0.08,0.2-0.19,0.21c0,0-0.01,0-0.01,0h-0.28c-0.11,0-0.2-0.09-0.2-0.19
	c0.01-0.4-0.15-0.78-0.45-1.04c-0.31-0.25-0.7-0.38-1.1-0.36c-0.36-0.02-0.71,0.09-1,0.3c-0.27,0.22-0.41,0.55-0.39,0.89
	c0,0.27,0.12,0.53,0.32,0.7c0.35,0.23,0.74,0.39,1.15,0.46c0.01,0,0.03,0.01,0.04,0.02c0.04,0,0.07,0.01,0.1,0.03
	c0.49,0.11,0.97,0.28,1.42,0.52c0.48,0.29,0.77,0.82,0.76,1.38c0.03,0.59-0.23,1.15-0.7,1.52
	C64.37,122.28,63.81,122.45,63.24,122.42L63.24,122.42z M69.07,122.29h-0.3c-0.11,0-0.2-0.09-0.2-0.2v-5.8h-1.76
	c-0.11,0-0.2-0.09-0.2-0.2v-0.27c0-0.11,0.09-0.2,0.2-0.2h4.21c0.11,0,0.2,0.09,0.2,0.2v0.27c0,0.11-0.09,0.2-0.2,0.2h-1.76v5.8
	C69.27,122.2,69.18,122.29,69.07,122.29L69.07,122.29z M76.8,122.29h-0.34c-0.11,0-0.2-0.09-0.2-0.2v-1.4c0-0.17,0-0.3,0-0.4
	c0-0.09-0.01-0.16-0.01-0.2c-0.02-0.26-0.16-0.49-0.38-0.62c-0.28-0.11-0.57-0.15-0.87-0.13h-1.7v2.77c0,0.11-0.09,0.2-0.2,0.2H72.8
	c-0.11,0-0.2-0.09-0.2-0.2v-6.27c0-0.11,0.09-0.2,0.2-0.2h2.09c0.56-0.04,1.13,0.07,1.63,0.32c0.82,0.65,0.96,1.85,0.3,2.67
	c-0.12,0.15-0.25,0.27-0.41,0.38c0.35,0.25,0.56,0.64,0.57,1.07c0,0.01,0.01,0.04,0.01,0.83l0.01,1.19c0,0.05-0.02,0.1-0.06,0.14
	C76.91,122.27,76.86,122.29,76.8,122.29L76.8,122.29z M73.3,118.67h1.74c1.35,0,1.51-0.67,1.51-1.18c0.08-0.55-0.3-1.07-0.85-1.15
	c-0.01,0-0.03,0-0.04-0.01c-0.07-0.01-0.17-0.02-0.3-0.03s-0.28-0.01-0.46-0.01H73.3L73.3,118.67L73.3,118.67z M81.71,122.42
	c-0.88,0.05-1.74-0.34-2.28-1.04c-0.93-1.48-0.93-3.36,0-4.84c0.54-0.71,1.39-1.11,2.28-1.06c0.89-0.05,1.75,0.34,2.29,1.05
	c0.49,0.71,0.73,1.57,0.7,2.43c0.04,0.86-0.2,1.72-0.7,2.43C83.46,122.09,82.6,122.48,81.71,122.42L81.71,122.42z M79.97,120.95
	c0.8,0.97,2.23,1.1,3.19,0.3c0.11-0.09,0.21-0.19,0.3-0.3c0.71-1.23,0.71-2.75-0.01-3.97c-0.78-0.96-2.19-1.11-3.15-0.33
	c-0.12,0.1-0.23,0.21-0.33,0.33C79.26,118.21,79.26,119.72,79.97,120.95L79.97,120.95z M91.15,122.29h-0.29
	c-0.07,0-0.13-0.03-0.16-0.09l-3.59-5.23v5.12c0,0.11-0.09,0.2-0.2,0.2h-0.29c-0.11,0-0.2-0.09-0.2-0.2v-6.27
	c0-0.11,0.09-0.2,0.2-0.2h0.3c0.07,0,0.13,0.03,0.16,0.09l3.58,5.24v-5.13c0-0.11,0.09-0.2,0.2-0.2h0.28c0.11,0,0.2,0.09,0.2,0.2
	v6.27C91.35,122.2,91.26,122.29,91.15,122.29L91.15,122.29z M90.9,121.79l0.06,0.08v-0.1c-0.01,0.01-0.02,0.01-0.03,0.01
	C90.91,121.79,90.91,121.79,90.9,121.79L90.9,121.79z M86.82,116.03v0.12c0.01,0,0.02-0.01,0.03-0.01c0.01,0,0.03-0.01,0.04-0.01
	L86.82,116.03z M96.06,122.42c-0.88,0.05-1.74-0.34-2.28-1.04c-0.93-1.48-0.93-3.36,0-4.84c0.54-0.71,1.39-1.11,2.28-1.06
	c0.89-0.05,1.75,0.34,2.29,1.05c0.49,0.71,0.73,1.57,0.7,2.43c0.04,0.86-0.2,1.72-0.7,2.43C97.81,122.09,96.95,122.48,96.06,122.42z
	 M94.32,120.95c0.8,0.97,2.23,1.1,3.19,0.3c0.11-0.09,0.21-0.19,0.3-0.3c0.71-1.23,0.71-2.75-0.01-3.97
	c-0.78-0.96-2.19-1.11-3.15-0.33c-0.12,0.1-0.23,0.21-0.33,0.33C93.61,118.21,93.61,119.72,94.32,120.95L94.32,120.95z
	 M106.31,122.29h-0.26c-0.11,0-0.2-0.09-0.2-0.2v-5.08l-1.9,3.68c-0.03,0.07-0.1,0.11-0.18,0.11h-0.17c-0.07,0-0.14-0.04-0.18-0.1
	l-1.98-3.7v5.11c0,0.11-0.09,0.2-0.2,0.2h-0.26c-0.11,0-0.2-0.09-0.2-0.2v-6.27c0-0.11,0.09-0.2,0.2-0.2h0.42
	c0.07,0,0.14,0.04,0.18,0.11l2.11,4.07l2.03-4.06c0.03-0.07,0.1-0.11,0.18-0.11h0.41c0.11,0,0.2,0.09,0.2,0.2v6.27
	C106.5,122.2,106.41,122.29,106.31,122.29L106.31,122.29z M109.02,122.29h-0.29c-0.11,0-0.2-0.09-0.2-0.2v-6.27
	c0-0.11,0.09-0.2,0.2-0.2h0.29c0.11,0,0.2,0.09,0.2,0.2v6.27C109.22,122.2,109.13,122.29,109.02,122.29L109.02,122.29z
	 M115.39,122.29h-3.92c-0.11,0-0.2-0.09-0.2-0.2v-6.27c0-0.11,0.09-0.2,0.2-0.2h3.84c0.11,0,0.2,0.09,0.2,0.2v0.28
	c0,0.11-0.09,0.2-0.2,0.2h-3.34v2.19h2.61c0.11,0,0.2,0.09,0.2,0.2v0.27c0,0.11-0.09,0.2-0.2,0.2h-2.61v2.45h3.43
	c0.11,0,0.2,0.09,0.2,0.2v0.28C115.58,122.21,115.49,122.29,115.39,122.29L115.39,122.29z M122.54,120.16h-2.32
	c-0.11,0-0.2-0.09-0.2-0.2v-0.24c0-0.11,0.09-0.2,0.2-0.2h2.32c0.11,0,0.2,0.09,0.2,0.2v0.24
	C122.74,120.08,122.65,120.16,122.54,120.16L122.54,120.16z M129.6,122.42c-0.61,0.03-1.2-0.19-1.65-0.61
	c-0.43-0.43-0.68-1.01-0.69-1.62c0-0.06,0.01-0.11,0.05-0.15c0.04-0.04,0.09-0.06,0.15-0.06h0.29c0.11,0,0.19,0.08,0.2,0.19
	c0,0.44,0.18,0.86,0.48,1.17c0.32,0.3,0.75,0.46,1.18,0.43c0.39,0.01,0.78-0.1,1.11-0.33c0.31-0.21,0.49-0.56,0.48-0.94
	c0.02-0.37-0.17-0.73-0.49-0.92c-0.38-0.2-0.79-0.34-1.2-0.43c-0.01,0-0.03-0.01-0.04-0.01c-0.01-0.01-0.04-0.01-0.07-0.02
	c-0.52-0.11-1.02-0.31-1.46-0.61c-0.34-0.3-0.52-0.73-0.51-1.18c-0.03-0.54,0.21-1.06,0.64-1.39c0.42-0.31,0.93-0.47,1.45-0.45
	c0.57-0.03,1.12,0.16,1.55,0.53c0.42,0.38,0.66,0.93,0.66,1.5c0,0.11-0.08,0.2-0.19,0.21c0,0-0.01,0-0.01,0h-0.28
	c-0.11,0-0.2-0.09-0.2-0.19c0.01-0.4-0.15-0.78-0.45-1.04c-0.31-0.25-0.7-0.38-1.1-0.36c-0.36-0.02-0.71,0.09-1,0.3
	c-0.27,0.22-0.41,0.55-0.39,0.89c0,0.27,0.12,0.53,0.32,0.7c0.35,0.23,0.74,0.39,1.15,0.46c0.01,0,0.03,0.01,0.04,0.02
	c0.04,0,0.07,0.01,0.1,0.03c0.49,0.11,0.97,0.28,1.42,0.52c0.48,0.29,0.77,0.82,0.76,1.38c0.03,0.59-0.23,1.15-0.7,1.52
	C130.73,122.28,130.17,122.44,129.6,122.42z M138.31,122.29h-0.29c-0.11,0-0.2-0.09-0.2-0.2v-3.02h-3.58v3.02
	c0,0.11-0.09,0.2-0.2,0.2h-0.3c-0.11,0-0.2-0.09-0.2-0.2v-6.27c0-0.11,0.09-0.2,0.2-0.2h0.3c0.11,0,0.2,0.09,0.2,0.2v2.59h3.58
	v-2.59c0-0.11,0.09-0.2,0.2-0.2h0.29c0.11,0,0.2,0.09,0.2,0.2v6.27C138.51,122.2,138.42,122.29,138.31,122.29z M143.22,122.42
	c-0.88,0.05-1.74-0.34-2.28-1.04c-0.93-1.48-0.93-3.36,0-4.84c0.54-0.71,1.39-1.11,2.28-1.06c0.89-0.05,1.75,0.34,2.29,1.05
	c0.49,0.71,0.73,1.57,0.7,2.43c0.04,0.86-0.2,1.72-0.7,2.43C144.96,122.09,144.11,122.48,143.22,122.42z M141.48,120.95
	c0.8,0.97,2.23,1.1,3.19,0.3c0.11-0.09,0.21-0.19,0.3-0.3c0.71-1.23,0.71-2.75-0.01-3.97c-0.78-0.96-2.19-1.11-3.15-0.33
	c-0.12,0.1-0.23,0.21-0.33,0.33C140.77,118.21,140.77,119.72,141.48,120.95L141.48,120.95z M148.43,122.29h-0.3
	c-0.11,0-0.2-0.09-0.2-0.2v-6.27c0-0.11,0.09-0.2,0.2-0.2h1.71c2.03,0,2.46,1.01,2.46,1.85c0.02,0.51-0.17,1.01-0.53,1.38
	c-0.26,0.25-0.59,0.42-0.95,0.47c-0.33,0.05-0.67,0.07-1.01,0.06h-1.19v2.7C148.62,122.2,148.54,122.29,148.43,122.29L148.43,122.29
	z M148.63,118.74h1c0.46,0.03,0.93-0.02,1.38-0.15c0.42-0.21,0.67-0.67,0.6-1.14c0.06-0.56-0.35-1.06-0.92-1.12
	c-0.03,0-0.05,0-0.08,0c-0.32-0.04-0.65-0.06-0.97-0.05h-1.01L148.63,118.74L148.63,118.74z M154.41,122.29h-0.3
	c-0.11,0-0.2-0.09-0.2-0.2v-6.27c0-0.11,0.09-0.2,0.2-0.2h1.71c2.04,0,2.46,1.01,2.46,1.85c0.02,0.51-0.17,1.01-0.53,1.38
	c-0.26,0.25-0.59,0.42-0.95,0.47c-0.33,0.05-0.67,0.07-1.01,0.06h-1.19v2.7C154.61,122.2,154.52,122.29,154.41,122.29L154.41,122.29
	z M154.61,118.74h1c0.46,0.03,0.93-0.02,1.38-0.15c0.42-0.21,0.67-0.67,0.6-1.14c0.06-0.56-0.35-1.06-0.92-1.12
	c-0.03,0-0.05,0-0.08,0c-0.32-0.04-0.65-0.06-0.97-0.05h-1.01L154.61,118.74L154.61,118.74z M160.44,122.29h-0.29
	c-0.11,0-0.2-0.09-0.2-0.2v-6.27c0-0.11,0.09-0.2,0.2-0.2h0.29c0.11,0,0.2,0.09,0.2,0.2v6.27
	C160.63,122.2,160.54,122.29,160.44,122.29L160.44,122.29z M167.4,122.29h-0.29c-0.07,0-0.13-0.03-0.16-0.09l-3.59-5.23v5.12
	c0,0.11-0.09,0.2-0.2,0.2h-0.29c-0.11,0-0.2-0.09-0.2-0.2v-6.27c0-0.11,0.09-0.2,0.2-0.2h0.3c0.07,0,0.13,0.03,0.16,0.09l3.58,5.24
	v-5.13c0-0.11,0.09-0.2,0.2-0.2h0.29c0.11,0,0.2,0.09,0.2,0.2v6.27C167.6,122.2,167.51,122.29,167.4,122.29L167.4,122.29z
	 M167.15,121.79l0.05,0.08v-0.1c-0.01,0.01-0.02,0.01-0.03,0.01C167.16,121.79,167.15,121.79,167.15,121.79L167.15,121.79z
	 M163.07,116.03v0.12c0.01,0,0.02-0.01,0.03-0.01c0.01,0,0.03-0.01,0.04-0.01L163.07,116.03z M172.26,122.42
	c-0.88,0.05-1.72-0.35-2.24-1.06c-0.91-1.47-0.91-3.33-0.01-4.8c0.52-0.72,1.37-1.12,2.25-1.07c0.54-0.01,1.08,0.12,1.56,0.38
	c0.48,0.28,0.84,0.74,0.99,1.27c0.03,0.09-0.02,0.19-0.1,0.24l-0.27,0.13c-0.05,0.03-0.11,0.03-0.17,0
	c-0.05-0.02-0.09-0.07-0.11-0.12c-0.25-0.84-0.88-1.24-1.9-1.24c-0.68-0.04-1.32,0.29-1.7,0.85c-0.37,0.59-0.56,1.28-0.52,1.97
	c-0.03,0.69,0.15,1.37,0.53,1.96c0.38,0.56,1.02,0.89,1.7,0.85c0.57,0.04,1.12-0.18,1.52-0.58c0.37-0.43,0.57-0.99,0.53-1.56v-0.07
	h-1.87c-0.11,0-0.2-0.09-0.2-0.2v-0.26c0-0.11,0.09-0.2,0.2-0.2h2.35c0.1,0,0.19,0.08,0.2,0.18c0.01,0.06,0.01,0.12,0.01,0.18v0.16
	c0,1.41-0.5,2.34-1.49,2.76C173.11,122.34,172.69,122.42,172.26,122.42z M1.1,115.83h0.42l2.29,4.41l2.2-4.41h0.41v6.27H6.16v-5.9
	l-2.27,4.4H3.71l-2.35-4.4v5.9H1.1V115.83z M10.48,115.83h0.33l2.39,6.27h-0.29l-0.81-2.14H9.17l-0.82,2.14H8.06L10.48,115.83z
	 M11.99,119.7l-1.35-3.53l-1.37,3.53C9.27,119.7,11.99,119.7,11.99,119.7z M14.84,115.83h0.29v6.27h-0.29V115.83z M17.53,120.18
	c0.01,0.49,0.2,0.95,0.54,1.3c0.35,0.34,0.83,0.51,1.32,0.49c0.44,0.01,0.87-0.11,1.22-0.37c0.36-0.25,0.57-0.66,0.56-1.1
	c0.02-0.44-0.2-0.86-0.59-1.09c-0.4-0.21-0.82-0.36-1.26-0.45c-0.04-0.02-0.07-0.03-0.11-0.04c-0.49-0.1-0.95-0.29-1.37-0.57
	c-0.3-0.26-0.46-0.64-0.45-1.04c-0.03-0.48,0.18-0.94,0.56-1.23c0.38-0.29,0.85-0.43,1.33-0.41c0.52-0.03,1.02,0.15,1.42,0.48
	c0.38,0.35,0.6,0.84,0.59,1.36h-0.28c0.01-0.45-0.18-0.89-0.52-1.19c-0.35-0.28-0.79-0.43-1.23-0.41c-0.41-0.02-0.8,0.1-1.13,0.35
	c-0.31,0.25-0.49,0.64-0.46,1.05c0,0.32,0.14,0.63,0.38,0.85c0.37,0.25,0.8,0.43,1.24,0.51c0.01,0.01,0.03,0.01,0.05,0.01
	c0.03,0,0.05,0.01,0.07,0.02c0.48,0.11,0.95,0.28,1.38,0.51c0.43,0.25,0.68,0.72,0.66,1.21c0.02,0.53-0.21,1.03-0.62,1.36
	c-0.43,0.31-0.94,0.46-1.47,0.44c-0.56,0.03-1.1-0.17-1.51-0.55c-0.4-0.4-0.62-0.93-0.63-1.49L17.53,120.18L17.53,120.18z
	 M23.92,116.66c0.5-0.66,1.3-1.03,2.12-0.98c0.83-0.05,1.63,0.31,2.13,0.97c0.46,0.68,0.69,1.49,0.66,2.31
	c0.04,0.82-0.19,1.63-0.66,2.31c-1.05,1.17-2.85,1.27-4.02,0.22c-0.08-0.07-0.16-0.15-0.23-0.23
	C23.04,119.86,23.04,118.07,23.92,116.66L23.92,116.66z M24.14,121.06c0.86,1.05,2.41,1.21,3.47,0.35c0.13-0.1,0.25-0.22,0.35-0.35
	c0.76-1.3,0.76-2.91-0.01-4.2c-0.84-1.05-2.38-1.22-3.43-0.38c-0.14,0.11-0.27,0.24-0.38,0.38
	C23.38,118.16,23.38,119.77,24.14,121.06L24.14,121.06z M30.96,115.83h0.3l3.94,5.77v-5.77h0.29v6.27H35.2l-3.95-5.76v5.76h-0.29
	L30.96,115.83L30.96,115.83z M40.72,119.72h2.32v0.24h-2.32V119.72z M50.76,115.95c-0.74-0.03-1.45,0.32-1.86,0.93
	c-0.4,0.62-0.59,1.35-0.56,2.08c-0.03,0.73,0.16,1.46,0.56,2.07c0.42,0.61,1.12,0.97,1.86,0.93c0.62,0.03,1.23-0.2,1.67-0.65
	c0.41-0.47,0.62-1.08,0.59-1.7v-0.27h-2.07v-0.26h2.35c0.01,0.06,0.01,0.11,0.01,0.17v0.16c0,1.33-0.46,2.19-1.37,2.58
	c-0.37,0.15-0.77,0.23-1.17,0.23c-0.81,0.05-1.6-0.32-2.08-0.98c-0.86-1.4-0.86-3.16-0.01-4.57c0.48-0.67,1.27-1.04,2.09-0.99
	c0.51-0.01,1.01,0.11,1.46,0.36c0.44,0.26,0.76,0.67,0.9,1.16l-0.27,0.13C52.57,116.41,51.87,115.95,50.76,115.95L50.76,115.95z
	 M57.11,115.83h0.33l2.39,6.27h-0.29l-0.81-2.14h-2.93l-0.82,2.14h-0.29L57.11,115.83z M58.62,119.7l-1.35-3.53l-1.37,3.53H58.62z
	 M61.39,120.18c0.01,0.49,0.2,0.95,0.54,1.3c0.35,0.34,0.83,0.51,1.32,0.49c0.44,0.01,0.87-0.11,1.22-0.37
	c0.36-0.25,0.57-0.66,0.56-1.1c0.02-0.44-0.2-0.86-0.59-1.09c-0.4-0.21-0.82-0.36-1.26-0.45c-0.04-0.02-0.07-0.03-0.11-0.04
	c-0.49-0.1-0.95-0.29-1.37-0.57c-0.3-0.26-0.46-0.64-0.45-1.04c-0.03-0.48,0.18-0.94,0.56-1.23c0.38-0.29,0.85-0.43,1.33-0.41
	c0.52-0.03,1.02,0.15,1.42,0.48c0.38,0.35,0.6,0.84,0.59,1.36h-0.28c0.01-0.45-0.18-0.89-0.52-1.19c-0.35-0.28-0.79-0.43-1.23-0.41
	c-0.41-0.02-0.8,0.1-1.13,0.35c-0.31,0.25-0.49,0.64-0.46,1.05c0,0.32,0.14,0.63,0.38,0.85c0.37,0.25,0.8,0.43,1.24,0.51
	c0.02,0.01,0.03,0.01,0.05,0.01c0.03,0,0.05,0.01,0.07,0.02c0.48,0.11,0.95,0.28,1.38,0.51c0.43,0.25,0.68,0.72,0.66,1.21
	c0.02,0.53-0.21,1.03-0.62,1.36c-0.43,0.31-0.94,0.46-1.47,0.44c-0.56,0.03-1.1-0.17-1.51-0.55c-0.4-0.4-0.62-0.93-0.63-1.49
	L61.39,120.18L61.39,120.18z M68.77,116.1h-1.96v-0.27h4.21v0.27h-1.96v6h-0.3C68.77,122.1,68.77,116.1,68.77,116.1z M73.1,119.13
	v2.96h-0.3v-6.27h2.09c0.53-0.04,1.05,0.07,1.53,0.3c0.44,0.3,0.67,0.82,0.62,1.34c0.05,0.72-0.43,1.38-1.14,1.54
	c0.52,0.09,0.9,0.55,0.88,1.08c0.01,0.03,0.01,0.3,0.01,0.81l0.01,1.19h-0.34v-1.4c0-0.17,0-0.3,0-0.4c0-0.1-0.01-0.18-0.01-0.22
	c-0.02-0.32-0.21-0.61-0.49-0.78c-0.3-0.12-0.63-0.18-0.96-0.16L73.1,119.13L73.1,119.13z M75.04,118.87c1.14,0,1.7-0.46,1.7-1.38
	c0.08-0.66-0.39-1.27-1.05-1.35c0,0-0.01,0-0.01,0c-0.08-0.01-0.19-0.02-0.32-0.03s-0.29-0.01-0.47-0.01H73.1v2.77L75.04,118.87
	L75.04,118.87z M79.59,116.66c0.5-0.66,1.3-1.03,2.12-0.98c0.83-0.05,1.63,0.31,2.13,0.97c0.46,0.68,0.69,1.49,0.66,2.31
	c0.04,0.82-0.19,1.63-0.66,2.31c-1.05,1.17-2.85,1.27-4.02,0.22c-0.08-0.07-0.16-0.15-0.23-0.23
	C78.73,119.86,78.76,118.08,79.59,116.66L79.59,116.66z M79.81,121.06c0.86,1.05,2.41,1.21,3.47,0.35c0.13-0.1,0.25-0.22,0.35-0.35
	c0.76-1.3,0.76-2.91-0.01-4.2c-0.84-1.05-2.38-1.22-3.43-0.38c-0.14,0.11-0.27,0.24-0.38,0.38
	C79.05,118.16,79.06,119.77,79.81,121.06L79.81,121.06z M86.63,115.83h0.3l3.94,5.77v-5.77h0.29v6.27h-0.29l-3.95-5.76v5.76h-0.29
	L86.63,115.83L86.63,115.83z M93.94,116.66c0.5-0.66,1.3-1.03,2.12-0.98c0.83-0.05,1.63,0.31,2.13,0.97
	c0.46,0.68,0.69,1.49,0.66,2.31c0.04,0.82-0.19,1.63-0.66,2.31c-1.05,1.17-2.85,1.27-4.02,0.22c-0.08-0.07-0.16-0.15-0.23-0.23
	C93.07,119.85,93.07,118.07,93.94,116.66L93.94,116.66z M94.16,121.06c0.86,1.05,2.41,1.21,3.47,0.35c0.13-0.1,0.25-0.22,0.35-0.35
	c0.76-1.3,0.76-2.91-0.01-4.2c-0.84-1.05-2.38-1.22-3.43-0.38c-0.14,0.11-0.27,0.24-0.38,0.38C93.4,118.16,93.4,119.77,94.16,121.06
	L94.16,121.06z M100.98,115.83h0.42l2.29,4.41l2.2-4.41h0.41v6.27h-0.26v-5.9l-2.27,4.4h-0.18l-2.35-4.4v5.9h-0.26L100.98,115.83
	L100.98,115.83z M108.73,115.83h0.29v6.27h-0.29L108.73,115.83L108.73,115.83z M111.46,115.83h3.84v0.28h-3.54v2.59h2.8v0.27h-2.8
	v2.85h3.63v0.28h-3.92L111.46,115.83L111.46,115.83z M120.22,119.72h2.32v0.24h-2.32V119.72L120.22,119.72z M127.75,120.18
	c0.01,0.49,0.2,0.95,0.54,1.3c0.35,0.34,0.83,0.51,1.32,0.49c0.44,0.01,0.87-0.11,1.22-0.37c0.36-0.25,0.57-0.66,0.56-1.1
	c0.02-0.44-0.2-0.86-0.59-1.09c-0.4-0.21-0.82-0.36-1.26-0.45c-0.04-0.02-0.07-0.03-0.11-0.04c-0.49-0.1-0.95-0.29-1.37-0.57
	c-0.3-0.26-0.46-0.64-0.45-1.04c-0.03-0.48,0.18-0.94,0.56-1.23c0.38-0.29,0.85-0.43,1.33-0.41c0.52-0.03,1.02,0.15,1.42,0.48
	c0.38,0.35,0.6,0.84,0.59,1.36h-0.28c0.01-0.45-0.18-0.89-0.52-1.19c-0.35-0.28-0.79-0.43-1.23-0.41c-0.41-0.02-0.8,0.1-1.13,0.35
	c-0.31,0.25-0.49,0.64-0.46,1.05c0,0.32,0.14,0.63,0.38,0.85c0.37,0.25,0.8,0.43,1.24,0.51c0.02,0.01,0.03,0.01,0.05,0.01
	c0.03,0,0.05,0.01,0.07,0.02c0.48,0.11,0.95,0.28,1.38,0.51c0.43,0.25,0.68,0.72,0.66,1.21c0.03,0.53-0.21,1.03-0.62,1.36
	c-0.43,0.31-0.94,0.46-1.47,0.44c-0.56,0.03-1.1-0.17-1.51-0.55c-0.4-0.4-0.62-0.93-0.63-1.49L127.75,120.18L127.75,120.18z
	 M133.74,115.83h0.3v2.79h3.98v-2.79h0.29v6.27h-0.29v-3.22h-3.98v3.22h-0.3V115.83L133.74,115.83z M141.09,116.66
	c0.5-0.66,1.3-1.03,2.12-0.98c0.83-0.05,1.63,0.31,2.13,0.97c0.46,0.68,0.69,1.49,0.66,2.31c0.04,0.82-0.19,1.63-0.66,2.31
	c-1.05,1.17-2.85,1.27-4.02,0.22c-0.08-0.07-0.16-0.15-0.23-0.23C140.22,119.85,140.22,118.07,141.09,116.66L141.09,116.66z
	 M141.31,121.06c0.86,1.05,2.41,1.21,3.47,0.35c0.13-0.1,0.25-0.22,0.35-0.35c0.76-1.3,0.76-2.91-0.01-4.2
	c-0.84-1.05-2.38-1.22-3.43-0.38c-0.14,0.11-0.27,0.24-0.38,0.38C140.56,118.16,140.56,119.77,141.31,121.06L141.31,121.06z
	 M152.11,117.48c0.02,0.46-0.15,0.91-0.47,1.24c-0.23,0.22-0.53,0.37-0.85,0.42c-0.32,0.05-0.65,0.07-0.97,0.06h-1.39v2.89h-0.3
	v-6.27h1.71C151.35,115.83,152.11,116.38,152.11,117.48L152.11,117.48z M148.43,116.09v2.85h1.2c0.49,0.03,0.99-0.02,1.46-0.17
	c0.5-0.24,0.79-0.77,0.72-1.32c0.06-0.67-0.44-1.26-1.11-1.31c-0.02,0-0.04,0-0.05,0c-0.33-0.04-0.67-0.06-1.01-0.05L148.43,116.09
	L148.43,116.09z M158.09,117.48c0.02,0.46-0.15,0.91-0.47,1.24c-0.23,0.22-0.53,0.37-0.85,0.42c-0.32,0.05-0.65,0.07-0.97,0.06
	h-1.39v2.89h-0.3v-6.27h1.71C157.34,115.83,158.09,116.38,158.09,117.48L158.09,117.48z M154.41,116.09v2.85h1.2
	c0.49,0.03,0.99-0.02,1.46-0.17c0.5-0.24,0.79-0.77,0.72-1.32c0.06-0.67-0.44-1.26-1.11-1.31c-0.02,0-0.04,0-0.05,0
	c-0.33-0.04-0.67-0.06-1.01-0.05L154.41,116.09L154.41,116.09z M160.15,115.83h0.29v6.27h-0.29V115.83L160.15,115.83z
	 M162.87,115.83h0.3l3.94,5.77v-5.77h0.29v6.27h-0.29l-3.95-5.76v5.76h-0.29L162.87,115.83L162.87,115.83z M172.26,115.95
	c-0.74-0.03-1.45,0.32-1.86,0.93c-0.4,0.62-0.59,1.35-0.56,2.08c-0.03,0.73,0.16,1.46,0.56,2.07c0.42,0.61,1.12,0.97,1.86,0.93
	c0.62,0.03,1.23-0.2,1.67-0.65c0.41-0.47,0.62-1.08,0.59-1.7v-0.27h-2.07v-0.26h2.35c0.01,0.06,0.01,0.11,0.01,0.17v0.16
	c0,1.33-0.46,2.19-1.37,2.58c-0.37,0.15-0.77,0.23-1.17,0.23c-0.81,0.05-1.6-0.32-2.08-0.98c-0.86-1.4-0.86-3.16-0.01-4.57
	c0.48-0.67,1.27-1.04,2.09-0.99c0.51-0.01,1.01,0.11,1.46,0.36c0.44,0.26,0.76,0.67,0.9,1.16l-0.27,0.13
	C174.07,116.41,173.37,115.95,172.26,115.95L172.26,115.95z M0.64,35.61h28.94v9.7H11.63v9.55h16.53v9.55H11.63v15.96H0.64V35.61z
	 M56.2,71.49c7.93,0,13.01-5.97,13.01-13.5s-5.09-13.5-13.01-13.5c-8,0-13.01,5.97-13.01,13.5S48.2,71.49,56.2,71.49 M56.2,34.12
	c14.13,0,24.16,10.52,24.16,23.87S70.34,81.86,56.2,81.86c-14.21,0-24.16-10.52-24.16-23.87S41.99,34.12,56.2,34.12 M85.45,35.61
	h10.99v44.76H85.45L85.45,35.61L85.45,35.61z M120.9,55.01c2.47,0,4.11-2.54,4.11-5.15s-1.94-4.92-4.41-4.92h-8.53V55L120.9,55.01
	L120.9,55.01z M101.08,35.61h18.77c9.65,0,15.93,5.82,15.93,14.25c0,7.83-3.96,12.24-10.62,13.88l12.12,16.64h-13.76l-11.44-16.71
	v16.71h-10.99L101.08,35.61L101.08,35.61z M139.96,35.61h29.69v9.7h-18.7v8.06h17.28v9.55h-17.28v8.06h19.52v9.4h-30.51
	L139.96,35.61L139.96,35.61z M1.06,84.87h7.57c6.41,0,11.37,4.69,11.37,10.8c0,5.78-4.42,10.87-11.37,10.87H1.06V84.87z M8.52,101.7
	c3.4,0,6.01-2.38,6.01-6.03c0-3.36-2.28-5.99-6.01-5.99H6.38v12.02H8.52z M23.72,84.51h5.07l-6.26,8.99h-0.47L23.72,84.51z
	 M35.89,84.15h0.94l10.64,22.39h-5.72l-1.09-2.24h-8.58l-1.05,2.24h-5.72L35.89,84.15z M38.85,100.51l-2.5-5.49h-0.07l-2.53,5.49
	C33.75,100.51,38.86,100.51,38.85,100.51z M47.72,84.87h5.29v13.58c0,2.89,1.38,3.9,3.22,3.9c2.03,0,3.29-1.01,3.29-3.9V84.87h5.32
	v14.38c0,5.13-3.84,8.02-8.62,8.02c-4.96,0-8.51-3.03-8.51-8.02V84.87z M71.69,89.57h-4.85v-4.69h15.13v4.69h-4.92v16.97h-5.36
	V89.57L71.69,89.57z M94.17,84.15c6.84,0,11.69,5.09,11.69,11.56s-4.85,11.56-11.69,11.56c-6.88,0-11.69-5.09-11.69-11.56
	S87.29,84.15,94.17,84.15L94.17,84.15z M94.17,102.24c3.84,0,6.3-2.89,6.3-6.54s-2.46-6.54-6.3-6.54c-3.87,0-6.3,2.89-6.3,6.54
	S90.29,102.24,94.17,102.24L94.17,102.24z M109.3,84.87h4.96l5.54,11.7l5.57-11.7h4.89v21.67h-5.29V96.9l-4.74,10.36h-0.87
	l-4.74-10.44v9.71h-5.32V84.87z M133.73,84.87h5.61l8.43,12.86V84.87h5.29v21.67h-5.54l-8.47-12.89v12.89h-5.32L133.73,84.87
	L133.73,84.87z M156.54,84.87h14.37v4.69h-9.05v3.9h8.36v4.62h-8.36v3.9h9.45v4.55h-14.77L156.54,84.87L156.54,84.87z M94.1,29.48
	c-0.12,0-0.24-0.05-0.32-0.14l-8.52-9.43l-7.2,8.88c-0.15,0.18-0.42,0.2-0.6,0.04c-0.17-0.15-0.2-0.4-0.06-0.58L84.91,19
	c0.01-0.01,0.02-0.02,0.03-0.03c0.03-0.03,0.07-0.06,0.11-0.08c0.06-0.03,0.12-0.04,0.18-0.05l0,0c0.06,0,0.13,0.01,0.19,0.04
	c0.04,0.02,0.09,0.05,0.12,0.08c0.01,0.01,0.02,0.02,0.03,0.03l8.85,9.79c0.16,0.17,0.14,0.44-0.03,0.6
	C94.31,29.44,94.21,29.48,94.1,29.48 M114.04,8.9h8.11V8.36c0.01-2.13-1.68-3.88-3.81-3.94c-1.38-0.11-2.73,0.49-3.57,1.59
	c-0.48,0.66-0.73,1.46-0.72,2.28L114.04,8.9L114.04,8.9z M41.65,30.58H1.06c-0.23,0.01-0.43-0.17-0.45-0.4
	c-0.01-0.23,0.17-0.43,0.4-0.45c0.01,0,0.03,0,0.04,0h40.16V14.31c0-0.11,0.04-0.22,0.12-0.3L51.35,3.7
	c0.08-0.08,0.19-0.13,0.3-0.13h0c0.11,0,0.22,0.04,0.3,0.12l10.38,10.32c0.08,0.08,0.13,0.19,0.13,0.3v15h11.47
	c-0.06-0.19-0.11-0.39-0.13-0.59c-0.15-1.03,0.25-2.06,1.05-2.73l0.07-0.08c1.66-1.75,5.38-5.64,8.15-8.54
	c-0.45-0.51-1.44-1.6-1.74-1.84c-0.04-0.03-0.1-0.04-0.15-0.03c-1.26,0.1-2.52-0.12-3.67-0.63c-0.61-0.26-1.15-0.65-1.58-1.15
	l-4.03-4.63c-0.1-0.11-0.17-0.25-0.22-0.4c-0.15-0.39-0.1-0.84,0.12-1.19c0.31-0.36,0.84-0.43,1.24-0.17
	c0.03,0.02,0.07,0.05,0.09,0.07c0.14,0.15,3.47,3.61,3.94,4.12c0.09,0.11,0.21,0.17,0.35,0.18c0.05-0.01,0.09-0.03,0.12-0.07
	l0.13-0.16c0.06-0.08,0.06-0.19-0.01-0.27l-4.19-4.22c-0.03-0.03-0.06-0.07-0.08-0.11c-0.21-0.4-0.19-0.89,0.05-1.27
	c0.35-0.35,0.89-0.42,1.33-0.19c0.05,0.02,0.09,0.05,0.13,0.08l4.45,4.36c0.04,0.04,0.09,0.06,0.14,0.06c0.05,0,0.09-0.02,0.12-0.05
	c0.02-0.03,0.05-0.06,0.08-0.09c0.03-0.13,0.02-0.27-0.03-0.4c-0.01-0.03-0.03-0.06-0.05-0.08l-4.01-3.91
	c-0.13-0.12-0.22-0.27-0.27-0.44c-0.15-0.36-0.09-0.78,0.16-1.09c0.33-0.3,0.82-0.32,1.17-0.05c0.21,0.15,5,3.54,6.28,5.51
	c0.8,1.23,0.62,2.56,0.49,3.43c-0.04,0.22-0.06,0.45-0.05,0.68c0.06,0.27,0.83,1.16,1.61,1.94l2.56-2.67
	c0.37-0.37,0.6-0.86,0.64-1.38c-0.08-1.7,0.36-3.39,1.27-4.83c0.73-1.04,3.4-2.83,5.46-3.06c0.78-0.14,1.58,0.06,2.19,0.57
	c1.97,1.78-1.02,7-1.39,7.63c-0.1,0.18-1.1,1.84-4.19,2.15c-0.1,0.01-0.21,0.03-0.31,0.05c-0.1,0.03-0.2,0.06-0.3,0.07
	c-0.55,0.09-1.05,0.38-1.41,0.81l-2.31,2.84l9.93,9.11c0.08,0.08,0.16,0.16,0.22,0.26c0.55,0.8,0.51,1.86-0.08,2.63h11.28
	c-0.02-0.03-0.05-0.05-0.07-0.08c-0.12-0.14-0.25-0.31-0.38-0.49c-0.59-0.84-0.85-1.86-0.73-2.87l1.88-16.82
	c0.02-0.22,0.21-0.38,0.42-0.38h3.54V8.29c-0.01-1,0.3-1.97,0.89-2.78c0.98-1.29,2.53-2.01,4.15-1.93h0.12
	c2.59,0.07,4.66,2.19,4.65,4.79V8.9h3.7c0.22,0,0.4,0.17,0.42,0.38l1.73,17.83c0.01,0.87-0.35,1.7-0.99,2.28
	c-0.05,0.05-0.11,0.1-0.16,0.15h41.35c0.23,0,0.43,0.19,0.43,0.42c0,0.23-0.19,0.43-0.42,0.43c0,0,0,0,0,0h-43.89
	c-0.23,0-0.43-0.19-0.43-0.42c0-0.23,0.19-0.43,0.42-0.43c0,0,0,0,0,0h0.12c0.03,0,0.05,0,0.08,0c0.7,0.01,1.38-0.26,1.88-0.75
	c0.46-0.41,0.73-0.99,0.74-1.6l-1.7-17.44h-3.32v2.77c-0.01,0.24-0.21,0.42-0.44,0.41c-0.22-0.01-0.4-0.19-0.41-0.41V9.75h-8.11
	v2.77c0,0.24-0.19,0.43-0.43,0.43c-0.23,0-0.42-0.19-0.43-0.43V9.75h-3.16l-1.84,16.44c-0.1,0.81,0.11,1.62,0.58,2.29
	c0.12,0.17,0.23,0.31,0.34,0.44c0.33,0.34,0.77,0.56,1.24,0.63c0.23,0,0.42,0.2,0.42,0.43c0,0.23-0.2,0.42-0.43,0.42l0,0H96.32
	c-0.05,0-0.1-0.01-0.15-0.03l0,0c-0.05-0.02-0.1-0.05-0.15-0.1l0,0c0,0-0.01-0.01-0.01-0.01l0,0c-0.03-0.04-0.06-0.08-0.08-0.12l0,0
	l0,0c-0.02-0.05-0.03-0.09-0.03-0.14c0-0.01,0-0.02,0-0.03l0,0l0,0c0-0.05,0.01-0.11,0.03-0.15c0.02-0.05,0.05-0.1,0.1-0.14l0,0
	c1.28-1.23,0.76-2.01,0.59-2.27c-0.03-0.04-0.06-0.08-0.09-0.11l-10.22-9.38c-0.03-0.03-0.06-0.06-0.08-0.1l0,0
	c-0.03-0.06-0.05-0.12-0.05-0.19l0,0c0-0.06,0-0.11,0.02-0.17l0,0c0.02-0.05,0.04-0.09,0.07-0.13l2.55-3.15
	c0.49-0.59,1.17-0.98,1.92-1.11c0.06-0.01,0.12-0.03,0.18-0.05c0.16-0.05,0.32-0.08,0.49-0.09c2.72-0.28,3.5-1.66,3.53-1.72
	l0.01-0.02c0.8-1.35,2.8-5.45,1.56-6.57C96.09,4.29,95.53,4.16,95,4.27c-1.89,0.22-4.28,1.88-4.85,2.7
	c-0.8,1.28-1.19,2.77-1.12,4.28c-0.02,0.77-0.34,1.49-0.88,2.04c0,0-1.18,1.24-2.85,2.98l0,0c-0.16,0.17-0.43,0.17-0.6,0.01
	c-0.47-0.45-2.02-1.97-2.16-2.68c-0.03-0.32-0.02-0.65,0.05-0.97c0.11-0.8,0.26-1.89-0.36-2.85c-1.2-1.84-6-5.24-6.05-5.28
	c-0.02-0.01-0.05-0.02-0.07-0.03c0,0.08,0.01,0.15,0.04,0.23c0.01,0.03,0.03,0.05,0.05,0.07l4.01,3.91
	c0.13,0.13,0.22,0.28,0.27,0.46c0.15,0.39,0.1,0.82-0.13,1.17c-0.04,0.05-0.08,0.09-0.12,0.13c-0.19,0.2-0.45,0.32-0.73,0.32
	c-0.28,0-0.55-0.1-0.75-0.3l-4.39-4.3c-0.08-0.03-0.17-0.04-0.26-0.03c-0.02,0.1-0.01,0.21,0.04,0.31l4.14,4.16
	c0.38,0.38,0.41,0.99,0.06,1.4l-0.13,0.16c-0.19,0.23-0.47,0.37-0.77,0.38h0c-0.38,0-0.73-0.17-0.98-0.45
	c-0.43-0.46-3.43-3.59-3.87-4.05c-0.04-0.01-0.07-0.02-0.11-0.02c-0.03,0.14-0.01,0.29,0.04,0.42c0.01,0.03,0.02,0.05,0.04,0.07
	l4.03,4.63c0.35,0.4,0.78,0.72,1.27,0.93c1.01,0.46,2.12,0.66,3.23,0.57c0.28-0.04,0.57,0.04,0.79,0.22
	c0.74,0.71,1.44,1.46,2.1,2.25c0.03,0.04,0.05,0.08,0.07,0.12c0.02,0.06,0.03,0.13,0.03,0.19c-0.01,0.06-0.02,0.12-0.05,0.17
	c-0.02,0.03-0.04,0.06-0.07,0.09c-2.79,2.92-6.7,7.01-8.4,8.81l-0.07,0.08c-0.59,0.62-0.89,0.93-0.81,2.09
	c0.03,0.21,0.09,0.42,0.18,0.61c0.22,0.16,0.27,0.47,0.11,0.69c-0.08,0.11-0.2,0.18-0.33,0.2H62.04c-0.23,0-0.43-0.19-0.43-0.42
	c0,0,0,0,0,0V14.49L51.67,4.6l-9.59,9.88v15.67C42.08,30.39,41.89,30.58,41.65,30.58 M171.33,111.83H0.38
	c-0.21,0.01-0.39-0.16-0.39-0.37c-0.01-0.21,0.16-0.39,0.37-0.39c0.01,0,0.02,0,0.03,0h170.95c0.21-0.01,0.39,0.16,0.39,0.37
	c0.01,0.21-0.16,0.39-0.37,0.39C171.35,111.83,171.34,111.83,171.33,111.83z"/>
<g>
	<g>
		<defs>
			<rect id="SVGID_1_" x="199.31" y="8.26" width="114.17" height="114.17"/>
		</defs>
		<clipPath id="SVGID_2_">
			<use xlink:href="#SVGID_1_"  style="overflow:visible;"/>
		</clipPath>
		<path class="st1" d="M256.39,122.43c31.53,0,57.08-25.56,57.08-57.08c0-31.53-25.56-57.08-57.08-57.08s-57.08,25.56-57.08,57.08
			C199.31,96.87,224.86,122.43,256.39,122.43"/>
		<path class="st2" d="M274.16,37h3.1v-0.22h-2.87v-2.26h2.22v-0.21h-2.22v-2.05h2.8v-0.22h-3.04V37z M270.55,37h0.22l1.73-4.97
			h-0.24l-1.59,4.63l-1.6-4.63h-0.24L270.55,37z M266.92,37h0.23v-4.97h-0.23V37z M261.56,35.49c0.03,0.5,0.2,0.9,0.5,1.18
			c0.3,0.29,0.7,0.44,1.2,0.44c0.48,0,0.86-0.12,1.16-0.35c0.33-0.26,0.49-0.62,0.49-1.08c0-0.41-0.17-0.73-0.53-0.96
			c-0.2-0.12-0.56-0.26-1.09-0.4c-0.05-0.01-0.08-0.02-0.1-0.03c-0.51-0.13-0.84-0.27-0.98-0.4c-0.2-0.19-0.3-0.41-0.3-0.67
			c0-0.36,0.12-0.64,0.37-0.83c0.23-0.19,0.53-0.28,0.89-0.28c0.4,0,0.73,0.11,0.97,0.33c0.27,0.23,0.4,0.55,0.41,0.94h0.22
			c-0.02-0.46-0.17-0.82-0.47-1.08c-0.28-0.26-0.66-0.38-1.12-0.38c-0.44,0-0.78,0.11-1.05,0.33c-0.3,0.23-0.44,0.55-0.44,0.97
			c0,0.34,0.12,0.61,0.35,0.82c0.16,0.14,0.52,0.29,1.09,0.45c0.05,0.01,0.08,0.02,0.09,0.03c0.5,0.14,0.84,0.26,1,0.36
			c0.31,0.19,0.46,0.48,0.46,0.86c0,0.37-0.14,0.66-0.44,0.87c-0.26,0.19-0.58,0.29-0.97,0.29c-0.88,0-1.42-0.55-1.47-1.42H261.56z
			 M256.04,32.03v3.24c0,0.58,0.15,1.03,0.46,1.35c0.31,0.33,0.75,0.49,1.33,0.49c0.57,0,1.01-0.17,1.33-0.49
			c0.31-0.33,0.46-0.77,0.46-1.35v-3.24h-0.23v3.13c0,0.55-0.12,0.97-0.37,1.27c-0.27,0.33-0.66,0.48-1.2,0.48
			c-1.04,0-1.56-0.58-1.56-1.75v-3.13H256.04z M251.45,37h2.87v-0.22h-2.63v-4.75h-0.23V37z M249.34,35.81l-0.2-0.1
			c-0.08,0.33-0.24,0.59-0.48,0.8c-0.31,0.27-0.71,0.4-1.21,0.4c-0.62,0-1.09-0.26-1.4-0.76c-0.26-0.42-0.39-0.96-0.39-1.62
			c0-0.66,0.14-1.2,0.41-1.63c0.33-0.51,0.8-0.77,1.42-0.77c0.84,0,1.37,0.34,1.6,1.02l0.21-0.11c-0.1-0.28-0.28-0.52-0.52-0.71
			c-0.34-0.27-0.76-0.41-1.25-0.41c-0.72,0-1.27,0.26-1.63,0.79c-0.32,0.46-0.48,1.06-0.48,1.82c0,0.74,0.15,1.34,0.46,1.79
			c0.36,0.52,0.89,0.78,1.6,0.78c0.55,0,1-0.15,1.34-0.45C249.08,36.42,249.25,36.15,249.34,35.81 M240.3,37h0.26l1.56-2.34
			l1.58,2.34h0.26l-1.69-2.55l1.59-2.42h-0.26l-1.47,2.23l-1.48-2.23h-0.27l1.61,2.43L240.3,37z M235.83,37h3.1v-0.22h-2.87v-2.26
			h2.22v-0.21h-2.22v-2.05h2.8v-0.22h-3.04V37z"/>
		<path class="st3" d="M274.16,37h3.1v-0.22h-2.87v-2.26h2.22v-0.21h-2.22v-2.05h2.8v-0.22h-3.04V37z M270.55,37h0.22l1.73-4.97
			h-0.24l-1.59,4.63l-1.6-4.63h-0.24L270.55,37z M266.92,37h0.23v-4.97h-0.23V37z M261.56,35.49c0.03,0.5,0.2,0.9,0.5,1.18
			c0.3,0.29,0.7,0.44,1.2,0.44c0.48,0,0.86-0.12,1.16-0.35c0.33-0.26,0.49-0.62,0.49-1.08c0-0.41-0.17-0.73-0.53-0.96
			c-0.2-0.12-0.56-0.26-1.09-0.4c-0.05-0.01-0.08-0.02-0.1-0.03c-0.51-0.13-0.84-0.27-0.98-0.4c-0.2-0.19-0.3-0.41-0.3-0.67
			c0-0.36,0.12-0.64,0.37-0.83c0.23-0.19,0.53-0.28,0.89-0.28c0.4,0,0.73,0.11,0.97,0.33c0.27,0.23,0.4,0.55,0.41,0.94h0.22
			c-0.02-0.46-0.17-0.82-0.47-1.08c-0.28-0.26-0.66-0.38-1.12-0.38c-0.44,0-0.78,0.11-1.05,0.33c-0.3,0.23-0.44,0.55-0.44,0.97
			c0,0.34,0.12,0.61,0.35,0.82c0.16,0.14,0.52,0.29,1.09,0.45c0.05,0.01,0.08,0.02,0.09,0.03c0.5,0.14,0.84,0.26,1,0.36
			c0.31,0.19,0.46,0.48,0.46,0.86c0,0.37-0.14,0.66-0.44,0.87c-0.26,0.19-0.58,0.29-0.97,0.29c-0.88,0-1.42-0.55-1.47-1.42H261.56z
			 M256.04,32.03v3.24c0,0.58,0.15,1.03,0.46,1.35c0.31,0.33,0.75,0.49,1.33,0.49c0.57,0,1.01-0.17,1.33-0.49
			c0.31-0.33,0.46-0.77,0.46-1.35v-3.24h-0.23v3.13c0,0.55-0.12,0.97-0.37,1.27c-0.27,0.33-0.66,0.48-1.2,0.48
			c-1.04,0-1.56-0.58-1.56-1.75v-3.13H256.04z M251.45,37h2.87v-0.22h-2.63v-4.75h-0.23V37z M249.34,35.81l-0.2-0.1
			c-0.08,0.33-0.24,0.59-0.48,0.8c-0.31,0.27-0.71,0.4-1.21,0.4c-0.62,0-1.09-0.26-1.4-0.76c-0.26-0.42-0.39-0.96-0.39-1.62
			c0-0.66,0.14-1.2,0.41-1.63c0.33-0.51,0.8-0.77,1.42-0.77c0.84,0,1.37,0.34,1.6,1.02l0.21-0.11c-0.1-0.28-0.28-0.52-0.52-0.71
			c-0.34-0.27-0.76-0.41-1.25-0.41c-0.72,0-1.27,0.26-1.63,0.79c-0.32,0.46-0.48,1.06-0.48,1.82c0,0.74,0.15,1.34,0.46,1.79
			c0.36,0.52,0.89,0.78,1.6,0.78c0.55,0,1-0.15,1.34-0.45C249.08,36.42,249.25,36.15,249.34,35.81z M240.3,37h0.26l1.56-2.34
			l1.58,2.34h0.26l-1.69-2.55l1.59-2.42h-0.26l-1.47,2.23l-1.48-2.23h-0.27l1.61,2.43L240.3,37z M235.83,37h3.1v-0.22h-2.87v-2.26
			h2.22v-0.21h-2.22v-2.05h2.8v-0.22h-3.04V37z"/>
		<path class="st2" d="M273.62,27.43h3.1v-0.22h-2.87v-2.26h2.22v-0.21h-2.22v-2.05h2.8v-0.22h-3.04V27.43z M271.51,26.23l-0.2-0.1
			c-0.08,0.33-0.23,0.59-0.48,0.8c-0.31,0.27-0.71,0.4-1.21,0.4c-0.62,0-1.09-0.26-1.4-0.76c-0.26-0.42-0.39-0.96-0.39-1.62
			s0.14-1.2,0.41-1.63c0.33-0.51,0.8-0.77,1.42-0.77c0.84,0,1.37,0.34,1.6,1.02l0.21-0.11c-0.1-0.28-0.28-0.52-0.52-0.71
			c-0.34-0.27-0.76-0.41-1.25-0.41c-0.72,0-1.27,0.26-1.63,0.79c-0.32,0.46-0.48,1.06-0.48,1.82c0,0.74,0.15,1.34,0.46,1.79
			c0.36,0.52,0.89,0.78,1.6,0.78c0.55,0,1-0.15,1.34-0.45C271.25,26.85,271.42,26.57,271.51,26.23 M261.98,27.43h0.23v-4.57
			l3.13,4.57h0.23v-4.97h-0.23v4.58l-3.12-4.58h-0.24V27.43z M256.95,27.43h3.1v-0.22h-2.87v-2.26h2.22v-0.21h-2.22v-2.05h2.8v-0.22
			h-3.04V27.43z M251.63,25.92c0.03,0.5,0.2,0.9,0.5,1.18c0.3,0.29,0.7,0.44,1.2,0.44c0.48,0,0.86-0.12,1.16-0.35
			c0.33-0.26,0.49-0.62,0.49-1.08c0-0.41-0.17-0.73-0.53-0.96c-0.2-0.12-0.56-0.26-1.09-0.4c-0.05-0.01-0.08-0.02-0.1-0.03
			c-0.51-0.13-0.84-0.27-0.98-0.4c-0.2-0.19-0.3-0.41-0.3-0.67c0-0.36,0.12-0.64,0.37-0.83c0.23-0.19,0.53-0.28,0.89-0.28
			c0.4,0,0.73,0.11,0.97,0.33c0.27,0.23,0.4,0.55,0.41,0.94h0.22c-0.02-0.46-0.17-0.82-0.47-1.08c-0.28-0.26-0.66-0.38-1.12-0.38
			c-0.44,0-0.78,0.11-1.05,0.33c-0.3,0.23-0.44,0.55-0.44,0.98c0,0.34,0.12,0.61,0.35,0.82c0.16,0.15,0.52,0.29,1.09,0.45
			c0.05,0.01,0.08,0.02,0.09,0.03c0.5,0.14,0.84,0.26,1,0.36c0.31,0.19,0.46,0.48,0.46,0.86c0,0.37-0.14,0.66-0.44,0.87
			c-0.26,0.19-0.58,0.29-0.97,0.29c-0.88,0-1.42-0.55-1.47-1.42H251.63z M246.86,27.43h3.1v-0.22h-2.87v-2.26h2.22v-0.21h-2.22
			v-2.05h2.8v-0.22h-3.04V27.43z M248.04,21.97h0.37l0.7-1.11h-0.37L248.04,21.97z M241.69,24.87v-2.2h1.42
			c0.28,0,0.5,0.01,0.63,0.03c0.56,0.1,0.84,0.46,0.84,1.07c0,0.73-0.45,1.09-1.35,1.09H241.69z M243.19,25.08
			c0.35,0,0.6,0.04,0.76,0.12c0.21,0.1,0.34,0.31,0.39,0.62c0.01,0.07,0.01,0.24,0.01,0.5v1.11h0.27l-0.01-0.95
			c0-0.39,0-0.61-0.01-0.64c-0.05-0.49-0.28-0.77-0.7-0.86c0.6-0.19,0.9-0.59,0.9-1.22c0-0.5-0.17-0.86-0.49-1.06
			c-0.26-0.16-0.66-0.24-1.21-0.24h-1.65v4.97h0.23v-2.35H243.19z M237.56,22.67c0.37,0,0.63,0.01,0.8,0.04
			c0.62,0.1,0.92,0.44,0.92,1.04c0,0.53-0.19,0.88-0.57,1.04c-0.2,0.09-0.58,0.13-1.15,0.13h-0.95v-2.26H237.56z M237.73,22.46
			h-1.36v4.97h0.24v-2.3h1.1c0.34,0,0.59-0.01,0.77-0.05c0.28-0.06,0.5-0.17,0.67-0.33c0.25-0.26,0.37-0.58,0.37-0.98
			C239.52,22.89,238.92,22.46,237.73,22.46"/>
		<path class="st3" d="M273.62,27.43h3.1v-0.22h-2.87v-2.26h2.22v-0.21h-2.22v-2.05h2.8v-0.22h-3.04V27.43z M271.51,26.23l-0.2-0.1
			c-0.08,0.33-0.23,0.59-0.48,0.8c-0.31,0.27-0.71,0.4-1.21,0.4c-0.62,0-1.09-0.26-1.4-0.76c-0.26-0.42-0.39-0.96-0.39-1.62
			s0.14-1.2,0.41-1.63c0.33-0.51,0.8-0.77,1.42-0.77c0.84,0,1.37,0.34,1.6,1.02l0.21-0.11c-0.1-0.28-0.28-0.52-0.52-0.71
			c-0.34-0.27-0.76-0.41-1.25-0.41c-0.72,0-1.27,0.26-1.63,0.79c-0.32,0.46-0.48,1.06-0.48,1.82c0,0.74,0.15,1.34,0.46,1.79
			c0.36,0.52,0.89,0.78,1.6,0.78c0.55,0,1-0.15,1.34-0.45C271.25,26.85,271.42,26.57,271.51,26.23z M261.98,27.43h0.23v-4.57
			l3.13,4.57h0.23v-4.97h-0.23v4.58l-3.12-4.58h-0.24V27.43z M256.95,27.43h3.1v-0.22h-2.87v-2.26h2.22v-0.21h-2.22v-2.05h2.8v-0.22
			h-3.04V27.43z M251.63,25.92c0.03,0.5,0.2,0.9,0.5,1.18c0.3,0.29,0.7,0.44,1.2,0.44c0.48,0,0.86-0.12,1.16-0.35
			c0.33-0.26,0.49-0.62,0.49-1.08c0-0.41-0.17-0.73-0.53-0.96c-0.2-0.12-0.56-0.26-1.09-0.4c-0.05-0.01-0.08-0.02-0.1-0.03
			c-0.51-0.13-0.84-0.27-0.98-0.4c-0.2-0.19-0.3-0.41-0.3-0.67c0-0.36,0.12-0.64,0.37-0.83c0.23-0.19,0.53-0.28,0.89-0.28
			c0.4,0,0.73,0.11,0.97,0.33c0.27,0.23,0.4,0.55,0.41,0.94h0.22c-0.02-0.46-0.17-0.82-0.47-1.08c-0.28-0.26-0.66-0.38-1.12-0.38
			c-0.44,0-0.78,0.11-1.05,0.33c-0.3,0.23-0.44,0.55-0.44,0.98c0,0.34,0.12,0.61,0.35,0.82c0.16,0.15,0.52,0.29,1.09,0.45
			c0.05,0.01,0.08,0.02,0.09,0.03c0.5,0.14,0.84,0.26,1,0.36c0.31,0.19,0.46,0.48,0.46,0.86c0,0.37-0.14,0.66-0.44,0.87
			c-0.26,0.19-0.58,0.29-0.97,0.29c-0.88,0-1.42-0.55-1.47-1.42H251.63z M246.86,27.43h3.1v-0.22h-2.87v-2.26h2.22v-0.21h-2.22
			v-2.05h2.8v-0.22h-3.04V27.43z M248.04,21.97h0.37l0.7-1.11h-0.37L248.04,21.97z M241.69,24.87v-2.2h1.42
			c0.28,0,0.5,0.01,0.63,0.03c0.56,0.1,0.84,0.46,0.84,1.07c0,0.73-0.45,1.09-1.35,1.09H241.69z M243.19,25.08
			c0.35,0,0.6,0.04,0.76,0.12c0.21,0.1,0.34,0.31,0.39,0.62c0.01,0.07,0.01,0.24,0.01,0.5v1.11h0.27l-0.01-0.95
			c0-0.39,0-0.61-0.01-0.64c-0.05-0.49-0.28-0.77-0.7-0.86c0.6-0.19,0.9-0.59,0.9-1.22c0-0.5-0.17-0.86-0.49-1.06
			c-0.26-0.16-0.66-0.24-1.21-0.24h-1.65v4.97h0.23v-2.35H243.19z M237.56,22.67c0.37,0,0.63,0.01,0.8,0.04
			c0.62,0.1,0.92,0.44,0.92,1.04c0,0.53-0.19,0.88-0.57,1.04c-0.2,0.09-0.58,0.13-1.15,0.13h-0.95v-2.26H237.56z M237.73,22.46
			h-1.36v4.97h0.24v-2.3h1.1c0.34,0,0.59-0.01,0.77-0.05c0.28-0.06,0.5-0.17,0.67-0.33c0.25-0.26,0.37-0.58,0.37-0.98
			C239.52,22.89,238.92,22.46,237.73,22.46z"/>
	</g>
	<g>
		<path class="st0" d="M207.7,77.17c0,0,2.71-0.16,4.63-0.64c1.92-0.48,5.59-1.84,5.59-1.84l0.48,1.2c0,0-2.16,1.12-5.03,1.6
			c-2.87,0.48-3.99,0.16-4.55,0.08C208.26,77.49,207.7,77.17,207.7,77.17"/>
		<path class="st4" d="M207.7,77.17c0,0,2.71-0.16,4.63-0.64c1.92-0.48,5.59-1.84,5.59-1.84l0.48,1.2c0,0-2.16,1.12-5.03,1.6
			c-2.87,0.48-3.99,0.16-4.55,0.08C208.26,77.49,207.7,77.17,207.7,77.17z"/>
		<path class="st0" d="M206.27,76.37c0,0,1.44,1.76,3.03,2.48c1.6,0.72,2.79,0.72,2.79,0.72s-0.4,0.16-0.96,0.24l-0.56,0.08
			c0,0,1.44,0.48,3.03,0.24c1.6-0.24,5.83-0.96,8.22-1.28c2.4-0.32,6.71-0.24,9.5,1.6s3.67,2.95,4.71,4.87
			c1.04,1.92,1.04,3.19,1.04,3.19s0.96-0.16,2.79,0.24c1.84,0.4,3.43,1.12,3.43,1.12s-3.59,0-5.35,0.08
			c-1.76,0.08-4.39,0.48-4.39,0.48l1.28-1.84h0.96c0.48,0,0.96-0.08,0.96-0.08s-0.24-0.96-1.2-2.47c-0.96-1.52-2.32-2.95-4.47-4.15
			s-3.99-1.6-7.35-1.44c-3.35,0.16-4.95,0.4-6.95,0.64c-2,0.24-4.55,0.72-6.31-0.08c-1.76-0.8-3.11-1.52-3.67-2.79
			C206.27,76.93,206.27,76.37,206.27,76.37"/>
		<path class="st4" d="M206.27,76.37c0,0,1.44,1.76,3.03,2.48c1.6,0.72,2.79,0.72,2.79,0.72s-0.4,0.16-0.96,0.24l-0.56,0.08
			c0,0,1.44,0.48,3.03,0.24c1.6-0.24,5.83-0.96,8.22-1.28c2.4-0.32,6.71-0.24,9.5,1.6s3.67,2.95,4.71,4.87
			c1.04,1.92,1.04,3.19,1.04,3.19s0.96-0.16,2.79,0.24c1.84,0.4,3.43,1.12,3.43,1.12s-3.59,0-5.35,0.08
			c-1.76,0.08-4.39,0.48-4.39,0.48l1.28-1.84h0.96c0.48,0,0.96-0.08,0.96-0.08s-0.24-0.96-1.2-2.47c-0.96-1.52-2.32-2.95-4.47-4.15
			s-3.99-1.6-7.35-1.44c-3.35,0.16-4.95,0.4-6.95,0.64c-2,0.24-4.55,0.72-6.31-0.08c-1.76-0.8-3.11-1.52-3.67-2.79
			C206.27,76.93,206.27,76.37,206.27,76.37z"/>
		<path class="st0" d="M223.35,73.17l-0.72-0.8c0,0,2.16-1.2,3.91-3.19c1.76-2,3.11-3.11,4.07-5.75c0.96-2.64,0.88-4.55,0.8-6.07
			c-0.08-1.52,0.48-3.43,0.96-4.63c0.48-1.2,1.12-1.44,1.12-1.44s-1.2,1.44-1.44,4.63c-0.24,3.19,0.08,3.03-0.48,5.27
			c-0.56,2.24-0.88,4.39-2.71,6.71c-1.84,2.32-3.43,3.83-4.23,4.39C223.83,72.85,223.35,73.17,223.35,73.17"/>
		<path class="st4" d="M223.35,73.17l-0.72-0.8c0,0,2.16-1.2,3.91-3.19c1.76-2,3.11-3.11,4.07-5.75c0.96-2.64,0.88-4.55,0.8-6.07
			c-0.08-1.52,0.48-3.43,0.96-4.63c0.48-1.2,1.12-1.44,1.12-1.44s-1.2,1.44-1.44,4.63c-0.24,3.19,0.08,3.03-0.48,5.27
			c-0.56,2.24-0.88,4.39-2.71,6.71c-1.84,2.32-3.43,3.83-4.23,4.39C223.83,72.85,223.35,73.17,223.35,73.17z"/>
		<path class="st0" d="M235.24,49.71c-0.16,0.14-0.32,0.06-0.49,0.06c-0.18,0-0.23,0.04-0.41,0.22c-0.18,0.18-0.38,0.21-0.37,0.44
			c0.01,0.23,0.16,0.25,0.48,0.29c0.32,0.04,0.45,0.04,0.56,0.15c0.11,0.11,0.15,0.1,0.4,0.21c0.25,0.11,0.62,0.3,0.78,0.44
			c0.16,0.14,0.47,0.19,0.56-0.03c0.1-0.22,0.18-0.49,0.05-0.65c-0.12-0.15-0.11-0.27-0.41-0.38c-0.3-0.11-0.58-0.06-0.58-0.18
			c0-0.12,0.06-0.26,0.3-0.21c0.25,0.05,0.41,0.11,0.47-0.17c0.06-0.27,0.14-0.56,0-0.73c-0.14-0.16-0.23-0.1-0.49-0.11
			c-0.26-0.01-0.36-0.04-0.48,0.14C235.48,49.38,235.4,49.57,235.24,49.71"/>
		<path class="st4" d="M235.24,49.71c-0.16,0.14-0.32,0.06-0.49,0.06c-0.18,0-0.23,0.04-0.41,0.22c-0.18,0.18-0.38,0.21-0.37,0.44
			c0.01,0.23,0.16,0.25,0.48,0.29c0.32,0.04,0.45,0.04,0.56,0.15c0.11,0.11,0.15,0.1,0.4,0.21c0.25,0.11,0.62,0.3,0.78,0.44
			c0.16,0.14,0.47,0.19,0.56-0.03c0.1-0.22,0.18-0.49,0.05-0.65c-0.12-0.15-0.11-0.27-0.41-0.38c-0.3-0.11-0.58-0.06-0.58-0.18
			c0-0.12,0.06-0.26,0.3-0.21c0.25,0.05,0.41,0.11,0.47-0.17c0.06-0.27,0.14-0.56,0-0.73c-0.14-0.16-0.23-0.1-0.49-0.11
			c-0.26-0.01-0.36-0.04-0.48,0.14C235.48,49.38,235.4,49.57,235.24,49.71z"/>
		<path class="st0" d="M236.66,48.74c0.19,0.04,0.26-0.15,0.32-0.23c0.05-0.08-0.07-0.22-0.04-0.33c0.03-0.11,0.14-0.43,0.03-0.33
			c-0.11,0.1-0.14,0.1-0.27,0.11c-0.14,0.01-0.23,0.11-0.19,0.22c0.04,0.11-0.11,0.19-0.11,0.29
			C236.39,48.56,236.47,48.7,236.66,48.74"/>
		<path class="st4" d="M236.66,48.74c0.19,0.04,0.26-0.15,0.32-0.23c0.05-0.08-0.07-0.22-0.04-0.33c0.03-0.11,0.14-0.43,0.03-0.33
			c-0.11,0.1-0.14,0.1-0.27,0.11c-0.14,0.01-0.23,0.11-0.19,0.22c0.04,0.11-0.11,0.19-0.11,0.29
			C236.39,48.56,236.47,48.7,236.66,48.74z"/>
		<path class="st0" d="M235.89,48.92c-0.06-0.03-0.04-0.25,0.15-0.25c0.19,0,0.18,0.11,0.14,0.21
			C236.14,48.97,235.95,48.94,235.89,48.92"/>
		<path class="st4" d="M235.89,48.92c-0.06-0.03-0.04-0.25,0.15-0.25c0.19,0,0.18,0.11,0.14,0.21
			C236.14,48.97,235.95,48.94,235.89,48.92z"/>
		<path class="st0" d="M235.37,51.69c0,0-1.33,0.78-1.09,3.92c0.24,3.15,0.49,4.22,1.21,6.46c0.72,2.24,0.56,1.76,0.56,1.76
			s-1.28,0.05-2.31,0.5c-1.02,0.45-2.05,1.18-2.98,2.62c-0.93,1.45-1.51,2.65-1.54,5c-0.03,2.35,1.21,4.07,1.81,4.67
			c0.6,0.6,2.11,1.36,3.83,0.96c1.72-0.39,2.95-1.78,3.35-2.17c0.39-0.39,1.18-1.48,1.18-1.48s0.54,1.27,0.78,2.38
			c0.24,1.12,0.63,2.98,0.87,4.16c0.24,1.18,0.51,3.16,0.54,4.13c0.03,0.96-0.15,3.25-0.15,3.25s0.54-2.29,0.42-4.67
			c-0.12-2.38-0.51-5.06-1.02-7.38c-0.51-2.32-0.84-3.41-0.84-3.41s0.45-1.51,0.45-3.01c0-1.51-0.51-2.92-1.39-3.98
			c-0.87-1.05-1.75-1.33-1.75-1.33s-1.39-3.53-1.87-6.03c-0.48-2.5-0.51-3.32-0.45-4.4C235.04,52.58,235.37,51.69,235.37,51.69
			 M232.18,66.05c0,0,1.6-0.81,3.26-0.39c1.66,0.42,2.89,1.69,3.28,3.22s0.06,3.41-0.24,4.52c-0.3,1.12-1.02,1.93-1.72,2.35
			c-0.69,0.42-2.8,0.27-3.74-0.36c-0.93-0.63-2.02-1.96-2.26-3.65c-0.24-1.69,0.39-3.77,0.72-4.46
			C231.81,66.6,232.18,66.05,232.18,66.05"/>
		<path class="st4" d="M235.37,51.69c0,0-1.33,0.78-1.09,3.92c0.24,3.15,0.49,4.22,1.21,6.46c0.72,2.24,0.56,1.76,0.56,1.76
			s-1.28,0.05-2.31,0.5c-1.02,0.45-2.05,1.18-2.98,2.62c-0.93,1.45-1.51,2.65-1.54,5c-0.03,2.35,1.21,4.07,1.81,4.67
			c0.6,0.6,2.11,1.36,3.83,0.96c1.72-0.39,2.95-1.78,3.35-2.17c0.39-0.39,1.18-1.48,1.18-1.48s0.54,1.27,0.78,2.38
			c0.24,1.12,0.63,2.98,0.87,4.16c0.24,1.18,0.51,3.16,0.54,4.13c0.03,0.96-0.15,3.25-0.15,3.25s0.54-2.29,0.42-4.67
			c-0.12-2.38-0.51-5.06-1.02-7.38c-0.51-2.32-0.84-3.41-0.84-3.41s0.45-1.51,0.45-3.01c0-1.51-0.51-2.92-1.39-3.98
			c-0.87-1.05-1.75-1.33-1.75-1.33s-1.39-3.53-1.87-6.03c-0.48-2.5-0.51-3.32-0.45-4.4C235.04,52.58,235.37,51.69,235.37,51.69z
			 M232.18,66.05c0,0,1.6-0.81,3.26-0.39c1.66,0.42,2.89,1.69,3.28,3.22s0.06,3.41-0.24,4.52c-0.3,1.12-1.02,1.93-1.72,2.35
			c-0.69,0.42-2.8,0.27-3.74-0.36c-0.93-0.63-2.02-1.96-2.26-3.65c-0.24-1.69,0.39-3.77,0.72-4.46
			C231.81,66.6,232.18,66.05,232.18,66.05z"/>
		<path class="st0" d="M227.35,66.76c0,0-0.94-0.86-1.72-1.17c-0.78-0.31-1.8-0.42-2.69-0.16c-0.89,0.26-1.44,0.81-1.51,0.97
			c-0.08,0.16-0.73,1.75-0.81,2.4c-0.08,0.65-0.39,3.31,0.29,4.49c0.68,1.17,1.57,2.24,3.84,2.51c2.27,0.26,3.34-1.15,3.34-1.15
			s-0.44,1.51-2.22,2.43c-1.77,0.91-3.81,0.6-4.67-0.29c-0.86-0.89-1.93-2.35-1.93-4.83c0-2.48,0.76-4.83,1.88-6.08
			c1.12-1.25,2.27-2.14,4.02-2.17c1.75-0.03,2.58,0.57,3.21,1.1c0.63,0.52,0.5,0.6,0.5,0.6L227.35,66.76z"/>
		<path class="st4" d="M227.35,66.76c0,0-0.94-0.86-1.72-1.17c-0.78-0.31-1.8-0.42-2.69-0.16c-0.89,0.26-1.44,0.81-1.51,0.97
			c-0.08,0.16-0.73,1.75-0.81,2.4c-0.08,0.65-0.39,3.31,0.29,4.49c0.68,1.17,1.57,2.24,3.84,2.51c2.27,0.26,3.34-1.15,3.34-1.15
			s-0.44,1.51-2.22,2.43c-1.77,0.91-3.81,0.6-4.67-0.29c-0.86-0.89-1.93-2.35-1.93-4.83c0-2.48,0.76-4.83,1.88-6.08
			c1.12-1.25,2.27-2.14,4.02-2.17c1.75-0.03,2.58,0.57,3.21,1.1c0.63,0.52,0.5,0.6,0.5,0.6L227.35,66.76z"/>
		<path class="st0" d="M242.59,77.13l-1,0.26c0,0,0.35-2.57,0.51-4.08c0.16-1.51,0.35-5.69,0.39-6.62c0.03-0.93-0.03-1.7-0.13-1.96
			c-0.1-0.26-0.42-0.58-0.42-0.58l1.86-0.39c0,0,1.9,3.47,2.67,4.85c0.77,1.38,2.12,3.73,2.44,4.21c0.32,0.48,0.64,0.55,0.74-0.22
			c0.1-0.77,0.55-6.75,0.58-7.39c0.03-0.64,0.06-1.29,0.06-1.29l1-0.03c0,0-0.45,4.95-0.61,6.65c-0.16,1.7-0.32,5.37-0.32,5.78
			c0,0.42-0.06,0.96-0.06,0.96l-1.06,0.13c0,0-1.74-3.53-2.41-4.69c-0.67-1.16-2.57-4.4-2.83-4.85c-0.26-0.45-0.67-0.64-0.74,0.29
			c-0.06,0.93-0.06,3.02-0.22,4.53C242.88,74.2,242.59,77.13,242.59,77.13"/>
		<path class="st4" d="M242.59,77.13l-1,0.26c0,0,0.35-2.57,0.51-4.08c0.16-1.51,0.35-5.69,0.39-6.62c0.03-0.93-0.03-1.7-0.13-1.96
			c-0.1-0.26-0.42-0.58-0.42-0.58l1.86-0.39c0,0,1.9,3.47,2.67,4.85c0.77,1.38,2.12,3.73,2.44,4.21c0.32,0.48,0.64,0.55,0.74-0.22
			c0.1-0.77,0.55-6.75,0.58-7.39c0.03-0.64,0.06-1.29,0.06-1.29l1-0.03c0,0-0.45,4.95-0.61,6.65c-0.16,1.7-0.32,5.37-0.32,5.78
			c0,0.42-0.06,0.96-0.06,0.96l-1.06,0.13c0,0-1.74-3.53-2.41-4.69c-0.67-1.16-2.57-4.4-2.83-4.85c-0.26-0.45-0.67-0.64-0.74,0.29
			c-0.06,0.93-0.06,3.02-0.22,4.53C242.88,74.2,242.59,77.13,242.59,77.13z"/>
		<path class="st0" d="M260.62,66.63c0,0-1.1-0.83-1.88-1.14c-0.78-0.31-1.86-0.32-2.75-0.06c-0.89,0.26-1.34,0.9-1.42,1.06
			c-0.08,0.16-0.7,1.65-0.78,2.31c-0.08,0.65-0.2,3.31,0.47,4.49c0.68,1.17,1.69,2.28,3.8,2.47c2.11,0.2,3.4-1.09,3.37-1.12
			c-0.03-0.03-1.35,1.76-2.84,2.55c-1.49,0.79-3.19,0.38-4.11-0.47c-0.92-0.86-2.09-2.54-2.09-5.02s0.79-4.48,1.91-5.74
			c1.12-1.25,2.27-2.33,4.02-2.35c1.75-0.03,2.36,0.51,2.99,1.03c0.63,0.52,0.5,0.6,0.5,0.6L260.62,66.63z"/>
		<path class="st4" d="M260.62,66.63c0,0-1.1-0.83-1.88-1.14c-0.78-0.31-1.86-0.32-2.75-0.06c-0.89,0.26-1.34,0.9-1.42,1.06
			c-0.08,0.16-0.7,1.65-0.78,2.31c-0.08,0.65-0.2,3.31,0.47,4.49c0.68,1.17,1.69,2.28,3.8,2.47c2.11,0.2,3.4-1.09,3.37-1.12
			c-0.03-0.03-1.35,1.76-2.84,2.55c-1.49,0.79-3.19,0.38-4.11-0.47c-0.92-0.86-2.09-2.54-2.09-5.02s0.79-4.48,1.91-5.74
			c1.12-1.25,2.27-2.33,4.02-2.35c1.75-0.03,2.36,0.51,2.99,1.03c0.63,0.52,0.5,0.6,0.5,0.6L260.62,66.63z"/>
		<path class="st0" d="M264.88,65.4c1.25-1.03,3.28-2.13,5.25-1.53c1.97,0.59,2.97,2.13,3.28,4.13s-0.44,5.25-1.72,6.88
			c-1.28,1.63-3.22,3.22-5.75,2.5c-2.53-0.72-3.81-3.78-3.53-6.28C262.69,68.59,263.63,66.44,264.88,65.4 M265.53,65.81
			c0.72-0.5,1.59-0.63,2.66-0.41c1.06,0.22,1.78,0.47,2.72,1.66c0.94,1.19,1.25,3.16,1,4.53c-0.25,1.38-0.59,2.56-1.13,3.34
			c-0.53,0.78-1.81,0.88-2.41,0.88c-0.59,0-2.34-0.06-3.41-1.56c-1.06-1.5-1.41-3.13-1.16-4.53
			C264.07,68.31,264.82,66.31,265.53,65.81"/>
		<path class="st4" d="M264.88,65.4c1.25-1.03,3.28-2.13,5.25-1.53c1.97,0.59,2.97,2.13,3.28,4.13s-0.44,5.25-1.72,6.88
			c-1.28,1.63-3.22,3.22-5.75,2.5c-2.53-0.72-3.81-3.78-3.53-6.28C262.69,68.59,263.63,66.44,264.88,65.4z M265.53,65.81
			c0.72-0.5,1.59-0.63,2.66-0.41c1.06,0.22,1.78,0.47,2.72,1.66c0.94,1.19,1.25,3.16,1,4.53c-0.25,1.38-0.59,2.56-1.13,3.34
			c-0.53,0.78-1.81,0.88-2.41,0.88c-0.59,0-2.34-0.06-3.41-1.56c-1.06-1.5-1.41-3.13-1.16-4.53
			C264.07,68.31,264.82,66.31,265.53,65.81z"/>
		<path class="st0" d="M275.72,63.53l1.97-0.06c0,0-0.44,3.78-0.59,5.75c-0.16,1.97-0.16,3.28-0.19,4.13
			c-0.03,0.84,0.34,1.66,1.25,2.16s2.16,0,2.81-0.63c0.66-0.63,0.78-1.69,0.91-3.09c0.12-1.41,0.62-8.22,0.62-8.22l1.94-0.09
			l-1.06,13.5l-1.97,0.25l0.16-1.88c0,0-0.81,0.91-2.47,1.5c-1.66,0.59-2.5,0.59-3.53-0.28c-1.03-0.87-0.72-2.75-0.66-3.66
			c0.06-0.91,0.19-3.56,0.38-5.47C275.47,65.53,275.72,63.53,275.72,63.53"/>
		<path class="st4" d="M275.72,63.53l1.97-0.06c0,0-0.44,3.78-0.59,5.75c-0.16,1.97-0.16,3.28-0.19,4.13
			c-0.03,0.84,0.34,1.66,1.25,2.16s2.16,0,2.81-0.63c0.66-0.63,0.78-1.69,0.91-3.09c0.12-1.41,0.62-8.22,0.62-8.22l1.94-0.09
			l-1.06,13.5l-1.97,0.25l0.16-1.88c0,0-0.81,0.91-2.47,1.5c-1.66,0.59-2.5,0.59-3.53-0.28c-1.03-0.87-0.72-2.75-0.66-3.66
			c0.06-0.91,0.19-3.56,0.38-5.47C275.47,65.53,275.72,63.53,275.72,63.53z"/>
		<path class="st0" d="M286.29,63.37l-1,13.78l1.94-0.31l0.44-6.06c0,0,2.16,3,2.63,3.66c0.47,0.66,1.59,2.69,1.59,2.69l1.94-0.81
			c0,0-0.19,0.06-0.69-0.72c-0.5-0.78-3-5.13-3-5.13s2.13-1,2.81-2.5c0.69-1.5,0.63-3.47-0.84-4.16c-1.47-0.69-2.94-0.47-3.63-0.47
			S286.23,63.37,286.29,63.37 M287.76,70.06l0.37-5.66c0,0,1.19-0.09,1.84,0.16c0.66,0.25,1.69,1.03,1.66,2.44
			c-0.03,1.41-0.78,2.03-1.13,2.28c-0.34,0.25-0.47,0.19-0.47,0.19l-0.63-0.22L287.76,70.06z"/>
		<path class="st4" d="M286.29,63.37l-1,13.78l1.94-0.31l0.44-6.06c0,0,2.16,3,2.63,3.66c0.47,0.66,1.59,2.69,1.59,2.69l1.94-0.81
			c0,0-0.19,0.06-0.69-0.72c-0.5-0.78-3-5.13-3-5.13s2.13-1,2.81-2.5c0.69-1.5,0.63-3.47-0.84-4.16c-1.47-0.69-2.94-0.47-3.63-0.47
			S286.23,63.37,286.29,63.37z M287.76,70.06l0.37-5.66c0,0,1.19-0.09,1.84,0.16c0.66,0.25,1.69,1.03,1.66,2.44
			c-0.03,1.41-0.78,2.03-1.13,2.28c-0.34,0.25-0.47,0.19-0.47,0.19l-0.63-0.22L287.76,70.06z"/>
		<path class="st0" d="M296.29,64.5c0.84-0.81,2.03-1.56,3-1.31c0.97,0.25,1.78,0.69,2.06,1.34l0.28,0.66l-1.69,1.03
			c0,0-0.69-1.63-1.78-1.72c-1.09-0.09-1.78,0.59-1.84,1.72c-0.06,1.13,1,2.16,2.28,2.97c1.28,0.81,2.09,1.25,2.31,2.16
			c0.22,0.91-0.13,2.13-0.41,2.94c-0.28,0.81-1.63,2.25-2.47,2.66c-0.84,0.41-1.88,0.25-2.59-0.22c-0.72-0.47-1.37-1.84-1.37-1.84
			l1.91-0.84c0,0,0.72,1.75,1.84,1.72c1.13-0.03,1.53-0.91,1.56-1.69c0.03-0.78,0.06-1.47-0.81-2.09s-1.91-1.19-2.63-1.81
			c-0.72-0.63-1.41-2.03-0.91-3.56C295.54,65.06,296.29,64.5,296.29,64.5"/>
		<path class="st4" d="M296.29,64.5c0.84-0.81,2.03-1.56,3-1.31c0.97,0.25,1.78,0.69,2.06,1.34l0.28,0.66l-1.69,1.03
			c0,0-0.69-1.63-1.78-1.72c-1.09-0.09-1.78,0.59-1.84,1.72c-0.06,1.13,1,2.16,2.28,2.97c1.28,0.81,2.09,1.25,2.31,2.16
			c0.22,0.91-0.13,2.13-0.41,2.94c-0.28,0.81-1.63,2.25-2.47,2.66c-0.84,0.41-1.88,0.25-2.59-0.22c-0.72-0.47-1.37-1.84-1.37-1.84
			l1.91-0.84c0,0,0.72,1.75,1.84,1.72c1.13-0.03,1.53-0.91,1.56-1.69c0.03-0.78,0.06-1.47-0.81-2.09s-1.91-1.19-2.63-1.81
			c-0.72-0.63-1.41-2.03-0.91-3.56C295.54,65.06,296.29,64.5,296.29,64.5z"/>
		<path class="st5" d="M305.03,61.37c0.63,0,1.14,0.51,1.14,1.14s-0.51,1.14-1.14,1.14s-1.14-0.51-1.14-1.14
			S304.4,61.37,305.03,61.37z"/>
		<path class="st0" d="M304.64,63.06v-1.17h0.31c0.09,0,0.16,0,0.2,0.01c0.04,0.01,0.08,0.02,0.11,0.05
			c0.04,0.03,0.07,0.06,0.09,0.11c0.02,0.05,0.03,0.1,0.03,0.15c0,0.1-0.03,0.17-0.09,0.22c-0.06,0.05-0.15,0.07-0.27,0.07H305
			l0.51,0.56h-0.2l-0.49-0.56h-0.02v0.56H304.64z M304.8,62.01v0.39h0.12c0.12,0,0.21-0.01,0.25-0.04c0.04-0.03,0.06-0.08,0.06-0.15
			c0-0.07-0.02-0.13-0.06-0.16c-0.04-0.03-0.13-0.04-0.25-0.04H304.8z"/>
		<path class="st0" d="M259.14,73.85c0,0-1.53-0.95-3.47-0.23c-1.94,0.72-2.57,2.39-3.15,3.38c-0.59,0.99-1.4,3.24-2.39,5.32
			c-0.99,2.07-1.62,3.11-2.39,4.19c-0.77,1.08-1.58,2.07-1.58,2.07s1.58-0.5,2.97,0.13c1.4,0.63,1.67,1.62,1.67,1.62
			s1.13-1.13,2.12-1.8c0.99-0.68,2.12-1.04,2.12-1.04s0.27,0.9,2.3,1.35c2.03,0.45,3.29-0.18,4.33-0.63
			c1.04-0.45,1.44-0.68,1.85-1.04c0.41-0.36,0.54-0.09,0.54,0.5c0,0.59-0.27,2.25-0.68,3.6c-0.41,1.35-1.13,2.21-1.44,2.52
			c-0.32,0.32-0.68,0.45-0.68,0.45s1.31,0.32,2.61-0.59c1.31-0.9,1.89-2.16,2.12-3.2c0.23-1.04,0.32-1.49,0.32-1.49
			s1.08,0,2.61-0.68c1.53-0.68,2.07-1.8,2.3-2.03c0.23-0.23,0.68-0.36,0.86,0.09c0.19,0.47,0,1.71,0,2.3c0,0.32,0.14,0.59,0.81,0.36
			c0.68-0.23,1.4-0.5,2.48-0.77c1.08-0.27,2.03-0.59,2.03-0.59s0.05,0.5,0.05,0.95c0,0.45-0.05,0.86,0.86,0.36
			c0.9-0.5,2.61-1.44,3.56-1.8c0.95-0.36,1.4-0.54,1.4-0.54s-0.18,1.94,0.86,2.43c1.04,0.5,2.16,0.32,3.24,0
			c1.08-0.31,2.16-0.86,2.16-0.86s1.89,1.4,4.28,1.44c2.39,0.05,3.83-0.13,7.66-1.44c3.83-1.31,4.32-2.21,4.32-2.21
			s-1.89,0.86-2.97,1.17c-1.08,0.32-3.74,0.77-5.72,0.59c-1.98-0.18-3.02-0.77-3.02-0.77s1.22-0.86,1.17-1.8
			c-0.04-0.95-1.04-1.62-3.11-0.72c-2.07,0.9-2.07,1.67-2.34,1.98c-0.27,0.32-0.13,0.86-0.68,1.17c-0.54,0.32-1.53,0.5-1.67-0.23
			c-0.14-0.72,0-1.4,0.05-1.98c0.05-0.59-0.14-1.62-1.22-1.17c-1.08,0.45-2.84,1.13-3.6,1.49c-0.77,0.36-0.77-0.05-0.59-0.68
			s0.63-1.62-0.81-1.13c-1.44,0.5-4.28,1.31-4.28,1.31l-0.04,0.59h0.41l0.09,0.99c0,0-0.99,0.54-1.58,0.09
			c-0.59-0.45-0.41-1.26-0.27-1.94c0.13-0.68,0.27-1.13,0.27-1.13s-0.9,0.5-2.03,0.99c-1.13,0.5-2.61,0.68-2.61,0.68
			s-0.36-1.08-1.85-0.95c-1.49,0.13-1.94,0.41-2.12,0.5c-0.18,0.09-0.41,0.18-0.41,0.18s-0.05-1.13-1.04-1.35
			c-0.99-0.23-0.99-0.14-0.99-0.14s-0.54,1.49-1.44,2.07c-0.9,0.59-1.17,1.13-2.43,1.13s-1.22-0.32-1.22-0.32s1.44-1.49,0.99-2.21
			c-0.45-0.72-1.58-0.95-3.11-0.23c-1.53,0.72-1.98,1.49-2.16,1.76c-0.18,0.27-0.27,0.41-0.27,0.41s-1.04,0.18-2.25,0.13
			c-1.22-0.05-2.34-0.63-2.34-0.63s1.08-2.75,1.71-4.51c0.63-1.76,1.25-4.13,2.54-5.73c1.29-1.6,2.44-1.52,3.29-1.7
			C258.66,73.85,259.14,73.85,259.14,73.85 M258.69,84.44c0.41-0.05,0.05,1.35-0.45,1.22C257.74,85.52,258.28,84.48,258.69,84.44
			 M266.8,86.2c0,0,1.31-0.31,1.26,0.32c-0.05,0.63-0.63,0.95-0.99,1.08c-0.36,0.13-0.45,0.13-0.45,0.13s0.05-0.45,0.09-0.86
			C266.75,86.47,266.8,86.2,266.8,86.2 M292.83,84.8c0.41-0.05,0.04,1.35-0.45,1.22C291.89,85.88,292.43,84.84,292.83,84.8
			 M272.79,83.67l0.59-1.22c0,0,0.45-0.23,1.26-0.59c0.81-0.36,1.62-0.81,1.62-0.81l-0.27,1.22c0,0-0.59,0.45-1.58,0.9
			C273.42,83.63,272.79,83.67,272.79,83.67 M258.51,82.14c0,0,0.86,0.59,2.03-0.05c1.17-0.63,1.44-2.34,1.44-2.34
			s-1.35,1.26-1.94,1.62C259.45,81.74,258.51,82.14,258.51,82.14"/>
		<path class="st4" d="M259.14,73.85c0,0-1.53-0.95-3.47-0.23c-1.94,0.72-2.57,2.39-3.15,3.38c-0.59,0.99-1.4,3.24-2.39,5.32
			c-0.99,2.07-1.62,3.11-2.39,4.19c-0.77,1.08-1.58,2.07-1.58,2.07s1.58-0.5,2.97,0.13c1.4,0.63,1.67,1.62,1.67,1.62
			s1.13-1.13,2.12-1.8c0.99-0.68,2.12-1.04,2.12-1.04s0.27,0.9,2.3,1.35c2.03,0.45,3.29-0.18,4.33-0.63
			c1.04-0.45,1.44-0.68,1.85-1.04c0.41-0.36,0.54-0.09,0.54,0.5c0,0.59-0.27,2.25-0.68,3.6c-0.41,1.35-1.13,2.21-1.44,2.52
			c-0.32,0.32-0.68,0.45-0.68,0.45s1.31,0.32,2.61-0.59c1.31-0.9,1.89-2.16,2.12-3.2c0.23-1.04,0.32-1.49,0.32-1.49
			s1.08,0,2.61-0.68c1.53-0.68,2.07-1.8,2.3-2.03c0.23-0.23,0.68-0.36,0.86,0.09c0.19,0.47,0,1.71,0,2.3c0,0.32,0.14,0.59,0.81,0.36
			c0.68-0.23,1.4-0.5,2.48-0.77c1.08-0.27,2.03-0.59,2.03-0.59s0.05,0.5,0.05,0.95c0,0.45-0.05,0.86,0.86,0.36
			c0.9-0.5,2.61-1.44,3.56-1.8c0.95-0.36,1.4-0.54,1.4-0.54s-0.18,1.94,0.86,2.43c1.04,0.5,2.16,0.32,3.24,0
			c1.08-0.31,2.16-0.86,2.16-0.86s1.89,1.4,4.28,1.44c2.39,0.05,3.83-0.13,7.66-1.44c3.83-1.31,4.32-2.21,4.32-2.21
			s-1.89,0.86-2.97,1.17c-1.08,0.32-3.74,0.77-5.72,0.59c-1.98-0.18-3.02-0.77-3.02-0.77s1.22-0.86,1.17-1.8
			c-0.04-0.95-1.04-1.62-3.11-0.72c-2.07,0.9-2.07,1.67-2.34,1.98c-0.27,0.32-0.13,0.86-0.68,1.17c-0.54,0.32-1.53,0.5-1.67-0.23
			c-0.14-0.72,0-1.4,0.05-1.98c0.05-0.59-0.14-1.62-1.22-1.17c-1.08,0.45-2.84,1.13-3.6,1.49c-0.77,0.36-0.77-0.05-0.59-0.68
			s0.63-1.62-0.81-1.13c-1.44,0.5-4.28,1.31-4.28,1.31l-0.04,0.59h0.41l0.09,0.99c0,0-0.99,0.54-1.58,0.09
			c-0.59-0.45-0.41-1.26-0.27-1.94c0.13-0.68,0.27-1.13,0.27-1.13s-0.9,0.5-2.03,0.99c-1.13,0.5-2.61,0.68-2.61,0.68
			s-0.36-1.08-1.85-0.95c-1.49,0.13-1.94,0.41-2.12,0.5c-0.18,0.09-0.41,0.18-0.41,0.18s-0.05-1.13-1.04-1.35
			c-0.99-0.23-0.99-0.14-0.99-0.14s-0.54,1.49-1.44,2.07c-0.9,0.59-1.17,1.13-2.43,1.13s-1.22-0.32-1.22-0.32s1.44-1.49,0.99-2.21
			c-0.45-0.72-1.58-0.95-3.11-0.23c-1.53,0.72-1.98,1.49-2.16,1.76c-0.18,0.27-0.27,0.41-0.27,0.41s-1.04,0.18-2.25,0.13
			c-1.22-0.05-2.34-0.63-2.34-0.63s1.08-2.75,1.71-4.51c0.63-1.76,1.25-4.13,2.54-5.73c1.29-1.6,2.44-1.52,3.29-1.7
			C258.66,73.85,259.14,73.85,259.14,73.85z M258.69,84.44c0.41-0.05,0.05,1.35-0.45,1.22C257.74,85.52,258.28,84.48,258.69,84.44z
			 M266.8,86.2c0,0,1.31-0.31,1.26,0.32c-0.05,0.63-0.63,0.95-0.99,1.08c-0.36,0.13-0.45,0.13-0.45,0.13s0.05-0.45,0.09-0.86
			C266.75,86.47,266.8,86.2,266.8,86.2z M292.83,84.8c0.41-0.05,0.04,1.35-0.45,1.22C291.89,85.88,292.43,84.84,292.83,84.8z
			 M272.79,83.67l0.59-1.22c0,0,0.45-0.23,1.26-0.59c0.81-0.36,1.62-0.81,1.62-0.81l-0.27,1.22c0,0-0.59,0.45-1.58,0.9
			C273.42,83.63,272.79,83.67,272.79,83.67z M258.51,82.14c0,0,0.86,0.59,2.03-0.05c1.17-0.63,1.44-2.34,1.44-2.34
			s-1.35,1.26-1.94,1.62C259.45,81.74,258.51,82.14,258.51,82.14z"/>
	</g>
</g>
</svg>
