<svg height="121.969" viewBox="0 0 179 121.969" width="179" xmlns="http://www.w3.org/2000/svg"><path d="m215.567 271.866h-.267a.2.2 0 0 1 -.2-.2v-5.211l-1.94 3.767a.2.2 0 0 1 -.181.11h-.179a.2.2 0 0 1 -.179-.107l-2.022-3.795v5.236a.2.2 0 0 1 -.2.2h-.268a.2.2 0 0 1 -.2-.2v-6.424a.2.2 0 0 1 .2-.2h.429a.2.2 0 0 1 .18.11l2.158 4.166 2.075-4.163a.2.2 0 0 1 .181-.113h.421a.2.2 0 0 1 .2.2v6.424a.2.2 0 0 1 -.208.2zm6.927 0h-.294a.2.2 0 0 1 -.19-.131l-.781-2.058h-2.715l-.79 2.059a.2.2 0 0 1 -.19.13h-.295a.2.2 0 0 1 -.19-.276l2.476-6.424a.2.2 0 0 1 .19-.131h.34a.2.2 0 0 1 .19.132l2.44 6.424a.2.2 0 0 1 -.191.275zm-3.717-2.866h2.189l-1.084-2.849zm5.692 2.863h-.295a.2.2 0 0 1 -.2-.2v-6.424a.2.2 0 0 1 .2-.2h.295a.2.2 0 0 1 .2.2v6.424a.2.2 0 0 1 -.2.203zm4.353.137a2.314 2.314 0 0 1 -1.689-.621 2.4 2.4 0 0 1 -.7-1.66.2.2 0 0 1 .2-.216h.295a.2.2 0 0 1 .2.19 1.733 1.733 0 0 0 .493 1.2 1.613 1.613 0 0 0 1.208.444 1.859 1.859 0 0 0 1.131-.336 1.111 1.111 0 0 0 .49-.962 1.033 1.033 0 0 0 -.5-.945 4.81 4.81 0 0 0 -1.232-.441.149.149 0 0 1 -.04-.015c-.015-.005-.04-.011-.073-.019a4.143 4.143 0 0 1 -1.49-.628 1.565 1.565 0 0 1 -.523-1.214 1.689 1.689 0 0 1 .652-1.421 2.319 2.319 0 0 1 1.482-.461 2.288 2.288 0 0 1 1.584.543 2.089 2.089 0 0 1 .675 1.535.208.208 0 0 1 -.056.15.2.2 0 0 1 -.147.063h-.286a.2.2 0 0 1 -.2-.2 1.36 1.36 0 0 0 -.457-1.065 1.664 1.664 0 0 0 -1.128-.371 1.582 1.582 0 0 0 -1.024.311 1.087 1.087 0 0 0 -.4.915.941.941 0 0 0 .328.718 3 3 0 0 0 1.181.471.172.172 0 0 1 .043.016.344.344 0 0 1 .107.027 5.565 5.565 0 0 1 1.447.537 1.591 1.591 0 0 1 .773 1.412 1.878 1.878 0 0 1 -.712 1.554 2.61 2.61 0 0 1 -1.632.489zm6.812 0a2.775 2.775 0 0 1 -2.334-1.062 4.684 4.684 0 0 1 0-4.962 2.724 2.724 0 0 1 2.336-1.083 2.759 2.759 0 0 1 2.344 1.073 4.084 4.084 0 0 1 .71 2.489 4.04 4.04 0 0 1 -.711 2.491 2.762 2.762 0 0 1 -2.345 1.054zm-1.783-1.509a2.315 2.315 0 0 0 3.575 0 4.058 4.058 0 0 0 -.009-4.071 2.291 2.291 0 0 0 -3.567 0 4.083 4.083 0 0 0 .001 4.071zm11.446 1.375h-.297a.2.2 0 0 1 -.168-.088l-3.67-5.365v5.25a.2.2 0 0 1 -.2.2h-.3a.2.2 0 0 1 -.2-.2v-6.424a.2.2 0 0 1 .2-.2h.3a.205.205 0 0 1 .168.089l3.66 5.371v-5.256a.2.2 0 0 1 .2-.2h.31a.2.2 0 0 1 .2.2v6.424a.2.2 0 0 1 -.2.199zm-.261-.512.057.083v-.1l-.032.013a.183.183 0 0 1 -.025.004zm-4.167-5.9v.125a.2.2 0 0 1 .071-.021zm12.16 4.235h-2.378a.2.2 0 0 1 -.2-.2v-.251a.2.2 0 0 1 .2-.2h2.378a.2.2 0 0 1 .2.2v.251a.2.2 0 0 1 -.2.197zm7.892 2.311a2.677 2.677 0 0 1 -2.291-1.084 4.7 4.7 0 0 1 -.009-4.922 2.671 2.671 0 0 1 2.3-1.1 3.112 3.112 0 0 1 1.6.394 2.223 2.223 0 0 1 1.012 1.3.2.2 0 0 1 -.105.243l-.278.134a.2.2 0 0 1 -.17 0 .205.205 0 0 1 -.113-.128 1.775 1.775 0 0 0 -1.942-1.276 1.968 1.968 0 0 0 -1.737.868 3.488 3.488 0 0 0 -.536 2.02 3.432 3.432 0 0 0 .536 2.01 1.965 1.965 0 0 0 1.737.87 2.008 2.008 0 0 0 1.559-.6 2.255 2.255 0 0 0 .544-1.6v-.069h-1.915a.2.2 0 0 1 -.2-.2v-.268a.2.2 0 0 1 .2-.2h2.405a.2.2 0 0 1 .2.183c.006.067.01.13.01.19v.161a2.752 2.752 0 0 1 -1.527 2.832 3.333 3.333 0 0 1 -1.28.242zm9.27-.134h-.291a.2.2 0 0 1 -.19-.131l-.782-2.058h-2.718l-.791 2.059a.2.2 0 0 1 -.189.13h-.3a.2.2 0 0 1 -.19-.276l2.476-6.424a.2.2 0 0 1 .19-.131h.34a.2.2 0 0 1 .19.132l2.44 6.424a.2.2 0 0 1 -.185.275zm-3.717-2.866h2.189l-1.084-2.849zm7.212 3a2.314 2.314 0 0 1 -1.689-.621 2.4 2.4 0 0 1 -.7-1.66.2.2 0 0 1 .055-.152.2.2 0 0 1 .148-.064h.3a.2.2 0 0 1 .2.19 1.733 1.733 0 0 0 .493 1.2 1.615 1.615 0 0 0 1.209.444 1.861 1.861 0 0 0 1.131-.336 1.111 1.111 0 0 0 .489-.962 1.033 1.033 0 0 0 -.5-.945 4.792 4.792 0 0 0 -1.232-.441.132.132 0 0 1 -.039-.015l-.073-.019a4.142 4.142 0 0 1 -1.491-.628 1.564 1.564 0 0 1 -.522-1.214 1.691 1.691 0 0 1 .651-1.421 2.321 2.321 0 0 1 1.482-.461 2.293 2.293 0 0 1 1.585.543 2.085 2.085 0 0 1 .674 1.535.2.2 0 0 1 -.056.15.2.2 0 0 1 -.147.063h-.286a.2.2 0 0 1 -.2-.2 1.359 1.359 0 0 0 -.456-1.065 1.667 1.667 0 0 0 -1.128-.371 1.583 1.583 0 0 0 -1.025.311 1.089 1.089 0 0 0 -.4.915.938.938 0 0 0 .329.718 2.983 2.983 0 0 0 1.181.471.152.152 0 0 1 .042.016.344.344 0 0 1 .107.027 5.591 5.591 0 0 1 1.448.537 1.592 1.592 0 0 1 .772 1.412 1.875 1.875 0 0 1 -.712 1.554 2.6 2.6 0 0 1 -1.64.489zm5.962-.134h-.3a.2.2 0 0 1 -.2-.2v-5.944h-1.8a.2.2 0 0 1 -.2-.2v-.277a.2.2 0 0 1 .2-.2h4.308a.2.2 0 0 1 .2.2v.277a.2.2 0 0 1 -.2.2h-1.8v5.944a.2.2 0 0 1 -.208.2zm7.91 0h-.348a.2.2 0 0 1 -.2-.2v-1.439c0-.17 0-.306 0-.409a2.024 2.024 0 0 0 -.012-.209.808.808 0 0 0 -.391-.64 2.113 2.113 0 0 0 -.891-.138h-1.736v2.835a.2.2 0 0 1 -.2.2h-.3a.2.2 0 0 1 -.2-.2v-6.424a.2.2 0 0 1 .2-.2h2.12a3.265 3.265 0 0 1 1.67.334 1.948 1.948 0 0 1 -.107 3.124 1.373 1.373 0 0 1 .579 1.1c0 .01.01.045.01.85l.009 1.222a.206.206 0 0 1 -.059.145.2.2 0 0 1 -.144.049zm-3.586-3.712h1.781c1.38 0 1.54-.69 1.54-1.209a1.038 1.038 0 0 0 -.915-1.185c-.072-.01-.177-.02-.308-.029s-.289-.012-.469-.012h-1.629zm8.61 3.846a2.775 2.775 0 0 1 -2.334-1.062 4.684 4.684 0 0 1 0-4.962 2.724 2.724 0 0 1 2.336-1.083 2.759 2.759 0 0 1 2.344 1.073 4.084 4.084 0 0 1 .711 2.489 4.04 4.04 0 0 1 -.712 2.491 2.761 2.761 0 0 1 -2.345 1.054zm-1.783-1.509a2.315 2.315 0 0 0 3.575 0 4.054 4.054 0 0 0 -.008-4.071 2.291 2.291 0 0 0 -3.567 0 4.08 4.08 0 0 0 .001 4.071zm11.437 1.375h-.3a.2.2 0 0 1 -.167-.088l-3.67-5.365v5.25a.2.2 0 0 1 -.2.2h-.3a.2.2 0 0 1 -.2-.2v-6.424a.2.2 0 0 1 .2-.2h.3a.205.205 0 0 1 .168.089l3.66 5.371v-5.256a.2.2 0 0 1 .2-.2h.3a.2.2 0 0 1 .2.2v6.424a.2.2 0 0 1 -.191.199zm-.26-.512.056.083v-.1l-.031.013zm-4.167-5.9v.125a.179.179 0 0 1 .032-.013.169.169 0 0 1 .039-.008zm9.45 6.549a2.773 2.773 0 0 1 -2.333-1.062 4.684 4.684 0 0 1 0-4.962 2.721 2.721 0 0 1 2.335-1.083 2.757 2.757 0 0 1 2.344 1.073 4.084 4.084 0 0 1 .711 2.489 4.033 4.033 0 0 1 -.712 2.491 2.761 2.761 0 0 1 -2.345 1.051zm-1.783-1.509a2.316 2.316 0 0 0 3.576 0 4.058 4.058 0 0 0 -.009-4.071 2.291 2.291 0 0 0 -3.567 0 4.087 4.087 0 0 0 0 4.068zm12.26 1.375h-.269a.2.2 0 0 1 -.2-.2v-5.211l-1.94 3.767a.2.2 0 0 1 -.181.11h-.178a.205.205 0 0 1 -.18-.107l-2.022-3.795v5.236a.2.2 0 0 1 -.2.2h-.268a.2.2 0 0 1 -.2-.2v-6.424a.2.2 0 0 1 .2-.2h.429a.2.2 0 0 1 .18.11l2.158 4.166 2.074-4.163a.2.2 0 0 1 .182-.113h.421a.2.2 0 0 1 .2.2v6.424a.2.2 0 0 1 -.206.197zm2.779 0h-.295a.2.2 0 0 1 -.2-.2v-6.424a.2.2 0 0 1 .2-.2h.295a.2.2 0 0 1 .2.2v6.424a.2.2 0 0 1 -.2.197zm6.508 0h-4.014a.2.2 0 0 1 -.2-.2v-6.424a.2.2 0 0 1 .2-.2h3.924a.2.2 0 0 1 .2.2v.285a.2.2 0 0 1 -.2.2h-3.416v2.247h2.666a.2.2 0 0 1 .2.2v.277a.2.2 0 0 1 -.2.2h-2.666v2.515h3.506a.2.2 0 0 1 .2.2v.286a.2.2 0 0 1 -.2.211zm7.321-2.18h-2.378a.2.2 0 0 1 -.2-.2v-.251a.2.2 0 0 1 .2-.2h2.378a.2.2 0 0 1 .2.2v.251a.2.2 0 0 1 -.2.197zm7.222 2.311a2.312 2.312 0 0 1 -1.689-.621 2.4 2.4 0 0 1 -.7-1.66.2.2 0 0 1 .055-.152.2.2 0 0 1 .148-.064h.3a.2.2 0 0 1 .2.19 1.733 1.733 0 0 0 .493 1.2 1.615 1.615 0 0 0 1.209.444 1.856 1.856 0 0 0 1.13-.336 1.109 1.109 0 0 0 .49-.962 1.033 1.033 0 0 0 -.5-.945 4.792 4.792 0 0 0 -1.232-.441.143.143 0 0 1 -.039-.015l-.073-.019a4.142 4.142 0 0 1 -1.491-.628 1.568 1.568 0 0 1 -.523-1.214 1.692 1.692 0 0 1 .652-1.421 2.319 2.319 0 0 1 1.482-.461 2.293 2.293 0 0 1 1.585.543 2.085 2.085 0 0 1 .674 1.535.2.2 0 0 1 -.055.15.207.207 0 0 1 -.148.063h-.286a.2.2 0 0 1 -.2-.2 1.363 1.363 0 0 0 -.456-1.066 1.667 1.667 0 0 0 -1.129-.371 1.582 1.582 0 0 0 -1.024.311 1.089 1.089 0 0 0 -.4.915.944.944 0 0 0 .328.718 3 3 0 0 0 1.182.471.165.165 0 0 1 .042.016.331.331 0 0 1 .107.027 5.591 5.591 0 0 1 1.448.537 1.592 1.592 0 0 1 .772 1.412 1.875 1.875 0 0 1 -.712 1.554 2.607 2.607 0 0 1 -1.64.49zm8.9-.134h-.3a.2.2 0 0 1 -.2-.2v-3.094h-3.656v3.094a.2.2 0 0 1 -.2.2h-.3a.2.2 0 0 1 -.2-.2v-6.424a.2.2 0 0 1 .2-.2h.3a.2.2 0 0 1 .2.2v2.658h3.661v-2.656a.2.2 0 0 1 .2-.2h.3a.2.2 0 0 1 .2.2v6.424a.2.2 0 0 1 -.202.198zm5.026.134a2.772 2.772 0 0 1 -2.333-1.062 4.684 4.684 0 0 1 0-4.962 2.721 2.721 0 0 1 2.335-1.083 2.759 2.759 0 0 1 2.344 1.073 4.084 4.084 0 0 1 .711 2.489 4.04 4.04 0 0 1 -.712 2.491 2.761 2.761 0 0 1 -2.345 1.054zm-1.783-1.509a2.315 2.315 0 0 0 3.575 0 4.054 4.054 0 0 0 -.008-4.071 2.291 2.291 0 0 0 -3.567 0 4.087 4.087 0 0 0 0 4.071zm7.111 1.375h-.3a.2.2 0 0 1 -.2-.2v-6.424a.2.2 0 0 1 .2-.2h1.752c2.081 0 2.518 1.034 2.518 1.9a1.938 1.938 0 0 1 -.54 1.411 1.851 1.851 0 0 1 -.974.486 5.663 5.663 0 0 1 -1.031.067h-1.218v2.763a.2.2 0 0 1 -.207.197zm.2-3.641h1.021a3.933 3.933 0 0 0 1.41-.151 1.125 1.125 0 0 0 .613-1.165 1.044 1.044 0 0 0 -1.017-1.148 6.692 6.692 0 0 0 -1-.051h-1.03v2.515zm5.92 3.641h-.3a.2.2 0 0 1 -.2-.2v-6.424a.2.2 0 0 1 .2-.2h1.752c2.081 0 2.518 1.034 2.518 1.9a1.936 1.936 0 0 1 -.541 1.411 1.837 1.837 0 0 1 -.972.486 5.683 5.683 0 0 1 -1.032.067h-1.218v2.763a.2.2 0 0 1 -.204.197zm.2-3.641h1.021a3.916 3.916 0 0 0 1.409-.151 1.124 1.124 0 0 0 .614-1.165 1.044 1.044 0 0 0 -1.017-1.148 6.7 6.7 0 0 0 -1-.051h-1.03v2.515zm5.955 3.641h-.3a.2.2 0 0 1 -.2-.2v-6.424a.2.2 0 0 1 .2-.2h.3a.2.2 0 0 1 .2.2v6.424a.2.2 0 0 1 -.195.2zm7.125 0h-.3a.2.2 0 0 1 -.168-.088l-3.669-5.365v5.25a.2.2 0 0 1 -.2.2h-.283a.2.2 0 0 1 -.2-.2v-6.424a.2.2 0 0 1 .2-.2h.3a.205.205 0 0 1 .168.089l3.66 5.371v-5.256a.2.2 0 0 1 .2-.2h.3a.2.2 0 0 1 .2.2v6.424a.2.2 0 0 1 -.202.199zm-.261-.512.057.084v-.1l-.032.013a.183.183 0 0 1 -.019.003zm-4.166-5.9v.125a.169.169 0 0 1 .031-.013.18.18 0 0 1 .039-.008zm9.407 6.546a2.679 2.679 0 0 1 -2.292-1.084 4.7 4.7 0 0 1 -.009-4.922 2.671 2.671 0 0 1 2.3-1.1 3.108 3.108 0 0 1 1.595.394 2.217 2.217 0 0 1 1.012 1.3.2.2 0 0 1 -.105.242l-.277.134a.2.2 0 0 1 -.17 0 .2.2 0 0 1 -.113-.128 1.777 1.777 0 0 0 -1.942-1.276 1.965 1.965 0 0 0 -1.737.868 3.483 3.483 0 0 0 -.536 2.02 3.441 3.441 0 0 0 .535 2.01 1.965 1.965 0 0 0 1.738.87 2.01 2.01 0 0 0 1.559-.6 2.255 2.255 0 0 0 .544-1.6v-.068h-1.915a.2.2 0 0 1 -.2-.2v-.268a.2.2 0 0 1 .2-.2h2.4a.2.2 0 0 1 .2.184 1.789 1.789 0 0 1 .01.189v.161a2.752 2.752 0 0 1 -1.527 2.832 3.328 3.328 0 0 1 -1.27.242zm-175.073-6.761h.429l2.342 4.521 2.252-4.521h.42v6.424h-.27v-6.049l-2.324 4.512h-.176l-2.4-4.512v6.049h-.268v-6.424zm9.591 0h.34l2.44 6.424h-.298l-.831-2.189h-3l-.84 2.189h-.295zm1.546 3.967-1.376-3.619-1.4 3.619h2.779zm2.914-3.967h.295v6.424h-.295zm2.753 4.467a1.945 1.945 0 0 0 .555 1.332 1.824 1.824 0 0 0 1.349.5 2.049 2.049 0 0 0 1.252-.376 1.31 1.31 0 0 0 .572-1.125 1.233 1.233 0 0 0 -.6-1.117 5.23 5.23 0 0 0 -1.287-.465.5.5 0 0 0 -.117-.035 4.073 4.073 0 0 1 -1.4-.581 1.367 1.367 0 0 1 -.456-1.064 1.491 1.491 0 0 1 .572-1.259 2.116 2.116 0 0 1 1.359-.42 2.082 2.082 0 0 1 1.448.491 1.882 1.882 0 0 1 .608 1.394h-.286a1.57 1.57 0 0 0 -.527-1.215 1.873 1.873 0 0 0 -1.261-.42 1.767 1.767 0 0 0 -1.153.357 1.288 1.288 0 0 0 -.474 1.072 1.144 1.144 0 0 0 .394.867 3.273 3.273 0 0 0 1.269.518.16.16 0 0 0 .049.014.337.337 0 0 1 .076.022 5.589 5.589 0 0 1 1.412.519 1.393 1.393 0 0 1 .68 1.241 1.675 1.675 0 0 1 -.635 1.394 2.393 2.393 0 0 1 -1.5.447 2.109 2.109 0 0 1 -1.546-.563 2.194 2.194 0 0 1 -.644-1.528h.295zm6.535-3.61a2.519 2.519 0 0 1 2.172-1 2.554 2.554 0 0 1 2.181.991 3.874 3.874 0 0 1 .67 2.368 3.826 3.826 0 0 1 -.67 2.368 2.91 2.91 0 0 1 -4.353-.009 4.482 4.482 0 0 1 -.004-4.714zm.223 4.513a2.517 2.517 0 0 0 3.906 0 4.256 4.256 0 0 0 -.008-4.307 2.494 2.494 0 0 0 -3.9 0 4.282 4.282 0 0 0 -.002 4.307zm6.981-5.37h.3l4.03 5.915v-5.915h.3v6.424h-.3l-4.041-5.906v5.906h-.3v-6.424zm9.985 3.993h2.378v.251h-2.378zm10.27-3.868a2.173 2.173 0 0 0 -1.9.956 3.664 3.664 0 0 0 -.572 2.135 3.622 3.622 0 0 0 .572 2.127 2.175 2.175 0 0 0 1.9.956 2.226 2.226 0 0 0 1.708-.661 2.438 2.438 0 0 0 .6-1.743v-.277h-2.118v-.268h2.405c0 .06.009.116.009.17v.161a2.556 2.556 0 0 1 -1.4 2.645 3.107 3.107 0 0 1 -1.2.232 2.471 2.471 0 0 1 -2.127-1 4.5 4.5 0 0 1 -.009-4.682 2.467 2.467 0 0 1 2.136-1.018 2.906 2.906 0 0 1 1.493.366 2.016 2.016 0 0 1 .921 1.188l-.277.135a1.973 1.973 0 0 0 -2.145-1.422zm6.49-.125h.34l2.44 6.424h-.295l-.831-2.189h-3l-.84 2.189h-.3zm1.546 3.967-1.376-3.619-1.4 3.619h2.78zm2.834.5a1.94 1.94 0 0 0 .554 1.332 1.826 1.826 0 0 0 1.35.5 2.048 2.048 0 0 0 1.251-.376 1.31 1.31 0 0 0 .572-1.125 1.231 1.231 0 0 0 -.6-1.117 5.2 5.2 0 0 0 -1.287-.465.5.5 0 0 0 -.116-.035 4.054 4.054 0 0 1 -1.4-.581 1.367 1.367 0 0 1 -.456-1.064 1.488 1.488 0 0 1 .572-1.259 2.111 2.111 0 0 1 1.358-.42 2.087 2.087 0 0 1 1.449.491 1.885 1.885 0 0 1 .607 1.394h-.286a1.567 1.567 0 0 0 -.527-1.215 1.873 1.873 0 0 0 -1.26-.42 1.77 1.77 0 0 0 -1.154.357 1.29 1.29 0 0 0 -.473 1.072 1.147 1.147 0 0 0 .393.867 3.287 3.287 0 0 0 1.269.518.16.16 0 0 0 .049.014.323.323 0 0 1 .076.022 5.6 5.6 0 0 1 1.413.519 1.392 1.392 0 0 1 .679 1.241 1.674 1.674 0 0 1 -.634 1.394 2.4 2.4 0 0 1 -1.5.447 2.112 2.112 0 0 1 -1.547-.563 2.193 2.193 0 0 1 -.643-1.528h.3zm7.553-4.19h-2v-.277h4.308v.277h-2v6.147h-.3v-6.147zm4.424 3.109v3.038h-.3v-6.424h2.128a3.115 3.115 0 0 1 1.564.3 1.49 1.49 0 0 1 .635 1.376 1.51 1.51 0 0 1 -1.162 1.582 1.1 1.1 0 0 1 .9 1.108q.007.045.008.831l.009 1.224h-.344v-1.439c0-.172 0-.311 0-.415s-.007-.18-.013-.228a1.006 1.006 0 0 0 -.5-.8 2.26 2.26 0 0 0 -.983-.161h-1.94zm1.985-.268q1.743 0 1.743-1.412a1.238 1.238 0 0 0 -1.082-1.385c-.083-.012-.194-.022-.33-.031s-.3-.013-.483-.013h-1.833v2.841zm4.657-2.261a2.52 2.52 0 0 1 2.172-1 2.554 2.554 0 0 1 2.181.991 3.874 3.874 0 0 1 .67 2.368 3.826 3.826 0 0 1 -.67 2.368 2.91 2.91 0 0 1 -4.353-.009 4.488 4.488 0 0 1 -.004-4.714zm.223 4.513a2.518 2.518 0 0 0 3.907 0 4.253 4.253 0 0 0 -.009-4.307 2.494 2.494 0 0 0 -3.9 0 4.282 4.282 0 0 0 -.002 4.307zm6.973-5.37h.3l4.031 5.915v-5.915h.3v6.424h-.3l-4.04-5.906v5.906h-.3v-6.424zm7.481.857a2.521 2.521 0 0 1 2.172-1 2.555 2.555 0 0 1 2.182.991 3.88 3.88 0 0 1 .67 2.368 3.832 3.832 0 0 1 -.67 2.368 2.911 2.911 0 0 1 -4.354-.009 4.488 4.488 0 0 1 -.004-4.714zm.224 4.513a2.517 2.517 0 0 0 3.906 0 4.253 4.253 0 0 0 -.009-4.307 2.493 2.493 0 0 0 -3.9 0 4.282 4.282 0 0 0 -.001 4.307zm6.981-5.37h.429l2.342 4.521 2.252-4.521h.421v6.424h-.269v-6.049l-2.324 4.512h-.178l-2.4-4.512v6.049h-.268v-6.424zm7.929 0h.294v6.424h-.294zm2.788 0h3.925v.285h-3.621v2.654h2.87v.277h-2.87v2.922h3.71v.286h-4.014zm8.957 3.993h2.377v.251h-2.377zm7.7.474a1.944 1.944 0 0 0 .554 1.332 1.826 1.826 0 0 0 1.35.5 2.046 2.046 0 0 0 1.251-.376 1.31 1.31 0 0 0 .572-1.125 1.231 1.231 0 0 0 -.6-1.117 5.2 5.2 0 0 0 -1.287-.465.5.5 0 0 0 -.116-.035 4.054 4.054 0 0 1 -1.4-.581 1.367 1.367 0 0 1 -.456-1.064 1.488 1.488 0 0 1 .572-1.259 2.111 2.111 0 0 1 1.358-.42 2.087 2.087 0 0 1 1.449.491 1.885 1.885 0 0 1 .607 1.394h-.286a1.567 1.567 0 0 0 -.527-1.215 1.873 1.873 0 0 0 -1.26-.42 1.77 1.77 0 0 0 -1.154.357 1.29 1.29 0 0 0 -.473 1.072 1.147 1.147 0 0 0 .393.867 3.287 3.287 0 0 0 1.269.518.17.17 0 0 0 .049.014.323.323 0 0 1 .076.022 5.584 5.584 0 0 1 1.413.519 1.392 1.392 0 0 1 .679 1.241 1.674 1.674 0 0 1 -.634 1.394 2.4 2.4 0 0 1 -1.5.447 2.112 2.112 0 0 1 -1.547-.563 2.2 2.2 0 0 1 -.643-1.528h.3zm6.132-4.467h.3v2.861h4.067v-2.859h.3v6.424h-.3v-3.3h-4.067v3.3h-.3v-6.424zm7.517.857a2.521 2.521 0 0 1 2.172-1 2.552 2.552 0 0 1 2.181.991 3.874 3.874 0 0 1 .671 2.368 3.826 3.826 0 0 1 -.671 2.368 2.91 2.91 0 0 1 -4.353-.009 4.488 4.488 0 0 1 .001-4.714zm.224 4.513a2.517 2.517 0 0 0 3.906 0 4.253 4.253 0 0 0 -.009-4.307 2.493 2.493 0 0 0 -3.9 0 4.282 4.282 0 0 0 .004 4.307zm11.039-3.673a1.737 1.737 0 0 1 -.482 1.269 1.634 1.634 0 0 1 -.868.429 5.554 5.554 0 0 1 -.992.063h-1.42v2.966h-.3v-6.424h1.752q2.311 0 2.311 1.697zm-3.763-1.429v2.921h1.224a4.259 4.259 0 0 0 1.493-.169 1.318 1.318 0 0 0 .733-1.35 1.244 1.244 0 0 0 -1.189-1.349 6.943 6.943 0 0 0 -1.028-.053h-1.232zm9.886 1.429a1.733 1.733 0 0 1 -.483 1.269 1.627 1.627 0 0 1 -.867.429 5.554 5.554 0 0 1 -.992.063h-1.421v2.966h-.3v-6.424h1.752q2.312 0 2.312 1.697zm-3.763-1.429v2.921h1.224a4.259 4.259 0 0 0 1.493-.169 1.318 1.318 0 0 0 .733-1.35 1.244 1.244 0 0 0 -1.189-1.349 6.943 6.943 0 0 0 -1.028-.053zm5.863-.268h.3v6.424h-.3zm2.789 0h.3l4.032 5.915v-5.915h.3v6.424h-.3l-4.041-5.906v5.906h-.285v-6.424zm9.6.125a2.172 2.172 0 0 0 -1.9.956 3.657 3.657 0 0 0 -.573 2.135 3.615 3.615 0 0 0 .573 2.127 2.174 2.174 0 0 0 1.9.956 2.222 2.222 0 0 0 1.707-.661 2.438 2.438 0 0 0 .6-1.743v-.277h-2.118v-.268h2.4a1.7 1.7 0 0 1 .009.17v.161a2.556 2.556 0 0 1 -1.4 2.645 3.1 3.1 0 0 1 -1.2.232 2.473 2.473 0 0 1 -2.128-1 4.5 4.5 0 0 1 -.009-4.682 2.468 2.468 0 0 1 2.145-1.015 2.905 2.905 0 0 1 1.492.366 2.016 2.016 0 0 1 .921 1.188l-.277.135a1.972 1.972 0 0 0 -2.136-1.425zm-175.543-82.342h29.6v9.94h-18.351v9.788h16.9v9.787h-16.9v16.363h-11.249zm56.838 36.78c8.109 0 13.31-6.118 13.31-13.84s-5.2-13.841-13.31-13.841c-8.186 0-13.311 6.117-13.311 13.841s5.125 13.84 13.311 13.84m0-38.31c14.458 0 24.708 10.782 24.708 24.47s-10.25 24.469-24.708 24.469c-14.535 0-24.709-10.782-24.709-24.469s10.174-24.47 24.709-24.47m29.911 1.53h11.245v45.878h-11.245zm36.26 19.878c2.524 0 4.208-2.6 4.208-5.276s-1.989-5.047-4.514-5.047h-8.721v10.323zm-20.272-19.881h19.2c9.868 0 16.294 5.964 16.294 14.605 0 8.029-4.054 12.54-10.863 14.222l12.394 17.054h-14.075l-11.705-17.128v17.128h-11.245v-45.878zm39.776 0h30.37v9.94h-19.125v8.259h17.671v9.787h-17.671v8.258h19.966v9.637h-31.211v-45.878zm-142.077 50.497h7.739c6.553 0 11.626 4.811 11.626 11.067 0 5.922-4.517 11.14-11.626 11.14h-7.739zm7.627 17.248a6.163 6.163 0 0 0 0-12.326h-2.184v12.326zm15.551-17.618h5.184l-6.406 9.216h-.481zm12.442-.37h.963l10.886 22.947h-5.851l-1.11-2.3h-8.776l-1.074 2.3h-5.845zm3.036 16.766-2.555-5.626h-.074l-2.592 5.626zm9.072-16.026h5.406v13.917c0 2.961 1.407 4 3.3 4 2.074 0 3.37-1.036 3.37-4v-13.917h5.443v14.731c0 5.256-3.925 8.217-8.813 8.217-5.073 0-8.7-3.109-8.7-8.217v-14.731zm24.512 4.811h-4.962v-4.811h15.477v4.811h-5.035v17.4h-5.48zm22.994-5.551a11.845 11.845 0 1 1 -11.961 11.844 11.609 11.609 0 0 1 11.961-11.844zm0 18.543c3.924 0 6.442-2.961 6.442-6.7s-2.518-6.7-6.442-6.7c-3.963 0-6.443 2.961-6.443 6.7s2.48 6.7 6.443 6.7zm15.476-17.8h5.073l5.665 11.992 5.7-11.992h5v22.207h-5.4v-9.882l-4.851 10.623h-.889l-4.851-10.7v9.956h-5.444v-22.207zm24.993 0h5.739l8.628 13.176v-13.179h5.406v22.207h-5.663l-8.665-13.213v13.213h-5.445v-22.207zm23.327 0h14.7v4.811h-9.257v4h8.553v4.738h-8.553v4h9.664v4.663h-15.107v-22.215zm-63.861-56.774a.436.436 0 0 1 -.324-.143l-8.718-9.664-7.368 9.1a.436.436 0 0 1 -.678-.548l7.684-9.49c.009-.012.018-.023.028-.034a.478.478 0 0 1 .116-.086.427.427 0 0 1 .184-.048.454.454 0 0 1 .193.037.459.459 0 0 1 .123.083.4.4 0 0 1 .028.03l9.054 10.036a.435.435 0 0 1 -.323.727m20.4-21.094h8.292v-.551a4.018 4.018 0 0 0 -3.9-4.037 4.192 4.192 0 0 0 -3.656 1.63 3.927 3.927 0 0 0 -.735 2.333v.627zm-74.055 22.22h-41.514a.436.436 0 1 1 0-.871h41.078v-15.8a.438.438 0 0 1 .123-.3l10.238-10.573a.436.436 0 0 1 .31-.133.432.432 0 0 1 .307.128l10.609 10.573a.437.437 0 0 1 .128.309v15.374h11.731a3.309 3.309 0 0 1 -.133-.608 3.071 3.071 0 0 1 1.07-2.8l.074-.078c1.695-1.79 5.5-5.783 8.334-8.754-.462-.524-1.474-1.635-1.785-1.89a.206.206 0 0 0 -.154-.036 7.587 7.587 0 0 1 -3.753-.65 4.418 4.418 0 0 1 -1.613-1.18l-4.12-4.745a1.066 1.066 0 0 1 -.22-.405 1.373 1.373 0 0 1 .124-1.221.973.973 0 0 1 1.268-.171.471.471 0 0 1 .1.076c.144.151 3.546 3.7 4.026 4.219a.5.5 0 0 0 .359.185.178.178 0 0 0 .119-.071l.136-.167a.2.2 0 0 0 -.011-.272l-4.289-4.323a.419.419 0 0 1 -.082-.114 1.3 1.3 0 0 1 .049-1.306 1.149 1.149 0 0 1 1.357-.192.415.415 0 0 1 .128.087l4.551 4.467a.211.211 0 0 0 .142.057.167.167 0 0 0 .123-.054c.025-.026.054-.059.082-.093a.666.666 0 0 0 -.028-.408.186.186 0 0 0 -.051-.083l-4.1-4a1.041 1.041 0 0 1 -.276-.448 1.088 1.088 0 0 1 .167-1.116.939.939 0 0 1 1.2-.054c.217.153 5.112 3.632 6.427 5.652a4.9 4.9 0 0 1 .5 3.521 3.161 3.161 0 0 0 -.057.7 8.791 8.791 0 0 0 1.647 1.985l2.615-2.74a2.216 2.216 0 0 0 .653-1.419 8.509 8.509 0 0 1 1.3-4.948 10.031 10.031 0 0 1 5.582-3.137 2.729 2.729 0 0 1 2.238.582c2.017 1.823-1.044 7.177-1.422 7.817-.1.189-1.121 1.885-4.29 2.208a1.685 1.685 0 0 0 -.315.055 2.092 2.092 0 0 1 -.3.076 2.384 2.384 0 0 0 -1.44.827l-2.358 2.912 10.154 9.34a1.625 1.625 0 0 1 .226.264 2.284 2.284 0 0 1 -.086 2.691h11.542c-.024-.026-.048-.052-.071-.079-.123-.145-.253-.316-.389-.507a4.259 4.259 0 0 1 -.744-2.947l1.92-17.237a.435.435 0 0 1 .433-.387h3.619v-.627a4.8 4.8 0 0 1 .907-2.853 5.016 5.016 0 0 1 4.243-1.983h.127a4.894 4.894 0 0 1 4.759 4.909v.553h3.788a.435.435 0 0 1 .434.394l1.774 18.274a3.1 3.1 0 0 1 -1.011 2.335c-.053.054-.108.1-.163.154h42.3a.436.436 0 0 1 0 .872h-44.895a.436.436 0 1 1 0-.872h.125a.47.47 0 0 1 .084 0 2.712 2.712 0 0 0 1.923-.767 2.26 2.26 0 0 0 .761-1.641l-1.735-17.876h-3.392v2.841a.436.436 0 0 1 -.872 0v-2.852h-8.292v2.841a.436.436 0 0 1 -.872 0v-2.841h-3.229l-1.877 16.849a3.4 3.4 0 0 0 .589 2.346c.122.171.237.322.343.446a2.2 2.2 0 0 0 1.273.644.436.436 0 0 1 -.012.872h-14.339a.034.034 0 0 0 -.01 0 .429.429 0 0 1 -.152-.031.43.43 0 0 1 -.149-.1l-.011-.012a.447.447 0 0 1 -.079-.125.477.477 0 0 1 -.032-.146v-.027a.466.466 0 0 1 .034-.159.449.449 0 0 1 .1-.142c1.312-1.257.78-2.062.605-2.327a.609.609 0 0 0 -.094-.11l-10.45-9.612a.409.409 0 0 1 -.085-.106.44.44 0 0 1 -.056-.19 0 0 0 0 1 0 0 .441.441 0 0 1 .025-.172.45.45 0 0 1 .074-.129l2.614-3.227a3.25 3.25 0 0 1 1.964-1.136 1.46 1.46 0 0 0 .187-.047 2.427 2.427 0 0 1 .5-.094c2.783-.284 3.581-1.7 3.614-1.76l.01-.018c.816-1.382 2.859-5.588 1.591-6.734a1.916 1.916 0 0 0 -1.554-.363 9.1 9.1 0 0 0 -4.965 2.77 7.71 7.71 0 0 0 -1.145 4.389 3.106 3.106 0 0 1 -.9 2.088l-2.912 3.051a.437.437 0 0 1 -.617.014c-.482-.462-2.067-2.023-2.211-2.75a3.185 3.185 0 0 1 .048-.989 4.106 4.106 0 0 0 -.372-2.925c-1.225-1.882-6.141-5.376-6.191-5.411a.349.349 0 0 0 -.07-.028.757.757 0 0 0 .039.231.179.179 0 0 0 .047.073l4.1 4.006a1.059 1.059 0 0 1 .281.469 1.325 1.325 0 0 1 -.136 1.2c-.04.048-.08.092-.119.134a1.038 1.038 0 0 1 -.744.332 1.088 1.088 0 0 1 -.77-.307l-4.486-4.4a.537.537 0 0 0 -.266-.03.528.528 0 0 0 .037.315l4.232 4.264a1.069 1.069 0 0 1 .064 1.44l-.138.169a1.038 1.038 0 0 1 -.788.387 1.338 1.338 0 0 1 -1-.464c-.441-.474-3.507-3.678-3.961-4.151a.252.252 0 0 0 -.114-.021.841.841 0 0 0 .038.436.194.194 0 0 0 .04.073l4.12 4.745a3.544 3.544 0 0 0 1.3.949 6.718 6.718 0 0 0 3.306.588 1.064 1.064 0 0 1 .812.227 30.984 30.984 0 0 1 2.153 2.3.446.446 0 0 1 .072.122.45.45 0 0 1 .028.2.437.437 0 0 1 -.056.177.452.452 0 0 1 -.069.089c-2.855 2.994-6.848 7.184-8.6 9.029l-.075.079a2.247 2.247 0 0 0 -.832 2.139 2.136 2.136 0 0 0 .183.624.508.508 0 0 1 -.234.913h-12.857a.436.436 0 0 1 -.436-.436v-15.644l-10.167-10.134-9.808 10.129v16.064a.436.436 0 0 1 -.436.436m132.647 83.269h-174.857a.39.39 0 1 1 0-.779h174.857a.39.39 0 1 1 0 .779z" fill="#fff" fill-rule="evenodd" transform="translate(-209 -150.031)"/></svg>