<?xml version="1.0" encoding="utf-8"?>
<!-- Generator: Adobe Illustrator 24.0.2, SVG Export Plug-In . SVG Version: 6.00 Build 0)  -->
<svg version="1.1" id="bloc-marque" xmlns="http://www.w3.org/2000/svg" xmlns:xlink="http://www.w3.org/1999/xlink" x="0px"
	 y="0px" viewBox="0 0 322 128.9" style="enable-background:new 0 0 322 128.9;" xml:space="preserve">
<style type="text/css">
	.st0{fill-rule:evenodd;clip-rule:evenodd;fill:#FFFFFF;}
</style>
<path class="st0" d="M15.1,124.1h-0.3c-0.1,0-0.2-0.1-0.2-0.2l0,0v-5.2l-1.9,3.8c0,0.1-0.1,0.1-0.2,0.1h-0.2c-0.1,0-0.1,0-0.2-0.1
	l-2-3.8v5.2c0,0.1-0.1,0.2-0.2,0.2l0,0H9.7c-0.1,0-0.2-0.1-0.2-0.2l0,0v-6.4c0-0.1,0.1-0.2,0.2-0.2l0,0h0.4c0.1,0,0.1,0,0.2,0.1
	l2.2,4.2l2.1-4.2c0-0.1,0.1-0.1,0.2-0.1h0.4c0.1,0,0.2,0.1,0.2,0.2l0,0v6.4C15.4,124,15.3,124.1,15.1,124.1
	C15.2,124.1,15.1,124.1,15.1,124.1L15.1,124.1z M22.1,124.1h-0.3c-0.1,0-0.2-0.1-0.2-0.1l-0.8-2.1h-2.7l-0.8,2.1
	c0,0.1-0.1,0.1-0.2,0.1h-0.3c-0.1,0-0.2-0.1-0.2-0.2c0,0,0-0.1,0-0.1l2.5-6.4c0-0.1,0.1-0.1,0.2-0.1h0.3c0.1,0,0.2,0.1,0.2,0.1
	l2.4,6.4C22.3,123.9,22.3,124,22.1,124.1C22.1,124.1,22.1,124.1,22.1,124.1L22.1,124.1z M18.4,121.2h2.2l-1.1-2.8L18.4,121.2z
	 M24,124.1h-0.3c-0.1,0-0.2-0.1-0.2-0.2l0,0v-6.4c0-0.1,0.1-0.2,0.2-0.2l0,0H24c0.1,0,0.2,0.1,0.2,0.2l0,0v6.4
	C24.3,124,24.2,124.1,24,124.1L24,124.1L24,124.1z M28.4,124.2c-0.6,0-1.2-0.2-1.7-0.6c-0.4-0.4-0.7-1-0.7-1.7
	c0-0.1,0.1-0.2,0.2-0.2c0,0,0,0,0,0h0.3c0.1,0,0.2,0.1,0.2,0.2c0,0.4,0.2,0.9,0.5,1.2c0.3,0.3,0.8,0.5,1.2,0.4
	c0.4,0,0.8-0.1,1.1-0.3c0.3-0.2,0.5-0.6,0.5-1c0-0.4-0.2-0.8-0.5-0.9c-0.4-0.2-0.8-0.3-1.2-0.4c0,0,0,0,0,0c0,0,0,0-0.1,0
	c-0.5-0.1-1-0.3-1.5-0.6c-0.4-0.3-0.5-0.8-0.5-1.2c0-0.6,0.2-1.1,0.6-1.4c0.4-0.3,1-0.5,1.5-0.5c0.6,0,1.1,0.2,1.6,0.5
	c0.4,0.4,0.7,0.9,0.7,1.5c0,0.1,0,0.1-0.1,0.2c0,0-0.1,0.1-0.1,0.1h-0.3c-0.1,0-0.2-0.1-0.2-0.2l0,0c0-0.4-0.1-0.8-0.5-1.1
	c-0.3-0.3-0.7-0.4-1.1-0.4c-0.4,0-0.7,0.1-1,0.3c-0.3,0.2-0.4,0.6-0.4,0.9c0,0.3,0.1,0.5,0.3,0.7c0.4,0.2,0.8,0.4,1.2,0.5
	c0,0,0,0,0,0c0,0,0.1,0,0.1,0c0.5,0.1,1,0.3,1.5,0.5c0.5,0.3,0.8,0.8,0.8,1.4c0,0.6-0.2,1.2-0.7,1.6C29.6,124.1,29,124.2,28.4,124.2
	L28.4,124.2z M35.2,124.2c-0.9,0.1-1.8-0.3-2.3-1.1c-1-1.5-1-3.4,0-5c0.5-0.7,1.4-1.1,2.3-1.1c0.9-0.1,1.8,0.3,2.3,1.1
	c0.5,0.7,0.8,1.6,0.7,2.5c0,0.9-0.2,1.8-0.7,2.5C37,123.9,36.1,124.3,35.2,124.2L35.2,124.2z M33.4,122.7c0.8,1,2.3,1.1,3.3,0.3
	c0.1-0.1,0.2-0.2,0.3-0.3c0.7-1.3,0.7-2.8,0-4.1c-0.8-1-2.2-1.1-3.2-0.3c-0.1,0.1-0.2,0.2-0.3,0.3C32.7,119.9,32.7,121.4,33.4,122.7
	z M44.9,124.1h-0.3c-0.1,0-0.1,0-0.2-0.1l-3.7-5.4v5.3c0,0.1-0.1,0.2-0.2,0.2l0,0h-0.3c-0.1,0-0.2-0.1-0.2-0.2l0,0v-6.4
	c0-0.1,0.1-0.2,0.2-0.2l0,0h0.3c0.1,0,0.1,0,0.2,0.1l3.7,5.4v-5.3c0-0.1,0.1-0.2,0.2-0.2l0,0h0.3c0.1,0,0.2,0.1,0.2,0.2l0,0v6.4
	C45.1,124,45,124.1,44.9,124.1L44.9,124.1z M44.6,123.6L44.6,123.6L44.6,123.6L44.6,123.6C44.6,123.6,44.6,123.6,44.6,123.6
	L44.6,123.6z M40.5,117.7v0.1c0,0,0,0,0.1,0L40.5,117.7z M52.6,121.9h-2.4c-0.1,0-0.2-0.1-0.2-0.2l0,0v-0.3c0-0.1,0.1-0.2,0.2-0.2
	l0,0h2.4c0.1,0,0.2,0.1,0.2,0.2l0,0v0.3C52.8,121.8,52.7,121.9,52.6,121.9L52.6,121.9z M60.5,124.2c-0.9,0.1-1.8-0.4-2.3-1.1
	c-0.9-1.5-0.9-3.4,0-4.9c0.5-0.7,1.4-1.2,2.3-1.1c0.6,0,1.1,0.1,1.6,0.4c0.5,0.3,0.8,0.8,1,1.3c0,0.1,0,0.2-0.1,0.2l-0.3,0.1
	c0,0-0.1,0-0.2,0c0,0-0.1-0.1-0.1-0.1c-0.2-0.8-1.1-1.4-1.9-1.3c-0.7,0-1.3,0.3-1.7,0.9c-0.4,0.6-0.6,1.3-0.5,2c0,0.7,0.2,1.4,0.5,2
	c0.4,0.6,1,0.9,1.7,0.9c0.6,0,1.2-0.2,1.6-0.6c0.4-0.4,0.6-1,0.5-1.6v-0.1h-1.9c-0.1,0-0.2-0.1-0.2-0.2l0,0v-0.3
	c0-0.1,0.1-0.2,0.2-0.2l0,0h2.4c0.1,0,0.2,0.1,0.2,0.2c0,0.1,0,0.1,0,0.2v0.2c0.2,1.2-0.5,2.3-1.5,2.8
	C61.4,124.1,60.9,124.2,60.5,124.2L60.5,124.2z M69.8,124.1h-0.3c-0.1,0-0.2-0.1-0.2-0.1l-0.8-2.1h-2.7l-0.8,2.1
	c0,0.1-0.1,0.1-0.2,0.1h-0.3c-0.1,0-0.2-0.1-0.2-0.2c0,0,0-0.1,0-0.1l2.5-6.4c0-0.1,0.1-0.1,0.2-0.1h0.3c0.1,0,0.2,0.1,0.2,0.1
	l2.4,6.4C70,123.9,70,124,69.8,124.1C69.8,124.1,69.8,124.1,69.8,124.1L69.8,124.1z M66.1,121.2h2.2l-1.1-2.8L66.1,121.2z
	 M73.3,124.2c-0.6,0-1.2-0.2-1.7-0.6c-0.4-0.4-0.7-1-0.7-1.7c0-0.1,0-0.1,0.1-0.2c0,0,0.1-0.1,0.2-0.1h0.3c0.1,0,0.2,0.1,0.2,0.2
	c0,0.4,0.2,0.9,0.5,1.2c0.3,0.3,0.8,0.5,1.2,0.4c0.4,0,0.8-0.1,1.1-0.3c0.3-0.2,0.5-0.6,0.5-1c0-0.4-0.2-0.8-0.5-0.9
	c-0.4-0.2-0.8-0.3-1.2-0.4c0,0,0,0,0,0l-0.1,0c-0.5-0.1-1-0.3-1.5-0.6c-0.3-0.3-0.5-0.8-0.5-1.2c0-0.6,0.2-1.1,0.7-1.4
	c0.4-0.3,0.9-0.5,1.5-0.5c0.6,0,1.1,0.2,1.6,0.5c0.4,0.4,0.7,0.9,0.7,1.5c0,0.1,0,0.1-0.1,0.2s-0.1,0.1-0.2,0.1h-0.3
	c-0.1,0-0.2-0.1-0.2-0.2l0,0c0-0.4-0.2-0.8-0.5-1.1c-0.3-0.3-0.7-0.4-1.1-0.4c-0.4,0-0.7,0.1-1,0.3c-0.3,0.2-0.4,0.6-0.4,0.9
	c0,0.3,0.1,0.5,0.3,0.7c0.4,0.2,0.8,0.4,1.2,0.5c0,0,0,0,0,0c0,0,0.1,0,0.1,0c0.5,0.1,1,0.3,1.4,0.5c0.5,0.3,0.8,0.8,0.8,1.4
	c0,0.6-0.2,1.2-0.7,1.6C74.4,124.1,73.9,124.2,73.3,124.2L73.3,124.2z M79.2,124.1h-0.3c-0.1,0-0.2-0.1-0.2-0.2l0,0v-5.9h-1.8
	c-0.1,0-0.2-0.1-0.2-0.2l0,0v-0.3c0-0.1,0.1-0.2,0.2-0.2l0,0h4.3c0.1,0,0.2,0.1,0.2,0.2l0,0v0.3c0,0.1-0.1,0.2-0.2,0.2l0,0h-1.8v5.9
	C79.4,124,79.3,124.1,79.2,124.1C79.2,124.1,79.2,124.1,79.2,124.1L79.2,124.1z M87.1,124.1h-0.3c-0.1,0-0.2-0.1-0.2-0.2l0,0v-1.4
	c0-0.2,0-0.3,0-0.4c0-0.1,0-0.1,0-0.2c0-0.3-0.2-0.5-0.4-0.6c-0.3-0.1-0.6-0.2-0.9-0.1h-1.7v2.8c0,0.1-0.1,0.2-0.2,0.2l0,0h-0.3
	c-0.1,0-0.2-0.1-0.2-0.2l0,0v-6.4c0-0.1,0.1-0.2,0.2-0.2l0,0h2.1c0.6,0,1.2,0.1,1.7,0.3c0.8,0.7,1,1.9,0.3,2.7
	c-0.1,0.2-0.3,0.3-0.4,0.4c0.4,0.3,0.6,0.7,0.6,1.1c0,0,0,0.1,0,0.8l0,1.2c0,0.1,0,0.1-0.1,0.1C87.3,124.1,87.2,124.1,87.1,124.1
	L87.1,124.1z M83.6,120.4h1.8c1.4,0,1.5-0.7,1.5-1.2c0.1-0.6-0.3-1.1-0.9-1.2c0,0,0,0,0,0c-0.1,0-0.2,0-0.3,0s-0.3,0-0.5,0h-1.6
	V120.4z M92.2,124.2c-0.9,0.1-1.8-0.3-2.3-1.1c-0.9-1.5-0.9-3.4,0-5c0.6-0.7,1.4-1.1,2.3-1.1c0.9-0.1,1.8,0.3,2.3,1.1
	c0.5,0.7,0.8,1.6,0.7,2.5c0,0.9-0.2,1.8-0.7,2.5C93.9,123.9,93.1,124.3,92.2,124.2L92.2,124.2z M90.4,122.7c0.8,1,2.3,1.1,3.3,0.3
	c0.1-0.1,0.2-0.2,0.3-0.3c0.7-1.3,0.7-2.8,0-4.1c-0.8-1-2.2-1.1-3.2-0.3c-0.1,0.1-0.2,0.2-0.3,0.3C89.7,119.9,89.7,121.4,90.4,122.7
	L90.4,122.7z M101.8,124.1h-0.3c-0.1,0-0.1,0-0.2-0.1l-3.7-5.4v5.3c0,0.1-0.1,0.2-0.2,0.2l0,0h-0.3c-0.1,0-0.2-0.1-0.2-0.2l0,0v-6.4
	c0-0.1,0.1-0.2,0.2-0.2l0,0h0.3c0.1,0,0.1,0,0.2,0.1l3.7,5.4v-5.3c0-0.1,0.1-0.2,0.2-0.2l0,0h0.3c0.1,0,0.2,0.1,0.2,0.2l0,0v6.4
	C102,124,101.9,124.1,101.8,124.1L101.8,124.1z M101.6,123.6L101.6,123.6L101.6,123.6L101.6,123.6L101.6,123.6z M97.4,117.7v0.1
	c0,0,0,0,0,0s0,0,0,0L97.4,117.7z M106.8,124.2c-0.9,0.1-1.8-0.3-2.3-1.1c-0.9-1.5-0.9-3.4,0-5c0.6-0.7,1.4-1.1,2.3-1.1
	c0.9-0.1,1.8,0.3,2.3,1.1c0.5,0.7,0.8,1.6,0.7,2.5c0,0.9-0.2,1.8-0.7,2.5C108.6,123.9,107.8,124.3,106.8,124.2L106.8,124.2z
	 M105.1,122.7c0.8,1,2.3,1.1,3.3,0.3c0.1-0.1,0.2-0.2,0.3-0.3c0.7-1.3,0.7-2.8,0-4.1c-0.8-1-2.2-1.1-3.2-0.3
	c-0.1,0.1-0.2,0.2-0.3,0.3C104.3,119.9,104.3,121.4,105.1,122.7L105.1,122.7z M117.3,124.1h-0.3c-0.1,0-0.2-0.1-0.2-0.2l0,0v-5.2
	l-1.9,3.8c0,0.1-0.1,0.1-0.2,0.1h-0.2c-0.1,0-0.1,0-0.2-0.1l-2-3.8v5.2c0,0.1-0.1,0.2-0.2,0.2l0,0h-0.3c-0.1,0-0.2-0.1-0.2-0.2l0,0
	v-6.4c0-0.1,0.1-0.2,0.2-0.2l0,0h0.4c0.1,0,0.2,0,0.2,0.1l2.2,4.2l2.1-4.2c0-0.1,0.1-0.1,0.2-0.1h0.4c0.1,0,0.2,0.1,0.2,0.2l0,0v6.4
	C117.5,124,117.4,124.1,117.3,124.1L117.3,124.1L117.3,124.1z M120.1,124.1h-0.3c-0.1,0-0.2-0.1-0.2-0.2l0,0v-6.4
	c0-0.1,0.1-0.2,0.2-0.2l0,0h0.3c0.1,0,0.2,0.1,0.2,0.2l0,0v6.4C120.3,124,120.2,124.1,120.1,124.1L120.1,124.1z M126.6,124.1h-4
	c-0.1,0-0.2-0.1-0.2-0.2l0,0v-6.4c0-0.1,0.1-0.2,0.2-0.2l0,0h3.9c0.1,0,0.2,0.1,0.2,0.2l0,0v0.3c0,0.1-0.1,0.2-0.2,0.2l0,0h-3.4v2.3
	h2.7c0.1,0,0.2,0.1,0.2,0.2l0,0v0.3c0,0.1-0.1,0.2-0.2,0.2l0,0h-2.7v2.5h3.5c0.1,0,0.2,0.1,0.2,0.2l0,0v0.3
	C126.8,124,126.7,124.1,126.6,124.1C126.6,124.1,126.6,124.1,126.6,124.1L126.6,124.1z M133.9,121.9h-2.4c-0.1,0-0.2-0.1-0.2-0.2
	l0,0v-0.3c0-0.1,0.1-0.2,0.2-0.2l0,0h2.4c0.1,0,0.2,0.1,0.2,0.2l0,0v0.3C134.1,121.8,134,121.9,133.9,121.9L133.9,121.9z
	 M141.1,124.2c-0.6,0-1.2-0.2-1.7-0.6c-0.4-0.4-0.7-1-0.7-1.7c0-0.1,0-0.1,0.1-0.2c0,0,0.1-0.1,0.1-0.1h0.3c0.1,0,0.2,0.1,0.2,0.2
	c0,0.4,0.2,0.9,0.5,1.2c0.3,0.3,0.8,0.5,1.2,0.4c0.4,0,0.8-0.1,1.1-0.3c0.3-0.2,0.5-0.6,0.5-1c0-0.4-0.2-0.8-0.5-0.9
	c-0.4-0.2-0.8-0.3-1.2-0.4c0,0,0,0,0,0l-0.1,0c-0.5-0.1-1-0.3-1.5-0.6c-0.3-0.3-0.5-0.8-0.5-1.2c0-0.6,0.2-1.1,0.6-1.4
	c0.4-0.3,0.9-0.5,1.5-0.5c0.6,0,1.1,0.2,1.6,0.5c0.4,0.4,0.7,0.9,0.7,1.5c0,0.1,0,0.1-0.1,0.2c0,0-0.1,0.1-0.1,0.1h-0.3
	c-0.1,0-0.2-0.1-0.2-0.2l0,0c0-0.4-0.1-0.8-0.5-1.1c-0.3-0.3-0.7-0.4-1.1-0.4c-0.4,0-0.7,0.1-1,0.3c-0.3,0.2-0.4,0.6-0.4,0.9
	c0,0.3,0.1,0.5,0.3,0.7c0.4,0.2,0.8,0.4,1.2,0.5c0,0,0,0,0,0c0,0,0.1,0,0.1,0c0.5,0.1,1,0.3,1.4,0.5c0.5,0.3,0.8,0.8,0.8,1.4
	c0,0.6-0.2,1.2-0.7,1.6C142.3,124.1,141.7,124.2,141.1,124.2L141.1,124.2z M150.1,124.1h-0.3c-0.1,0-0.2-0.1-0.2-0.2l0,0v-3.1h-3.7
	v3.1c0,0.1-0.1,0.2-0.2,0.2l0,0h-0.3c-0.1,0-0.2-0.1-0.2-0.2l0,0v-6.4c0-0.1,0.1-0.2,0.2-0.2l0,0h0.3c0.1,0,0.2,0.1,0.2,0.2l0,0v2.7
	h3.7v-2.7c0-0.1,0.1-0.2,0.2-0.2l0,0h0.3c0.1,0,0.2,0.1,0.2,0.2l0,0v6.4C150.3,124,150.2,124.1,150.1,124.1L150.1,124.1L150.1,124.1
	z M155.1,124.2c-0.9,0.1-1.8-0.3-2.3-1.1c-0.9-1.5-0.9-3.4,0-5c0.6-0.7,1.4-1.1,2.3-1.1c0.9-0.1,1.8,0.3,2.3,1.1
	c0.5,0.7,0.8,1.6,0.7,2.5c0,0.9-0.2,1.8-0.7,2.5C156.9,123.9,156,124.3,155.1,124.2L155.1,124.2z M153.3,122.7
	c0.8,1,2.3,1.1,3.3,0.3c0.1-0.1,0.2-0.2,0.3-0.3c0.7-1.3,0.7-2.8,0-4.1c-0.8-1-2.2-1.1-3.2-0.3c-0.1,0.1-0.2,0.2-0.4,0.3
	C152.6,119.9,152.6,121.4,153.3,122.7L153.3,122.7z M160.4,124.1h-0.3c-0.1,0-0.2-0.1-0.2-0.2l0,0v-6.4c0-0.1,0.1-0.2,0.2-0.2l0,0
	h1.8c2.1,0,2.5,1,2.5,1.9c0,0.5-0.2,1-0.5,1.4c-0.3,0.3-0.6,0.4-1,0.5c-0.3,0.1-0.7,0.1-1,0.1h-1.2v2.8
	C160.6,124,160.5,124.1,160.4,124.1C160.4,124.1,160.4,124.1,160.4,124.1L160.4,124.1z M160.6,120.4h1c0.5,0,0.9,0,1.4-0.2
	c0.4-0.2,0.7-0.7,0.6-1.2c0.1-0.6-0.4-1.1-0.9-1.1c0,0-0.1,0-0.1,0c-0.3,0-0.7-0.1-1-0.1h-1L160.6,120.4L160.6,120.4z M166.5,124.1
	h-0.3c-0.1,0-0.2-0.1-0.2-0.2l0,0v-6.4c0-0.1,0.1-0.2,0.2-0.2l0,0h1.8c2.1,0,2.5,1,2.5,1.9c0,0.5-0.2,1-0.5,1.4
	c-0.3,0.3-0.6,0.4-1,0.5c-0.3,0.1-0.7,0.1-1,0.1h-1.2v2.8C166.7,124,166.6,124.1,166.5,124.1C166.5,124.1,166.5,124.1,166.5,124.1
	L166.5,124.1z M166.7,120.4h1c0.5,0,0.9,0,1.4-0.2c0.4-0.2,0.7-0.7,0.6-1.2c0.1-0.6-0.4-1.1-0.9-1.1c0,0-0.1,0-0.1,0
	c-0.3,0-0.7-0.1-1-0.1h-1L166.7,120.4L166.7,120.4z M172.7,124.1h-0.3c-0.1,0-0.2-0.1-0.2-0.2l0,0v-6.4c0-0.1,0.1-0.2,0.2-0.2l0,0
	h0.3c0.1,0,0.2,0.1,0.2,0.2l0,0v6.4C172.9,124,172.8,124.1,172.7,124.1L172.7,124.1z M179.8,124.1h-0.3c-0.1,0-0.1,0-0.2-0.1
	l-3.7-5.4v5.3c0,0.1-0.1,0.2-0.2,0.2l0,0h-0.3c-0.1,0-0.2-0.1-0.2-0.2l0,0v-6.4c0-0.1,0.1-0.2,0.2-0.2l0,0h0.3c0.1,0,0.1,0,0.2,0.1
	l3.7,5.4v-5.3c0-0.1,0.1-0.2,0.2-0.2l0,0h0.3c0.1,0,0.2,0.1,0.2,0.2l0,0v6.4C180,124,179.9,124.1,179.8,124.1
	C179.8,124.1,179.8,124.1,179.8,124.1L179.8,124.1z M179.5,123.6L179.5,123.6L179.5,123.6L179.5,123.6
	C179.6,123.6,179.6,123.6,179.5,123.6L179.5,123.6z M175.4,117.7v0.1c0,0,0,0,0,0s0,0,0,0L175.4,117.7z M184.8,124.2
	c-0.9,0.1-1.8-0.4-2.3-1.1c-0.9-1.5-0.9-3.4,0-4.9c0.5-0.7,1.4-1.2,2.3-1.1c0.6,0,1.1,0.1,1.6,0.4c0.5,0.3,0.9,0.8,1,1.3
	c0,0.1,0,0.2-0.1,0.2l-0.3,0.1c-0.1,0-0.1,0-0.2,0c-0.1,0-0.1-0.1-0.1-0.1c-0.2-0.8-1.1-1.4-1.9-1.3c-0.7,0-1.4,0.3-1.7,0.9
	c-0.4,0.6-0.6,1.3-0.5,2c0,0.7,0.1,1.4,0.5,2c0.4,0.6,1.1,0.9,1.7,0.9c0.6,0,1.1-0.2,1.6-0.6c0.4-0.4,0.6-1,0.5-1.6v-0.1H185
	c-0.1,0-0.2-0.1-0.2-0.2l0,0v-0.3c0-0.1,0.1-0.2,0.2-0.2l0,0h2.4c0.1,0,0.2,0.1,0.2,0.2c0,0.1,0,0.1,0,0.2v0.2
	c0.1,1.2-0.5,2.3-1.5,2.8C185.6,124.1,185.2,124.2,184.8,124.2L184.8,124.2z M9.7,117.4h0.4l2.3,4.5l2.3-4.5h0.4v6.4h-0.3v-6.1
	l-2.3,4.5h-0.2l-2.4-4.5v6.1H9.7L9.7,117.4L9.7,117.4z M19.3,117.4h0.3l2.4,6.4h-0.3l-0.8-2.2h-3l-0.8,2.2h-0.3L19.3,117.4z
	 M20.9,121.4l-1.4-3.6l-1.4,3.6H20.9L20.9,121.4z M23.8,117.4h0.3v6.4h-0.3V117.4z M26.5,121.9c0,0.5,0.2,1,0.5,1.3
	c0.4,0.3,0.9,0.5,1.4,0.5c0.5,0,0.9-0.1,1.3-0.4c0.4-0.3,0.6-0.7,0.6-1.1c0-0.4-0.2-0.9-0.6-1.1c-0.4-0.2-0.8-0.4-1.3-0.5
	c0,0-0.1,0-0.1,0c-0.5-0.1-1-0.3-1.4-0.6c-0.3-0.3-0.5-0.7-0.5-1.1c0-0.5,0.2-1,0.6-1.3c0.4-0.3,0.9-0.4,1.4-0.4
	c0.5,0,1,0.2,1.5,0.5c0.4,0.4,0.6,0.9,0.6,1.4h-0.3c0-0.5-0.2-0.9-0.5-1.2c-0.4-0.3-0.8-0.4-1.3-0.4c-0.4,0-0.8,0.1-1.1,0.4
	c-0.3,0.3-0.5,0.7-0.5,1.1c0,0.3,0.1,0.7,0.4,0.9c0.4,0.3,0.8,0.4,1.3,0.5c0,0,0,0,0,0c0,0,0,0,0.1,0c0.5,0.1,1,0.3,1.4,0.5
	c0.4,0.3,0.7,0.7,0.7,1.2c0,0.5-0.2,1.1-0.6,1.4c-0.4,0.3-1,0.5-1.5,0.4c-0.6,0-1.1-0.2-1.5-0.6c-0.4-0.4-0.6-0.9-0.6-1.5
	L26.5,121.9L26.5,121.9z M33,118.3c0.5-0.7,1.3-1.1,2.2-1c0.8-0.1,1.7,0.3,2.2,1c0.5,0.7,0.7,1.5,0.7,2.4c0,0.8-0.2,1.7-0.7,2.4
	c-1.1,1.2-2.9,1.3-4.1,0.2c-0.1-0.1-0.2-0.2-0.2-0.3C32.2,121.6,32.2,119.8,33,118.3L33,118.3z M33.3,122.8c0.9,1.1,2.5,1.2,3.5,0.4
	c0.1-0.1,0.3-0.2,0.4-0.4c0.8-1.3,0.8-3,0-4.3c-0.9-1.1-2.4-1.3-3.5-0.4c-0.2,0.1-0.3,0.3-0.4,0.4C32.5,119.8,32.5,121.5,33.3,122.8
	L33.3,122.8z M40.3,117.4h0.3l4,5.9v-5.9h0.3v6.4h-0.3l-4-5.9v5.9h-0.3L40.3,117.4L40.3,117.4z M50.2,121.4h2.4v0.3h-2.4V121.4z
	 M60.5,117.6c-0.8,0-1.5,0.3-1.9,1c-0.4,0.6-0.6,1.4-0.6,2.1c0,0.8,0.2,1.5,0.6,2.1c0.4,0.6,1.1,1,1.9,1c0.6,0,1.3-0.2,1.7-0.7
	c0.4-0.5,0.6-1.1,0.6-1.7v-0.3h-2.1v-0.3h2.4c0,0.1,0,0.1,0,0.2v0.2c0.2,1.1-0.4,2.2-1.4,2.6c-0.4,0.2-0.8,0.2-1.2,0.2
	c-0.8,0.1-1.6-0.3-2.1-1c-0.9-1.4-0.9-3.2,0-4.7c0.5-0.7,1.3-1.1,2.1-1c0.5,0,1,0.1,1.5,0.4s0.8,0.7,0.9,1.2l-0.3,0.1
	C62.4,118.1,61.5,117.4,60.5,117.6L60.5,117.6z M67,117.4h0.3l2.4,6.4h-0.3l-0.8-2.2h-3l-0.8,2.2h-0.3L67,117.4z M68.5,121.4
	l-1.4-3.6l-1.4,3.6H68.5L68.5,121.4z M71.4,121.9c0,0.5,0.2,1,0.6,1.3c0.4,0.3,0.8,0.5,1.3,0.5c0.4,0,0.9-0.1,1.3-0.4
	c0.4-0.3,0.6-0.7,0.6-1.1c0-0.4-0.2-0.9-0.6-1.1c-0.4-0.2-0.8-0.4-1.3-0.5c0,0-0.1,0-0.1,0c-0.5-0.1-1-0.3-1.4-0.6
	c-0.3-0.3-0.5-0.7-0.5-1.1c0-0.5,0.2-1,0.6-1.3c0.4-0.3,0.9-0.4,1.4-0.4c0.5,0,1.1,0.2,1.4,0.5c0.4,0.4,0.6,0.9,0.6,1.4h-0.3
	c0-0.5-0.2-0.9-0.5-1.2c-0.3-0.3-0.8-0.4-1.3-0.4c-0.4,0-0.8,0.1-1.2,0.4c-0.3,0.3-0.5,0.7-0.5,1.1c0,0.3,0.1,0.7,0.4,0.9
	c0.4,0.3,0.8,0.4,1.3,0.5c0,0,0,0,0.1,0c0,0,0.1,0,0.1,0c0.5,0.1,1,0.3,1.4,0.5c0.4,0.3,0.7,0.7,0.7,1.2c0,0.5-0.2,1.1-0.6,1.4
	c-0.4,0.3-1,0.5-1.5,0.4c-0.6,0-1.1-0.2-1.6-0.6c-0.4-0.4-0.6-0.9-0.6-1.5L71.4,121.9L71.4,121.9z M78.9,117.7h-2v-0.3h4.3v0.3h-2
	v6.2h-0.3L78.9,117.7L78.9,117.7z M83.4,120.8v3h-0.3v-6.4h2.1c0.5,0,1.1,0.1,1.6,0.3c0.4,0.3,0.7,0.8,0.6,1.4
	c0.1,0.7-0.4,1.4-1.2,1.6c0.5,0.1,0.9,0.6,0.9,1.1c0,0,0,0.3,0,0.8l0,1.2h-0.3v-1.4c0-0.2,0-0.3,0-0.4s0-0.2,0-0.2
	c0-0.3-0.2-0.6-0.5-0.8c-0.3-0.1-0.7-0.2-1-0.2L83.4,120.8L83.4,120.8z M85.3,120.6c1.2,0,1.7-0.5,1.7-1.4c0.1-0.7-0.4-1.3-1.1-1.4
	h0c-0.1,0-0.2,0-0.3,0s-0.3,0-0.5,0h-1.8v2.8L85.3,120.6L85.3,120.6z M90,118.3c0.5-0.7,1.3-1.1,2.2-1c0.8-0.1,1.7,0.3,2.2,1
	c0.5,0.7,0.7,1.5,0.7,2.4c0,0.8-0.2,1.7-0.7,2.4c-1.1,1.2-2.9,1.3-4.1,0.2c-0.1-0.1-0.2-0.2-0.2-0.3C89.1,121.6,89.1,119.8,90,118.3
	L90,118.3z M90.2,122.8c0.9,1.1,2.5,1.2,3.5,0.4c0.1-0.1,0.3-0.2,0.4-0.4c0.8-1.3,0.8-3,0-4.3c-0.9-1.1-2.4-1.3-3.5-0.4
	c-0.2,0.1-0.3,0.3-0.4,0.4C89.4,119.8,89.4,121.5,90.2,122.8L90.2,122.8z M97.2,117.4h0.3l4,5.9v-5.9h0.3v6.4h-0.3l-4-5.9v5.9h-0.3
	L97.2,117.4L97.2,117.4z M104.7,118.3c0.5-0.7,1.3-1.1,2.2-1c0.8-0.1,1.7,0.3,2.2,1c0.5,0.7,0.7,1.5,0.7,2.4c0,0.8-0.2,1.7-0.7,2.4
	c-1.1,1.2-2.9,1.3-4.1,0.2c-0.1-0.1-0.2-0.2-0.2-0.2C103.8,121.6,103.8,119.8,104.7,118.3L104.7,118.3z M104.9,122.8
	c0.9,1.1,2.5,1.2,3.5,0.4c0.1-0.1,0.3-0.2,0.4-0.4c0.8-1.3,0.8-3,0-4.3c-0.9-1.1-2.4-1.3-3.5-0.4c-0.2,0.1-0.3,0.3-0.4,0.4
	C104.1,119.8,104.1,121.5,104.9,122.8L104.9,122.8z M111.9,117.4h0.4l2.3,4.5l2.3-4.5h0.4v6.4H117v-6.1l-2.3,4.5h-0.2l-2.4-4.5v6.1
	h-0.3V117.4L111.9,117.4z M119.8,117.4h0.3v6.4h-0.3V117.4z M122.6,117.4h3.9v0.3h-3.6v2.7h2.9v0.3h-2.9v2.9h3.7v0.3h-4L122.6,117.4
	z M131.6,121.4h2.4v0.3h-2.4V121.4z M139.3,121.9c0,0.5,0.2,1,0.6,1.3c0.4,0.3,0.9,0.5,1.4,0.5c0.4,0,0.9-0.1,1.3-0.4
	c0.4-0.3,0.6-0.7,0.6-1.1c0-0.4-0.2-0.9-0.6-1.1c-0.4-0.2-0.8-0.4-1.3-0.5c0,0-0.1,0-0.1,0c-0.5-0.1-1-0.3-1.4-0.6
	c-0.3-0.3-0.5-0.7-0.5-1.1c0-0.5,0.2-1,0.6-1.3c0.4-0.3,0.9-0.4,1.4-0.4c0.5,0,1.1,0.2,1.4,0.5c0.4,0.4,0.6,0.9,0.6,1.4h-0.3
	c0-0.5-0.2-0.9-0.5-1.2c-0.4-0.3-0.8-0.4-1.3-0.4c-0.4,0-0.8,0.1-1.1,0.4c-0.3,0.3-0.5,0.7-0.5,1.1c0,0.3,0.1,0.7,0.4,0.9
	c0.4,0.3,0.8,0.4,1.3,0.5c0,0,0,0,0.1,0c0,0,0.1,0,0.1,0c0.5,0.1,1,0.3,1.4,0.5c0.4,0.3,0.7,0.7,0.7,1.2c0,0.5-0.2,1.1-0.6,1.4
	c-0.4,0.3-1,0.5-1.5,0.4c-0.6,0-1.1-0.2-1.6-0.6c-0.4-0.4-0.6-0.9-0.6-1.5L139.3,121.9L139.3,121.9z M145.4,117.4h0.3v2.9h4.1v-2.9
	h0.3v6.4h-0.3v-3.3h-4.1v3.3h-0.3V117.4L145.4,117.4z M152.9,118.3c0.5-0.7,1.3-1.1,2.2-1c0.9-0.1,1.7,0.3,2.2,1
	c0.5,0.7,0.7,1.5,0.7,2.4c0,0.8-0.2,1.7-0.7,2.4c-1.1,1.2-2.9,1.3-4.1,0.2c-0.1-0.1-0.2-0.2-0.2-0.3
	C152,121.6,152,119.8,152.9,118.3L152.9,118.3z M153.1,122.8c0.9,1.1,2.5,1.2,3.5,0.4c0.1-0.1,0.3-0.2,0.4-0.4c0.8-1.3,0.8-3,0-4.3
	c-0.9-1.1-2.4-1.3-3.5-0.4c-0.1,0.1-0.3,0.3-0.4,0.4C152.4,119.8,152.4,121.5,153.1,122.8L153.1,122.8z M164.2,119.1
	c0,0.5-0.2,0.9-0.5,1.3c-0.2,0.2-0.5,0.4-0.9,0.4s-0.7,0.1-1,0.1h-1.4v3h-0.3v-6.4h1.8C163.4,117.4,164.2,118,164.2,119.1
	L164.2,119.1z M160.4,117.7v2.9h1.2c0.5,0,1,0,1.5-0.2c0.5-0.3,0.8-0.8,0.7-1.3c0.1-0.7-0.4-1.3-1.1-1.3c0,0,0,0-0.1,0
	c-0.3,0-0.7-0.1-1-0.1H160.4L160.4,117.7z M170.3,119.1c0,0.5-0.2,0.9-0.5,1.3c-0.2,0.2-0.5,0.4-0.9,0.4s-0.7,0.1-1,0.1h-1.4v3h-0.3
	v-6.4h1.8C169.5,117.4,170.3,118,170.3,119.1L170.3,119.1z M166.5,117.7v2.9h1.2c0.5,0,1,0,1.5-0.2c0.5-0.3,0.8-0.8,0.7-1.3
	c0.1-0.7-0.4-1.3-1.1-1.3c0,0,0,0-0.1,0c-0.3,0-0.7-0.1-1-0.1H166.5z M172.4,117.4h0.3v6.4h-0.3V117.4z M175.2,117.4h0.3l4,5.9v-5.9
	h0.3v6.4h-0.3l-4-5.9v5.9h-0.3L175.2,117.4L175.2,117.4z M184.8,117.6c-0.8,0-1.5,0.3-1.9,1c-0.4,0.6-0.6,1.4-0.6,2.1
	c0,0.8,0.2,1.5,0.6,2.1c0.4,0.6,1.1,1,1.9,1c0.6,0,1.3-0.2,1.7-0.7c0.4-0.5,0.6-1.1,0.6-1.7v-0.3H185v-0.3h2.4c0,0.1,0,0.1,0,0.2
	v0.2c0.1,1.1-0.4,2.2-1.4,2.6c-0.4,0.2-0.8,0.2-1.2,0.2c-0.8,0.1-1.6-0.3-2.1-1c-0.9-1.4-0.9-3.2,0-4.7c0.5-0.7,1.3-1.1,2.1-1
	c0.5,0,1,0.1,1.5,0.4c0.4,0.3,0.8,0.7,0.9,1.2l-0.3,0.1C186.7,118.1,185.8,117.4,184.8,117.6L184.8,117.6z M9.2,35.2h29.6v9.9H20.5
	V55h16.9v9.8H20.5v16.3H9.2V35.2z M66.1,72c8.1,0,13.3-6.1,13.3-13.8s-5.2-13.8-13.3-13.8c-8.2,0-13.3,6.1-13.3,13.8
	S57.9,72,66.1,72 M66.1,33.7c14.5,0,24.7,10.8,24.7,24.5S80.5,82.6,66.1,82.6c-14.5,0-24.7-10.8-24.7-24.5S51.5,33.7,66.1,33.7
	 M96,35.2h11.2v45.9H96V35.2z M132.2,55.1c2.5,0,4.2-2.6,4.2-5.3s-2-5-4.5-5h-8.7v10.3H132.2z M112,35.2h19.2
	c9.9,0,16.3,6,16.3,14.6c0,8-4.1,12.5-10.9,14.2L149,81.1h-14.1L123.2,64v17.1H112L112,35.2L112,35.2z M151.8,35.2h30.4v9.9H163v8.3
	h17.7v9.8H163v8.3h20v9.6h-31.2V35.2L151.8,35.2z M9.7,85.7h7.7C24,85.7,29,90.5,29,96.8c0,5.9-4.5,11.1-11.6,11.1H9.7V85.7z
	 M17.3,103c3.4,0,6.2-2.8,6.2-6.2s-2.8-6.2-6.2-6.2h-2.2V103L17.3,103L17.3,103z M32.8,85.3H38l-6.4,9.2h-0.5L32.8,85.3z M45.3,85h1
	l10.9,23h-5.8l-1.1-2.3h-8.8l-1.1,2.3h-5.8L45.3,85z M48.3,101.8l-2.5-5.6h-0.1l-2.6,5.6H48.3z M57.4,85.7h5.4v13.9c0,3,1.4,4,3.3,4
	c2.1,0,3.4-1,3.4-4V85.7h5.4v14.7c0,5.3-3.9,8.2-8.8,8.2c-5.1,0-8.7-3.1-8.7-8.2L57.4,85.7L57.4,85.7z M81.9,90.5h-5v-4.8h15.5v4.8
	h-5v17.4h-5.5V90.5z M104.9,85c6.5,0.1,11.8,5.4,11.7,12s-5.4,11.8-12,11.7c-6.5-0.1-11.7-5.3-11.7-11.8c-0.1-6.4,5-11.7,11.4-11.8
	C104.5,85,104.7,85,104.9,85z M104.9,103.5c3.9,0,6.4-3,6.4-6.7s-2.5-6.7-6.4-6.7c-4,0-6.4,3-6.4,6.7S100.9,103.5,104.9,103.5z
	 M120.4,85.7h5.1l5.7,12l5.7-12h5v22.2h-5.4v-9.9l-4.9,10.6h-0.9L125.8,98v10h-5.4L120.4,85.7L120.4,85.7z M145.4,85.7h5.7l8.6,13.2
	V85.7h5.4v22.2h-5.7l-8.7-13.2v13.2h-5.4L145.4,85.7L145.4,85.7z M168.7,85.7h14.7v4.8h-9.3v4h8.6v4.7h-8.6v4h9.7v4.7h-15.1V85.7
	L168.7,85.7z M104.8,29c-0.1,0-0.2,0-0.3-0.1l-8.7-9.7l-7.4,9.1c-0.2,0.2-0.4,0.2-0.6,0c-0.2-0.1-0.2-0.4-0.1-0.6l7.7-9.5
	c0,0,0,0,0,0c0,0,0.1-0.1,0.1-0.1c0.1,0,0.1,0,0.2,0c0.1,0,0.1,0,0.2,0c0.1,0,0.1,0,0.1,0.1c0,0,0,0,0,0l9.1,10
	c0.2,0.2,0.2,0.5,0,0.6C105.1,28.9,104.9,29,104.8,29 M125.2,7.9h8.3V7.3c0-2.2-1.7-4-3.9-4c-1.4-0.1-2.8,0.5-3.7,1.6
	c-0.5,0.7-0.7,1.5-0.7,2.3V7.9L125.2,7.9z M51.2,30.1H9.7c-0.2,0-0.4-0.2-0.5-0.4c0-0.2,0.2-0.4,0.4-0.5c0,0,0,0,0,0h41.1V13.4
	c0-0.1,0-0.2,0.1-0.3L61.1,2.5c0.1-0.1,0.2-0.1,0.3-0.1c0.1,0,0.2,0,0.3,0.1l10.6,10.6c0.1,0.1,0.1,0.2,0.1,0.3v15.4h11.7
	c-0.1-0.2-0.1-0.4-0.1-0.6c-0.2-1.1,0.3-2.1,1.1-2.8l0.1-0.1c1.7-1.8,5.5-5.8,8.3-8.8c-0.5-0.5-1.5-1.6-1.8-1.9c0,0-0.1,0-0.2,0
	c-1.3,0.1-2.6-0.1-3.8-0.6c-0.6-0.3-1.2-0.7-1.6-1.2L82.1,8c-0.1-0.1-0.2-0.3-0.2-0.4c-0.2-0.4-0.1-0.9,0.1-1.2
	c0.3-0.4,0.9-0.4,1.3-0.2c0,0,0.1,0.1,0.1,0.1c0.1,0.2,3.6,3.7,4,4.2c0.1,0.1,0.2,0.2,0.4,0.2c0.1,0,0.1,0,0.1-0.1l0.1-0.2
	c0.1-0.1,0.1-0.2,0-0.3l-4.3-4.3c0,0-0.1-0.1-0.1-0.1c-0.2-0.4-0.2-0.9,0.1-1.3c0.4-0.4,0.9-0.4,1.4-0.2c0.1,0,0.1,0.1,0.1,0.1
	l4.6,4.5c0,0,0.1,0.1,0.1,0.1s0.1,0,0.1-0.1c0,0,0.1-0.1,0.1-0.1c0-0.1,0-0.3,0-0.4c0-0.1,0-0.1-0.1-0.1l-4.1-4
	c-0.1-0.1-0.2-0.3-0.3-0.5c-0.2-0.4-0.1-0.8,0.2-1.1c0.3-0.3,0.8-0.3,1.2,0c0.2,0.2,5.1,3.6,6.4,5.6c0.6,1.1,0.8,2.3,0.5,3.5
	c0,0.2-0.1,0.5-0.1,0.7c0.4,0.7,1,1.4,1.7,2l2.6-2.7c0.4-0.4,0.6-0.9,0.7-1.4c-0.1-1.7,0.4-3.5,1.3-4.9c1.5-1.6,3.4-2.7,5.6-3.1
	c0.8-0.2,1.6,0.1,2.2,0.6c2,1.8-1,7.2-1.4,7.8c-0.1,0.2-1.1,1.9-4.3,2.2c-0.1,0-0.2,0-0.3,0.1c-0.1,0-0.2,0.1-0.3,0.1
	c-0.6,0.1-1.1,0.4-1.4,0.8l-2.4,2.9l10.2,9.3c0.1,0.1,0.2,0.2,0.2,0.3c0.6,0.8,0.5,1.9-0.1,2.7h11.5c0,0-0.1,0-0.1-0.1
	c-0.1-0.1-0.3-0.3-0.4-0.5c-0.6-0.9-0.9-1.9-0.7-3l1.9-17.2c0-0.2,0.2-0.4,0.4-0.4h3.6V7.2c0-1,0.3-2,0.9-2.8c1-1.3,2.6-2.1,4.2-2
	h0.1c2.7,0.1,4.8,2.3,4.8,4.9v0.6h3.8c0.2,0,0.4,0.2,0.4,0.4l1.8,18.3c0,0.9-0.4,1.7-1,2.3c-0.1,0-0.1,0.1-0.2,0.1h42.3
	c0.2,0,0.4,0.2,0.4,0.4c0,0.2-0.2,0.4-0.4,0.4h-44.9c-0.2,0-0.4-0.2-0.4-0.4s0.2-0.4,0.4-0.4l0,0h0.1c0,0,0.1,0,0.1,0
	c0.7,0,1.4-0.3,1.9-0.8c0.5-0.4,0.8-1,0.8-1.6l-1.7-17.9h-3.4v2.8c0,0.2-0.2,0.4-0.4,0.4s-0.4-0.2-0.4-0.4V8.7h-8.3v2.8
	c0,0.2-0.2,0.4-0.4,0.4s-0.4-0.2-0.4-0.4V8.7h-3.2l-1.9,16.8c-0.1,0.8,0.1,1.7,0.6,2.4c0.1,0.2,0.2,0.3,0.3,0.5
	c0.3,0.4,0.8,0.6,1.3,0.6c0.2,0,0.4,0.2,0.4,0.4s-0.2,0.4-0.4,0.4h-14.3h0c-0.1,0-0.1,0-0.2,0c-0.1,0-0.1-0.1-0.2-0.1l0,0
	c0,0-0.1-0.1-0.1-0.1c0,0,0-0.1,0-0.1v0c0,0,0-0.1,0-0.2s0.1-0.1,0.1-0.1c1.3-1.3,0.8-2.1,0.6-2.3c0,0-0.1-0.1-0.1-0.1l-10.4-9.6
	c0,0-0.1-0.1-0.1-0.1c0-0.1-0.1-0.1-0.1-0.2l0,0c0-0.1,0-0.1,0-0.2c0,0,0-0.1,0.1-0.1l2.6-3.2c0.5-0.6,1.2-1,2-1.1
	c0.1,0,0.1,0,0.2-0.1c0.2-0.1,0.3-0.1,0.5-0.1c2.8-0.3,3.6-1.7,3.6-1.8l0,0c0.8-1.4,2.9-5.6,1.6-6.7c-0.4-0.3-1-0.5-1.6-0.4
	c-1.9,0.4-3.7,1.3-5,2.8c-0.8,1.3-1.2,2.8-1.1,4.4c0,0.8-0.3,1.5-0.9,2.1l-2.9,3.1c-0.2,0.2-0.4,0.2-0.6,0c-0.5-0.5-2.1-2-2.2-2.8
	c0-0.3,0-0.7,0.1-1c0.2-1,0.1-2-0.4-2.9c-1.2-1.9-6.1-5.4-6.2-5.4c0,0-0.1,0-0.1,0c0,0.1,0,0.2,0,0.2c0,0,0,0,0.1,0.1l4.1,4
	c0.1,0.1,0.2,0.3,0.3,0.5C91,8.5,91,8.9,90.7,9.3c0,0.1-0.1,0.1-0.1,0.1c-0.2,0.2-0.5,0.3-0.7,0.3c-0.3,0-0.6-0.1-0.8-0.3L84.6,5
	c-0.1,0-0.2,0-0.3,0c0,0.1,0,0.2,0,0.3l4.2,4.3c0.4,0.4,0.4,1,0.1,1.4l-0.1,0.2c-0.2,0.2-0.5,0.4-0.8,0.4c-0.4,0-0.8-0.2-1-0.5
	c-0.4-0.5-3.5-3.7-4-4.2c0,0-0.1,0-0.1,0c0,0.2,0,0.3,0,0.4c0,0,0,0.1,0,0.1l4.1,4.7c0.3,0.4,0.8,0.7,1.3,0.9c1,0.5,2.2,0.7,3.3,0.6
	c0.3,0,0.6,0,0.8,0.2c0.8,0.7,1.5,1.5,2.2,2.3c0,0,0.1,0.1,0.1,0.1c0,0.1,0,0.1,0,0.2c0,0.1,0,0.1-0.1,0.2c0,0,0,0.1-0.1,0.1
	c-2.9,3-6.8,7.2-8.6,9L85.7,26c-0.7,0.5-1,1.3-0.8,2.1c0,0.2,0.1,0.4,0.2,0.6c0.2,0.2,0.3,0.5,0.1,0.7c-0.1,0.1-0.2,0.2-0.3,0.2H72
	c-0.2,0-0.4-0.2-0.4-0.4l0,0V13.6L61.4,3.5l-9.8,10.1v16.1C51.6,29.9,51.4,30.1,51.2,30.1L51.2,30.1 M183.8,113.3H9
	c-0.2,0-0.4-0.2-0.4-0.4s0.1-0.4,0.4-0.4c0,0,0,0,0,0h174.9c0.2,0,0.4,0.2,0.4,0.4C184.3,113.1,184.1,113.3,183.8,113.3
	C183.9,113.3,183.8,113.3,183.8,113.3z"/>
</svg>
